<?xml version="1.0" encoding="UTF-8" standalone="no"?>
<!DOCTYPE svg PUBLIC "-//W3C//DTD SVG 1.1//EN" "http://www.w3.org/Graphics/SVG/1.1/DTD/svg11.dtd">
<svg width="100%" height="100%" viewBox="0 0 2556 2016" version="1.1" xmlns="http://www.w3.org/2000/svg" xmlns:xlink="http://www.w3.org/1999/xlink" xml:space="preserve" xmlns:serif="http://www.serif.com/" style="fill-rule:evenodd;clip-rule:evenodd;stroke-linejoin:round;stroke-miterlimit:2;">
    <g transform="matrix(8.33333,0,0,8.33333,531.151,500.385)">
        <path d="M28.213,-42.792L46.303,84.966L-9.528,92.872L-27.618,-34.887L28.213,-42.792ZM17.131,61.545L26.787,60.178L23.791,39.013L28.744,38.311L27.619,30.357L22.664,31.058L15.848,-17.076L6.194,-15.709L-8.284,34.522L-7.032,43.377L14.134,40.38L17.131,61.545ZM0,34.267L8.417,0L13.009,32.426L0,34.267ZM89.141,-51.42L107.23,76.338L51.4,84.243L33.31,-43.515L89.141,-51.42ZM87.579,43.587C89.379,37.07 89.297,26.877 87.33,13.001C85.073,-2.944 82.049,-13.489 78.259,-18.635C74.709,-23.508 70,-25.531 64.13,-24.7C57.79,-23.802 53.732,-20.165 51.945,-13.787C50.133,-7.612 50.258,2.767 52.323,17.344C54.387,31.92 57.147,41.924 60.603,47.355C64.115,52.949 69.041,55.295 75.381,54.397C81.717,53.501 85.785,49.899 87.579,43.587ZM71.793,-9.502C73.427,-5.174 75.071,2.827 76.723,14.503C78.338,25.909 78.923,33.774 78.479,38.089C78.097,42.599 76.607,45.04 74.003,45.408C71.368,45.78 69.223,43.838 67.566,39.581C65.939,35.289 64.312,27.419 62.691,15.976C61.072,4.537 60.453,-3.456 60.827,-8.002C61.239,-12.551 62.761,-15.013 65.396,-15.385C68.031,-15.759 70.164,-13.8 71.793,-9.502ZM150.069,-60.046L168.158,67.712L112.327,75.617L94.238,-52.141L150.069,-60.046ZM139.695,44.193L149.351,42.826L146.354,21.661L151.308,20.959L150.183,13.003L145.228,13.706L138.414,-34.428L128.755,-33.061L114.28,17.17L115.532,26.025L136.698,23.028L139.695,44.193ZM122.563,16.913L130.98,-17.352L135.572,15.072L122.563,16.913ZM-63.738,135.527L-61.409,135.197L-57.719,148.418L-57.672,148.412L-57.81,142.299L-57.631,134.662L-55.777,134.4L-51.938,147.479L-51.89,147.472L-52.063,141.63L-52.047,133.871L-49.742,133.545L-50.341,151.906L-52.243,152.176L-54.778,144.027L-56.052,139.141L-56.099,139.148L-55.939,144.046L-55.96,145.091L-56.163,152.731L-58.112,153.007L-63.738,135.527ZM-48.904,131.584L-46.671,131.268L-45.382,140.369L-45.334,140.362C-44.944,139.241 -44.21,138.603 -43.133,138.451C-42.071,138.301 -41.306,138.629 -40.836,139.435C-40.538,139.942 -40.301,140.813 -40.127,142.049L-38.959,150.295L-41.193,150.611L-42.367,142.318C-42.546,141.05 -43.08,140.48 -43.967,140.605C-44.601,140.695 -44.966,141.078 -45.065,141.754C-45.103,142.051 -45.061,142.635 -44.938,143.506L-43.878,150.991L-46.112,151.308L-48.904,131.584ZM-33.039,149.65C-35.558,150.007 -37.108,148.134 -37.689,144.031C-38.276,139.88 -37.311,137.627 -34.792,137.27C-32.273,136.913 -30.72,138.81 -30.132,142.961C-29.551,147.064 -30.52,149.294 -33.039,149.65ZM-33.328,147.607C-32.599,147.504 -32.214,146.859 -32.172,145.674C-32.16,145.3 -32.241,144.504 -32.413,143.284C-32.593,142.017 -32.74,141.205 -32.855,140.85C-33.225,139.722 -33.774,139.21 -34.502,139.314C-35.215,139.415 -35.593,140.058 -35.635,141.243C-35.649,141.714 -35.573,142.536 -35.407,143.708C-35.248,144.833 -35.096,145.619 -34.952,146.067C-34.582,147.195 -34.041,147.708 -33.328,147.607ZM-23.851,148.35C-26.369,148.706 -27.919,146.833 -28.5,142.73C-29.088,138.579 -28.122,136.326 -25.603,135.969C-23.085,135.612 -21.531,137.509 -20.944,141.66C-20.363,145.763 -21.332,147.993 -23.851,148.35ZM-24.14,146.306C-23.411,146.203 -23.026,145.558 -22.983,144.373C-22.972,143.999 -23.052,143.203 -23.225,141.983C-23.404,140.716 -23.552,139.904 -23.666,139.549C-24.036,138.421 -24.585,137.909 -25.314,138.013C-26.027,138.114 -26.405,138.757 -26.447,139.942C-26.461,140.413 -26.385,141.235 -26.219,142.407C-26.06,143.532 -25.908,144.318 -25.764,144.766C-25.394,145.894 -24.853,146.407 -24.14,146.306ZM-17.6,135.03L-17.381,136.574L-17.334,136.568C-17.007,135.342 -16.352,134.659 -15.37,134.52C-13.484,134.253 -12.243,136.227 -11.647,140.441C-11.075,144.48 -11.755,146.637 -13.688,146.911C-14.638,147.045 -15.424,146.631 -16.045,145.669L-16.093,145.676L-15.205,151.949L-17.438,152.265L-19.834,135.346L-17.6,135.03ZM-14.826,145.036C-14.208,144.948 -13.852,144.437 -13.758,143.503C-13.696,142.912 -13.759,141.96 -13.945,140.645C-14.111,139.472 -14.267,138.654 -14.414,138.19C-14.767,137.061 -15.301,136.546 -16.014,136.647C-16.948,136.78 -17.217,138.248 -16.82,141.052C-16.425,143.84 -15.761,145.168 -14.826,145.036ZM-5.941,133.718L-5.641,135.833C-6.177,135.473 -6.762,135.337 -7.396,135.427C-7.808,135.485 -8.147,135.655 -8.414,135.935C-8.684,136.199 -8.791,136.53 -8.735,136.926C-8.645,137.446 -8.238,137.922 -7.515,138.353C-6.316,139.056 -5.654,139.455 -5.527,139.55C-4.777,140.171 -4.333,140.964 -4.196,141.931C-4.046,142.992 -4.233,143.899 -4.756,144.652C-5.282,145.389 -6.076,145.833 -7.137,145.983C-7.803,146.077 -8.479,145.979 -9.167,145.689L-9.476,143.502C-8.771,143.92 -8.117,144.086 -7.515,144C-6.517,143.859 -6.09,143.282 -6.233,142.268C-6.305,141.761 -6.744,141.225 -7.551,140.661L-9.458,139.525C-10.204,138.935 -10.644,138.165 -10.778,137.215C-10.913,136.264 -10.731,135.439 -10.232,134.738C-9.718,134.035 -8.985,133.616 -8.035,133.481C-7.274,133.374 -6.576,133.453 -5.941,133.718ZM-0.389,145.028C-0.785,145.084 -1.145,144.989 -1.471,144.744C-1.781,144.497 -1.963,144.176 -2.02,143.78C-2.076,143.384 -1.988,143.032 -1.757,142.725C-1.51,142.415 -1.188,142.232 -0.792,142.176C-0.396,142.12 -0.044,142.207 0.263,142.439C0.586,142.668 0.776,142.98 0.832,143.376C0.888,143.772 0.794,144.133 0.549,144.458C0.32,144.782 0.008,144.971 -0.389,145.028ZM4.519,144.333C4.123,144.389 3.762,144.294 3.436,144.05C3.126,143.803 2.944,143.481 2.888,143.085C2.831,142.689 2.919,142.337 3.15,142.03C3.397,141.72 3.719,141.537 4.115,141.481C4.511,141.425 4.863,141.513 5.17,141.744C5.493,141.973 5.683,142.285 5.739,142.681C5.795,143.077 5.701,143.438 5.456,143.764C5.227,144.087 4.915,144.277 4.519,144.333ZM9.426,143.638C9.03,143.694 8.669,143.6 8.343,143.355C8.034,143.108 7.851,142.786 7.795,142.39C7.739,141.994 7.826,141.642 8.057,141.335C8.304,141.025 8.626,140.842 9.022,140.786C9.418,140.73 9.77,140.818 10.077,141.049C10.4,141.278 10.59,141.59 10.646,141.987C10.702,142.383 10.608,142.743 10.363,143.069C10.134,143.392 9.822,143.582 9.426,143.638ZM15.727,124.275L18.103,123.939L20.347,139.789L24.339,139.224L24.632,141.291L18.264,142.193L15.727,124.275ZM29.21,140.837C26.691,141.193 25.141,139.32 24.56,135.217C23.972,131.066 24.938,128.813 27.457,128.456C29.975,128.1 31.529,129.997 32.116,134.147C32.697,138.25 31.728,140.48 29.21,140.837ZM28.92,138.793C29.649,138.69 30.034,138.046 30.077,136.86C30.088,136.487 30.008,135.69 29.835,134.47C29.656,133.203 29.509,132.391 29.394,132.036C29.024,130.909 28.475,130.397 27.746,130.5C27.033,130.601 26.656,131.244 26.613,132.43C26.599,132.9 26.675,133.722 26.841,134.894C27,136.019 27.152,136.805 27.296,137.254C27.666,138.381 28.207,138.894 28.92,138.793ZM38.358,139.541C35.839,139.898 34.29,138.025 33.709,133.922C33.121,129.771 34.086,127.517 36.605,127.161C39.124,126.804 40.678,128.701 41.265,132.852C41.846,136.955 40.877,139.185 38.358,139.541ZM38.069,137.498C38.798,137.395 39.183,136.75 39.225,135.565C39.237,135.191 39.157,134.395 38.984,133.175C38.804,131.907 38.657,131.096 38.542,130.741C38.173,129.613 37.623,129.101 36.895,129.204C36.182,129.305 35.804,129.949 35.762,131.134C35.748,131.605 35.824,132.426 35.99,133.599C36.149,134.724 36.301,135.51 36.445,135.958C36.815,137.086 37.356,137.599 38.069,137.498ZM41.266,118.817L43.499,118.501L45.347,131.547L45.394,131.54L47.421,125.823L49.916,125.47L47.604,131.227L52.019,137.413L49.429,137.78L45.438,131.849L45.39,131.856L46.292,138.224L44.058,138.54L41.266,118.817ZM56.407,124.89L56.707,127.005C56.171,126.645 55.586,126.509 54.953,126.599C54.541,126.657 54.201,126.827 53.934,127.107C53.664,127.371 53.557,127.702 53.613,128.098C53.703,128.618 54.11,129.094 54.834,129.525C56.032,130.228 56.694,130.627 56.821,130.722C57.571,131.343 58.015,132.137 58.152,133.103C58.302,134.164 58.116,135.071 57.592,135.824C57.066,136.561 56.272,137.005 55.211,137.155C54.546,137.249 53.869,137.151 53.182,136.861L52.872,134.675C53.578,135.092 54.231,135.258 54.833,135.173C55.831,135.031 56.259,134.454 56.115,133.44C56.043,132.933 55.604,132.397 54.797,131.833L52.891,130.697C52.145,130.107 51.704,129.338 51.57,128.387C51.435,127.437 51.617,126.611 52.116,125.91C52.63,125.207 53.363,124.788 54.314,124.654C55.074,124.546 55.772,124.625 56.407,124.89ZM64.83,115.481L67.623,135.204L65.389,135.52L62.596,115.797L64.83,115.481ZM70.645,122.535L72.344,134.535L70.11,134.852L68.411,122.851L70.645,122.535ZM69.249,120.551C68.837,120.61 68.46,120.517 68.119,120.275C67.791,120.014 67.598,119.678 67.54,119.266C67.481,118.854 67.575,118.486 67.819,118.16C68.08,117.832 68.416,117.639 68.828,117.581C69.224,117.525 69.586,117.627 69.914,117.888C70.255,118.13 70.454,118.45 70.51,118.846C70.568,119.257 70.476,119.634 70.234,119.975C69.989,120.301 69.661,120.493 69.249,120.551ZM72.062,114.457L74.296,114.14L76.143,127.186L76.19,127.18L78.217,121.463L80.712,121.11L78.4,126.867L82.815,133.053L80.225,133.42L76.234,127.488L76.187,127.495L77.088,133.864L74.855,134.18L72.062,114.457ZM89.867,126.382L84.925,127.082C85.279,129.585 85.924,130.77 86.858,130.638C87.793,130.506 88.155,129.695 87.944,128.206L90.011,127.913C90.184,129.133 90.054,130.153 89.621,130.974C89.124,131.917 88.289,132.472 87.117,132.638C85.628,132.848 84.5,132.297 83.732,130.984C83.219,130.103 82.84,128.791 82.593,127.049C82.001,122.866 82.901,120.606 85.293,120.267C87.717,119.924 89.225,121.844 89.817,126.026L89.867,126.382ZM84.699,125.49L87.361,125.113C87.074,123.085 86.479,122.135 85.576,122.263C84.974,122.349 84.632,122.793 84.552,123.596C84.52,123.94 84.569,124.571 84.699,125.49ZM100.53,118.643L100.83,120.758C100.294,120.397 99.709,120.262 99.076,120.352C98.664,120.41 98.324,120.579 98.057,120.86C97.787,121.124 97.68,121.454 97.737,121.85C97.826,122.371 98.233,122.847 98.957,123.277C100.155,123.98 100.818,124.379 100.944,124.475C101.695,125.095 102.138,125.889 102.275,126.855C102.425,127.917 102.239,128.824 101.715,129.577C101.189,130.314 100.396,130.758 99.334,130.908C98.669,131.002 97.992,130.904 97.305,130.613L96.995,128.427C97.701,128.844 98.354,129.01 98.956,128.925C99.954,128.784 100.382,128.206 100.238,127.192C100.166,126.685 99.727,126.15 98.92,125.585L97.014,124.449C96.268,123.86 95.828,123.09 95.693,122.14C95.558,121.189 95.74,120.363 96.239,119.663C96.754,118.96 97.486,118.541 98.437,118.406C99.197,118.299 99.895,118.377 100.53,118.643ZM108.103,129.666C105.584,130.023 104.034,128.15 103.453,124.047C102.865,119.896 103.831,117.642 106.35,117.286C108.869,116.929 110.422,118.826 111.01,122.977C111.59,127.08 110.622,129.31 108.103,129.666ZM107.813,127.623C108.542,127.519 108.927,126.875 108.97,125.689C108.981,125.316 108.901,124.52 108.728,123.3C108.549,122.032 108.402,121.221 108.287,120.866C107.917,119.738 107.368,119.226 106.639,119.329C105.926,119.43 105.549,120.074 105.506,121.259C105.492,121.73 105.568,122.551 105.734,123.724C105.893,124.848 106.045,125.635 106.189,126.083C106.559,127.21 107.1,127.724 107.813,127.623ZM114.337,116.349L114.546,117.822L114.593,117.815C114.943,116.635 115.649,115.969 116.71,115.819C117.899,115.651 118.698,116.103 119.108,117.176L119.156,117.169C119.506,115.989 120.251,115.317 121.392,115.156C123.15,114.907 124.166,115.749 124.44,117.682L125.755,126.973L123.522,127.289L122.331,118.877C122.162,117.689 121.674,117.152 120.866,117.266C120.169,117.365 119.775,117.72 119.684,118.331C119.643,118.611 119.683,119.179 119.804,120.035L120.884,127.663L118.65,127.979L117.496,119.828C117.404,119.179 117.284,118.727 117.135,118.474C116.898,118.055 116.494,117.886 115.924,117.966C115.306,118.054 114.944,118.412 114.84,119.041C114.787,119.355 114.818,119.917 114.933,120.724L116.013,128.352L113.779,128.669L112.08,116.668L114.337,116.349ZM134.402,120.077L129.459,120.776C129.814,123.279 130.458,124.465 131.393,124.333C132.328,124.2 132.69,123.389 132.479,121.9L134.546,121.608C134.719,122.827 134.589,123.848 134.155,124.669C133.659,125.612 132.824,126.166 131.652,126.332C130.163,126.543 129.034,125.992 128.267,124.678C127.754,123.797 127.374,122.486 127.128,120.743C126.535,116.561 127.435,114.3 129.828,113.962C132.251,113.618 133.759,115.538 134.352,119.72L134.402,120.077ZM129.234,119.184L131.895,118.808C131.608,116.78 131.013,115.83 130.11,115.958C129.508,116.043 129.167,116.487 129.087,117.29C129.055,117.634 129.104,118.266 129.234,119.184ZM140.563,125.07C138.044,125.427 136.494,123.554 135.913,119.451C135.325,115.3 136.291,113.046 138.81,112.69C141.329,112.333 142.882,114.23 143.47,118.381C144.051,122.484 143.082,124.714 140.563,125.07ZM140.274,123.027C141.002,122.923 141.388,122.279 141.43,121.093C141.442,120.72 141.361,119.923 141.189,118.704C141.009,117.436 140.862,116.625 140.747,116.27C140.377,115.142 139.828,114.63 139.099,114.733C138.386,114.834 138.009,115.478 137.967,116.663C137.953,117.134 138.028,117.955 138.194,119.128C138.354,120.252 138.505,121.039 138.65,121.487C139.019,122.614 139.561,123.128 140.274,123.027ZM146.774,111.756L146.969,113.134L147.016,113.128C147.407,112.006 148.141,111.369 149.218,111.216C150.28,111.066 151.045,111.394 151.515,112.2C151.813,112.707 152.049,113.578 152.224,114.814L153.392,123.06L151.158,123.376L149.984,115.083C149.804,113.816 149.271,113.245 148.384,113.37C147.75,113.46 147.384,113.843 147.286,114.519C147.247,114.816 147.29,115.4 147.413,116.271L148.473,123.756L146.239,124.073L144.54,112.072L146.774,111.756ZM161.943,116.177L157.001,116.877C157.355,119.38 158,120.565 158.934,120.433C159.869,120.301 160.231,119.49 160.02,118.001L162.087,117.708C162.26,118.928 162.13,119.948 161.697,120.769C161.2,121.712 160.365,122.266 159.193,122.432C157.704,122.643 156.576,122.092 155.808,120.779C155.295,119.898 154.916,118.586 154.669,116.843C154.077,112.661 154.977,110.401 157.369,110.062C159.793,109.719 161.301,111.638 161.893,115.821L161.943,116.177ZM156.775,115.285L159.437,114.908C159.15,112.88 158.554,111.93 157.651,112.058C157.049,112.143 156.708,112.587 156.628,113.391C156.596,113.735 156.645,114.366 156.775,115.285ZM172.606,108.438L172.906,110.553C172.37,110.192 171.785,110.057 171.152,110.147C170.74,110.205 170.4,110.374 170.133,110.654C169.863,110.919 169.756,111.249 169.812,111.645C169.902,112.166 170.309,112.641 171.033,113.072C172.231,113.775 172.893,114.174 173.02,114.269C173.771,114.89 174.214,115.684 174.351,116.65C174.501,117.712 174.315,118.619 173.791,119.372C173.265,120.109 172.471,120.552 171.41,120.703C170.745,120.797 170.068,120.699 169.381,120.408L169.071,118.222C169.777,118.639 170.43,118.805 171.032,118.72C172.03,118.579 172.458,118.001 172.314,116.987C172.242,116.48 171.803,115.945 170.996,115.38L169.09,114.244C168.344,113.655 167.903,112.885 167.769,111.934C167.634,110.984 167.816,110.158 168.315,109.457C168.83,108.754 169.562,108.336 170.513,108.201C171.273,108.093 171.971,108.172 172.606,108.438ZM173.938,107.91L176.29,107.577L178.791,115.997L178.839,115.991L178.833,112.186L179.07,107.183L180.663,106.958L183.235,115.368L183.283,115.361L183.268,110.806L183.467,106.561L185.653,106.251L184.524,118.652L183.003,118.867L180.92,112.884L180.305,110.256L180.258,110.263L180.344,114.638L180.104,119.278L178.56,119.496L173.938,107.91ZM189.288,105.736L190.988,117.737L188.754,118.053L187.055,106.053L189.288,105.736ZM187.893,103.752C187.481,103.811 187.104,103.719 186.763,103.476C186.435,103.216 186.242,102.879 186.184,102.467C186.125,102.055 186.218,101.687 186.463,101.361C186.724,101.033 187.06,100.84 187.472,100.782C187.868,100.726 188.23,100.828 188.558,101.089C188.899,101.331 189.098,101.651 189.154,102.047C189.212,102.459 189.12,102.835 188.878,103.177C188.633,103.502 188.304,103.694 187.893,103.752ZM191.778,101.918L194.011,101.601L194.493,105L195.681,104.831L195.93,106.59L194.742,106.758L196.192,117L193.958,117.316L192.508,107.074L191.296,107.246L191.047,105.487L192.259,105.316L191.778,101.918ZM202.103,104.14L202.423,106.398L202.375,106.404C202.068,106.06 201.693,105.919 201.249,105.982C199.934,106.168 199.465,107.592 199.842,110.253C200.239,113.058 201.079,114.369 202.362,114.187C202.711,114.138 203.07,113.933 203.439,113.574L203.732,115.641C203.238,116.034 202.658,116.278 201.993,116.372C199.633,116.707 198.165,114.846 197.591,110.79C196.997,106.592 197.888,104.325 200.264,103.988C200.898,103.899 201.511,103.949 202.103,104.14ZM202.619,95.971L204.853,95.655L206.141,104.756L206.189,104.749C206.58,103.627 207.314,102.99 208.391,102.838C209.452,102.687 210.218,103.015 210.687,103.822C210.985,104.329 211.222,105.2 211.397,106.436L212.564,114.682L210.331,114.998L209.156,106.705C208.977,105.437 208.444,104.866 207.557,104.992C206.923,105.082 206.557,105.465 206.459,106.141C206.42,106.438 206.462,107.021 206.586,107.893L207.645,115.378L205.412,115.694L202.619,95.971ZM221.116,107.799L216.173,108.499C216.528,111.002 217.172,112.187 218.107,112.055C219.042,111.922 219.403,111.112 219.193,109.622L221.26,109.33C221.433,110.55 221.302,111.57 220.869,112.391C220.373,113.334 219.538,113.888 218.366,114.054C216.877,114.265 215.748,113.714 214.98,112.4C214.468,111.52 214.088,110.208 213.842,108.465C213.249,104.283 214.149,102.022 216.541,101.684C218.965,101.341 220.473,103.26 221.065,107.442L221.116,107.799ZM215.948,106.907L218.609,106.53C218.322,104.502 217.727,103.552 216.824,103.68C216.222,103.765 215.881,104.209 215.801,105.012C215.769,105.356 215.818,105.988 215.948,106.907ZM228.533,112.421L228.314,110.876L228.267,110.883C227.924,112.111 227.269,112.794 226.303,112.93C224.417,113.197 223.175,111.216 222.576,106.986C222.007,102.962 222.688,100.813 224.621,100.54C225.54,100.41 226.324,100.816 226.975,101.758L227.022,101.751L225.741,92.697L227.974,92.381L230.767,112.104L228.533,112.421ZM226.947,110.803C227.881,110.671 228.15,109.203 227.753,106.398C227.358,103.61 226.694,102.282 225.759,102.415C225.046,102.516 224.676,103.158 224.65,104.341C224.636,104.812 224.712,105.633 224.878,106.806C225.046,107.994 225.202,108.812 225.347,109.26C225.7,110.39 226.234,110.904 226.947,110.803ZM-57.894,166.356L-55.661,166.04L-55.18,169.438L-53.991,169.27L-53.742,171.028L-54.931,171.196L-53.48,181.438L-55.714,181.754L-57.164,171.513L-58.376,171.684L-58.625,169.926L-57.413,169.754L-57.894,166.356ZM-53.683,161.348L-51.449,161.032L-50.16,170.133L-50.113,170.126C-49.722,169.005 -48.988,168.367 -47.911,168.215C-46.85,168.065 -46.084,168.392 -45.615,169.199C-45.317,169.706 -45.08,170.577 -44.905,171.813L-43.738,180.059L-45.971,180.375L-47.146,172.082C-47.325,170.814 -47.858,170.243 -48.745,170.369C-49.379,170.459 -49.745,170.842 -49.843,171.518C-49.882,171.815 -49.84,172.398 -49.716,173.27L-48.657,180.755L-50.89,181.071L-53.683,161.348ZM-35.186,173.176L-40.129,173.876C-39.774,176.379 -39.13,177.564 -38.195,177.432C-37.26,177.299 -36.899,176.489 -37.109,174.999L-35.042,174.707C-34.869,175.927 -34.999,176.947 -35.433,177.768C-35.929,178.711 -36.764,179.265 -37.936,179.431C-39.425,179.642 -40.554,179.091 -41.322,177.777C-41.834,176.897 -42.214,175.585 -42.46,173.842C-43.053,169.66 -42.153,167.399 -39.76,167.061C-37.337,166.718 -35.829,168.637 -35.236,172.819L-35.186,173.176ZM-40.354,172.284L-37.693,171.907C-37.98,169.879 -38.575,168.929 -39.478,169.057C-40.08,169.142 -40.421,169.586 -40.501,170.389C-40.533,170.733 -40.484,171.365 -40.354,172.284ZM-27.968,157.707L-25.175,177.43L-27.409,177.747L-30.201,158.023L-27.968,157.707ZM-19.207,176.779C-21.726,177.136 -23.276,175.263 -23.857,171.16C-24.445,167.009 -23.479,164.755 -20.96,164.399C-18.441,164.042 -16.888,165.939 -16.3,170.09C-15.719,174.193 -16.688,176.423 -19.207,176.779ZM-19.497,174.736C-18.768,174.633 -18.382,173.988 -18.34,172.803C-18.328,172.429 -18.409,171.633 -18.582,170.413C-18.761,169.145 -18.908,168.334 -19.023,167.979C-19.393,166.851 -19.942,166.339 -20.671,166.442C-21.384,166.543 -21.761,167.187 -21.804,168.372C-21.818,168.843 -21.742,169.664 -21.576,170.837C-21.417,171.961 -21.265,172.748 -21.121,173.196C-20.751,174.323 -20.21,174.837 -19.497,174.736ZM-10.162,163.282L-9.843,165.539L-9.89,165.546C-10.197,165.202 -10.573,165.061 -11.016,165.124C-12.331,165.31 -12.8,166.734 -12.423,169.395C-12.026,172.199 -11.186,173.511 -9.903,173.329C-9.555,173.28 -9.196,173.075 -8.826,172.716L-8.534,174.783C-9.027,175.176 -9.607,175.42 -10.272,175.514C-12.633,175.848 -14.1,173.988 -14.674,169.932C-15.269,165.734 -14.378,163.467 -12.002,163.13C-11.368,163.041 -10.755,163.091 -10.162,163.282ZM-1.887,174.133L-2.106,172.588L-2.153,172.595C-2.322,173.233 -2.532,173.691 -2.783,173.969C-3.087,174.335 -3.532,174.56 -4.118,174.643C-6.003,174.91 -7.245,172.928 -7.844,168.698C-8.414,164.675 -7.732,162.526 -5.799,162.252C-4.833,162.115 -4.048,162.521 -3.445,163.47L-3.398,163.463L-3.586,162.133L-1.353,161.816L0.347,173.817L-1.887,174.133ZM-3.474,172.516C-2.539,172.383 -2.27,170.915 -2.667,168.111C-3.062,165.323 -3.727,163.995 -4.661,164.127C-5.374,164.228 -5.744,164.87 -5.77,166.054C-5.784,166.524 -5.708,167.346 -5.542,168.518C-5.374,169.706 -5.218,170.524 -5.074,170.973C-4.72,172.102 -4.187,172.616 -3.474,172.516ZM0.947,158.025L3.18,157.708L3.661,161.107L4.85,160.938L5.099,162.697L3.91,162.865L5.361,173.107L3.127,173.423L1.677,163.181L0.465,163.353L0.216,161.594L1.428,161.423L0.947,158.025ZM8.462,160.427L10.161,172.427L7.927,172.744L6.228,160.743L8.462,160.427ZM7.066,158.443C6.654,158.501 6.277,158.409 5.936,158.167C5.608,157.906 5.415,157.57 5.357,157.158C5.298,156.746 5.391,156.377 5.636,156.052C5.897,155.724 6.233,155.531 6.645,155.473C7.041,155.417 7.403,155.519 7.731,155.779C8.072,156.022 8.271,156.341 8.327,156.737C8.385,157.149 8.293,157.526 8.051,157.867C7.806,158.193 7.477,158.385 7.066,158.443ZM16.128,171.776C13.609,172.133 12.06,170.26 11.479,166.157C10.891,162.006 11.856,159.752 14.375,159.396C16.894,159.039 18.448,160.936 19.035,165.087C19.616,169.19 18.647,171.42 16.128,171.776ZM15.839,169.733C16.568,169.629 16.953,168.985 16.995,167.799C17.007,167.426 16.927,166.629 16.754,165.41C16.574,164.142 16.427,163.331 16.312,162.975C15.943,161.848 15.393,161.336 14.665,161.439C13.952,161.54 13.574,162.184 13.532,163.369C13.518,163.84 13.594,164.661 13.76,165.834C13.919,166.958 14.071,167.745 14.215,168.193C14.585,169.32 15.126,169.834 15.839,169.733ZM22.363,158.459L22.558,159.837L22.606,159.83C22.996,158.708 23.73,158.071 24.807,157.919C25.869,157.768 26.634,158.096 27.104,158.902C27.402,159.41 27.638,160.281 27.813,161.517L28.981,169.762L26.747,170.079L25.573,161.785C25.394,160.518 24.86,159.947 23.973,160.073C23.339,160.163 22.973,160.546 22.875,161.222C22.837,161.518 22.879,162.102 23.002,162.974L24.062,170.459L21.828,170.775L20.129,158.775L22.363,158.459ZM39.626,168.449C37.107,168.806 35.557,166.933 34.976,162.829C34.389,158.679 35.354,156.425 37.873,156.069C40.392,155.712 41.945,157.609 42.533,161.76C43.114,165.863 42.145,168.092 39.626,168.449ZM39.337,166.406C40.066,166.302 40.451,165.658 40.493,164.472C40.505,164.099 40.425,163.302 40.252,162.083C40.072,160.815 39.925,160.004 39.81,159.648C39.441,158.521 38.891,158.009 38.163,158.112C37.45,158.213 37.072,158.856 37.03,160.042C37.016,160.513 37.092,161.334 37.258,162.506C37.417,163.631 37.569,164.418 37.713,164.866C38.083,165.993 38.624,166.506 39.337,166.406ZM43.08,155.525L44.197,155.367L43.649,151.494C43.467,150.211 43.471,149.265 43.659,148.656C43.936,147.761 44.645,147.232 45.786,147.07C46.261,147.003 46.776,147.043 47.33,147.191L47.66,149.52C47.284,149.379 46.962,149.328 46.693,149.366C46.202,149.436 45.916,149.702 45.836,150.166C45.802,150.381 45.83,150.805 45.92,151.439L46.431,155.051L48.285,154.788L48.534,156.547L46.68,156.809L48.13,167.051L45.896,167.367L44.446,157.126L43.329,157.284L43.08,155.525ZM53.157,154.099L55.509,153.765L58.011,162.186L58.058,162.179L58.053,158.374L58.29,153.372L59.882,153.146L62.454,161.557L62.502,161.55L62.487,156.995L62.686,152.749L64.872,152.44L63.743,164.84L62.222,165.056L60.139,159.073L59.525,156.445L59.477,156.452L59.563,160.827L59.323,165.466L57.779,165.685L53.157,154.099ZM65.192,144.517L67.426,144.2L68.715,153.302L68.762,153.295C69.153,152.173 69.887,151.536 70.964,151.383C72.025,151.233 72.791,151.561 73.261,152.367C73.559,152.874 73.795,153.746 73.97,154.981L75.138,163.227L72.904,163.543L71.73,155.25C71.55,153.983 71.017,153.412 70.13,153.538C69.496,153.627 69.13,154.01 69.032,154.687C68.993,154.983 69.036,155.567 69.159,156.438L70.219,163.924L67.985,164.24L65.192,144.517ZM82.374,162.203L82.155,160.658L82.107,160.665C81.939,161.303 81.729,161.761 81.478,162.039C81.174,162.405 80.729,162.629 80.143,162.712C78.258,162.979 77.016,160.998 76.417,156.768C75.847,152.744 76.529,150.595 78.461,150.322C79.428,150.185 80.212,150.591 80.815,151.54L80.863,151.533L80.674,150.202L82.908,149.886L84.607,161.886L82.374,162.203ZM80.787,160.585C81.722,160.453 81.991,158.985 81.594,156.18C81.199,153.392 80.534,152.064 79.599,152.197C78.886,152.298 78.517,152.94 78.49,154.123C78.476,154.594 78.552,155.415 78.718,156.588C78.886,157.776 79.043,158.594 79.187,159.042C79.541,160.172 80.074,160.686 80.787,160.585ZM85.302,146.081L87.536,145.765L88.017,149.163L89.205,148.994L89.454,150.753L88.266,150.921L89.716,161.163L87.483,161.479L86.032,151.237L84.82,151.409L84.572,149.651L85.783,149.479L85.302,146.081ZM94.602,148.23L97.097,147.877L100.039,155.993L100.087,155.986L100.922,147.335L103.18,147.016L100.68,164.628L98.328,164.961L99.347,158.806L94.602,148.23ZM109.286,158.586C106.767,158.943 105.217,157.069 104.636,152.966C104.048,148.816 105.014,146.562 107.533,146.206C110.051,145.849 111.605,147.746 112.192,151.896C112.773,156 111.804,158.229 109.286,158.586ZM108.996,156.542C109.725,156.439 110.11,155.795 110.153,154.609C110.164,154.236 110.084,153.439 109.911,152.219C109.732,150.952 109.585,150.141 109.47,149.785C109.1,148.658 108.551,148.146 107.822,148.249C107.109,148.35 106.731,148.993 106.689,150.179C106.675,150.65 106.751,151.471 106.917,152.643C107.076,153.768 107.228,154.555 107.372,155.003C107.742,156.13 108.283,156.643 108.996,156.542ZM112.771,145.658L115.004,145.342L116.068,152.851C116.191,153.722 116.311,154.287 116.429,154.545C116.69,155.138 117.154,155.387 117.819,155.293C118.469,155.201 118.84,154.858 118.934,154.263C118.966,154.032 118.919,153.473 118.793,152.586L117.713,144.958L119.947,144.642L121.094,152.745C121.283,154.076 121.185,155.099 120.802,155.816C120.353,156.639 119.487,157.142 118.204,157.323C116.699,157.536 115.618,157.261 114.96,156.498C114.438,155.893 114.068,154.822 113.851,153.286L112.771,145.658ZM122.702,144.468L123.873,137.878L125.887,138.326L124.155,144.791L122.702,144.468ZM128.121,143.27L128.33,144.744L128.377,144.737C128.775,143.549 129.544,142.875 130.684,142.713L130.997,144.923L130.614,144.953C129.143,145.065 128.529,145.984 128.774,147.711L129.844,155.267L127.586,155.587L125.887,143.587L128.121,143.27ZM139.781,148.188L134.838,148.888C135.193,151.391 135.837,152.576 136.772,152.444C137.706,152.312 138.068,151.501 137.858,150.012L139.925,149.719C140.098,150.939 139.967,151.959 139.534,152.78C139.037,153.723 138.203,154.278 137.031,154.444C135.541,154.654 134.413,154.103 133.645,152.79C133.133,151.909 132.753,150.597 132.506,148.855C131.914,144.672 132.814,142.412 135.206,142.073C137.63,141.73 139.138,143.65 139.73,147.832L139.781,148.188ZM134.613,147.296L137.274,146.919C136.987,144.891 136.392,143.941 135.489,144.069C134.887,144.154 134.546,144.599 134.466,145.402C134.434,145.746 134.483,146.377 134.613,147.296ZM148.043,132.786L150.836,152.509L148.602,152.825L145.809,133.102L148.043,132.786ZM156.803,151.858C154.284,152.215 152.735,150.341 152.154,146.238C151.566,142.088 152.532,139.834 155.05,139.478C157.569,139.121 159.123,141.018 159.71,145.168C160.291,149.272 159.322,151.501 156.803,151.858ZM156.514,149.814C157.243,149.711 157.628,149.067 157.67,147.881C157.682,147.508 157.602,146.711 157.429,145.491C157.25,144.224 157.102,143.413 156.987,143.057C156.618,141.93 156.068,141.418 155.34,141.521C154.627,141.622 154.249,142.265 154.207,143.451C154.193,143.922 154.269,144.743 154.435,145.915C154.594,147.04 154.746,147.827 154.89,148.275C155.26,149.402 155.801,149.915 156.514,149.814ZM165.905,150.569C163.386,150.926 161.836,149.053 161.255,144.95C160.667,140.799 161.633,138.546 164.152,138.189C166.671,137.832 168.224,139.729 168.811,143.88C169.392,147.983 168.423,150.213 165.905,150.569ZM165.615,148.526C166.344,148.423 166.729,147.778 166.772,146.593C166.783,146.219 166.703,145.423 166.53,144.203C166.351,142.935 166.204,142.124 166.089,141.769C165.719,140.641 165.17,140.129 164.441,140.232C163.728,140.333 163.351,140.977 163.308,142.162C163.294,142.633 163.37,143.454 163.536,144.627C163.695,145.752 163.847,146.538 163.991,146.986C164.361,148.114 164.902,148.627 165.615,148.526ZM168.812,129.845L171.046,129.529L172.893,142.575L172.94,142.568L174.967,136.851L177.462,136.498L175.15,142.255L179.565,148.441L176.975,148.808L172.984,142.877L172.937,142.884L173.838,149.252L171.605,149.568L168.812,129.845ZM181.407,135.94L183.106,147.94L180.872,148.256L179.173,136.256L181.407,135.94ZM180.011,133.956C179.599,134.014 179.222,133.922 178.881,133.679C178.553,133.419 178.36,133.083 178.302,132.671C178.243,132.259 178.337,131.89 178.581,131.564C178.842,131.237 179.178,131.044 179.59,130.985C179.986,130.929 180.348,131.032 180.676,131.292C181.017,131.535 181.216,131.854 181.272,132.25C181.33,132.662 181.238,133.039 180.996,133.38C180.751,133.705 180.423,133.897 180.011,133.956ZM186.136,135.27L186.331,136.648L186.378,136.642C186.769,135.52 187.503,134.883 188.58,134.73C189.641,134.58 190.407,134.908 190.877,135.714C191.175,136.221 191.411,137.092 191.586,138.328L192.754,146.574L190.52,146.89L189.346,138.597C189.166,137.33 188.633,136.759 187.746,136.884C187.112,136.974 186.746,137.357 186.648,138.034C186.609,138.33 186.651,138.914 186.775,139.785L187.835,147.27L185.601,147.587L183.902,135.586L186.136,135.27ZM200.56,133.228L202.272,145.323C202.515,147.034 202.495,148.265 202.213,149.016C201.807,150.027 200.844,150.64 199.323,150.855C198.214,151.012 197.3,150.835 196.581,150.322C195.878,149.808 195.448,148.996 195.291,147.887L195.244,147.555L197.406,147.248C197.446,147.76 197.61,148.173 197.897,148.488C198.2,148.8 198.597,148.922 199.088,148.852C199.737,148.76 200.109,148.417 200.202,147.822C200.245,147.557 200.205,146.989 200.082,146.118L199.799,144.122L199.752,144.129C199.558,145.271 198.922,145.911 197.842,146.047C196.604,146.206 195.656,145.557 194.997,144.099C194.6,143.234 194.286,141.986 194.055,140.354C193.81,138.627 193.739,137.328 193.842,136.457C194.041,134.781 194.774,133.853 196.042,133.674C196.96,133.543 197.765,133.979 198.457,134.98L198.497,134.926L198.302,133.547L200.56,133.228ZM199.184,139.604C198.782,136.768 198.098,135.418 197.132,135.555C196.483,135.647 196.137,136.286 196.095,137.472C196.08,137.942 196.154,138.748 196.316,139.889C196.473,140.997 196.637,141.815 196.808,142.34C197.182,143.499 197.71,144.03 198.391,143.934C199.088,143.835 199.443,143.203 199.456,142.038C199.461,141.73 199.37,140.918 199.184,139.604ZM207.622,132.228L208.739,132.07L208.191,128.196C208.009,126.913 208.012,125.967 208.201,125.359C208.478,124.463 209.187,123.934 210.328,123.773C210.803,123.706 211.318,123.746 211.872,123.894L212.202,126.222C211.826,126.082 211.504,126.03 211.234,126.069C210.743,126.138 210.458,126.405 210.378,126.868C210.344,127.083 210.372,127.508 210.461,128.141L210.973,131.753L212.826,131.491L213.075,133.249L211.222,133.512L212.672,143.754L210.438,144.07L208.988,133.828L207.871,133.986L207.622,132.228ZM219.167,143.028C216.648,143.385 215.098,141.511 214.517,137.408C213.93,133.258 214.895,131.004 217.414,130.647C219.933,130.291 221.486,132.188 222.074,136.338C222.655,140.441 221.686,142.671 219.167,143.028ZM218.878,140.984C219.607,140.881 219.992,140.237 220.034,139.051C220.046,138.678 219.965,137.881 219.793,136.661C219.613,135.394 219.466,134.583 219.351,134.227C218.981,133.1 218.432,132.588 217.704,132.691C216.991,132.792 216.613,133.435 216.571,134.621C216.557,135.092 216.633,135.913 216.799,137.085C216.958,138.21 217.11,138.997 217.254,139.445C217.624,140.572 218.165,141.085 218.878,140.984ZM225.402,129.71L225.61,131.184L225.658,131.177C226.055,129.99 226.824,129.315 227.965,129.154L228.278,131.363L227.894,131.394C226.423,131.505 225.81,132.424 226.055,134.151L227.125,141.707L224.867,142.027L223.168,130.027L225.402,129.71ZM231.883,141.228C231.487,141.284 231.126,141.189 230.8,140.944C230.491,140.697 230.308,140.376 230.252,139.98C230.196,139.584 230.283,139.232 230.514,138.925C230.761,138.615 231.083,138.432 231.479,138.376C231.875,138.32 232.227,138.407 232.534,138.639C232.857,138.868 233.047,139.18 233.103,139.576C233.159,139.972 233.065,140.333 232.82,140.659C232.591,140.982 232.279,141.171 231.883,141.228ZM236.802,140.531C236.406,140.587 236.045,140.493 235.719,140.248C235.41,140.001 235.227,139.679 235.171,139.283C235.115,138.887 235.202,138.536 235.433,138.228C235.68,137.918 236.002,137.736 236.398,137.68C236.794,137.623 237.146,137.711 237.453,137.942C237.776,138.171 237.966,138.484 238.022,138.88C238.078,139.276 237.984,139.636 237.739,139.962C237.51,140.285 237.198,140.475 236.802,140.531ZM241.721,139.835C241.325,139.891 240.964,139.796 240.638,139.552C240.329,139.305 240.146,138.983 240.09,138.587C240.033,138.191 240.121,137.839 240.352,137.532C240.599,137.222 240.921,137.039 241.317,136.983C241.713,136.927 242.065,137.015 242.372,137.246C242.695,137.475 242.885,137.787 242.941,138.183C242.997,138.579 242.903,138.94 242.658,139.266C242.429,139.589 242.117,139.779 241.721,139.835Z" style="fill:white;"/>
    </g>
</svg>
