<?xml version="1.0" encoding="UTF-8" standalone="no"?>
<!DOCTYPE svg PUBLIC "-//W3C//DTD SVG 1.1//EN" "http://www.w3.org/Graphics/SVG/1.1/DTD/svg11.dtd">
<svg width="266px" height="487px" version="1.1" xmlns="http://www.w3.org/2000/svg" xmlns:xlink="http://www.w3.org/1999/xlink" xml:space="preserve" xmlns:serif="http://www.serif.com/" style="fill-rule:evenodd;clip-rule:evenodd;stroke-linejoin:round;stroke-miterlimit:2;">
    <g id="Artboard1" transform="matrix(1.6774,0,0,1,0,0)">
        <rect x="0" y="0" width="158.4" height="486.4" style="fill:none;"/>
        <clipPath id="_clip1">
            <rect x="0" y="0" width="158.4" height="486.4"/>
        </clipPath>
        <g clip-path="url(#_clip1)">
            <g transform="matrix(0.596161,0,0,1,31.984,0)">
                <g>
                    <g>
                        <rect x="-241" y="-25.7" width="493.8" height="694" style="fill:rgb(102,74,158);"/>
                        <path d="M239.5,-12.4L239.5,655.1L-227.8,655.1L-227.8,-12.4L239.5,-12.4M266,-38.9L-254.3,-38.9L-254.3,681.6L266,681.6L266,-38.9Z" style="fill:rgb(102,74,158);fill-rule:nonzero;"/>
                    </g>
                    <g transform="matrix(0.5862,-0.8101,0.8101,0.5862,-418.56,113.528)">
                        <rect x="-119.8" y="416.9" width="43.4" height="99.3" style="fill:rgb(59,34,95);"/>
                    </g>
                    <g transform="matrix(0.5862,-0.8101,0.8101,0.5862,-375.999,120.144)">
                        <rect x="-92.1" y="378.5" width="43.4" height="99.3" style="fill:rgb(59,34,95);"/>
                    </g>
                    <g transform="matrix(0.5862,-0.8101,0.8101,0.5862,-333.439,126.761)">
                        <rect x="-64.3" y="340.2" width="43.4" height="99.3" style="fill:rgb(59,34,95);"/>
                    </g>
                    <g transform="matrix(0.5862,-0.8101,0.8101,0.5862,-290.878,133.377)">
                        <rect x="-36.6" y="301.8" width="43.4" height="99.3" style="fill:rgb(59,34,95);"/>
                    </g>
                    <g transform="matrix(0.5862,-0.8101,0.8101,0.5862,-248.318,139.994)">
                        <rect x="-8.8" y="263.5" width="43.4" height="99.3" style="fill:rgb(59,34,95);"/>
                    </g>
                    <g transform="matrix(0.5862,-0.8101,0.8101,0.5862,-205.757,146.61)">
                        <rect x="19" y="225.1" width="43.4" height="99.3" style="fill:rgb(59,34,95);"/>
                    </g>
                    <g transform="matrix(0.5862,-0.8101,0.8101,0.5862,-163.197,153.226)">
                        <rect x="46.7" y="186.7" width="43.4" height="99.3" style="fill:rgb(59,34,95);"/>
                    </g>
                    <g transform="matrix(0.5862,-0.8101,0.8101,0.5862,-120.636,159.843)">
                        <rect x="74.5" y="148.4" width="43.4" height="99.3" style="fill:rgb(59,34,95);"/>
                    </g>
                    <g transform="matrix(0.5862,-0.8101,0.8101,0.5862,-78.0757,166.459)">
                        <rect x="102.2" y="110" width="43.4" height="99.3" style="fill:rgb(59,34,95);"/>
                    </g>
                    <g transform="matrix(0.5862,-0.8101,0.8101,0.5862,-35.5152,173.076)">
                        <rect x="130" y="71.7" width="43.4" height="99.3" style="fill:rgb(59,34,95);"/>
                    </g>
                    <g>
                        <path d="M-98.8,413.6L-94.1,407L-45.5,442.2L-50.2,448.8L-98.8,413.6Z" style="fill:rgb(102,74,158);fill-rule:nonzero;"/>
                    </g>
                    <g>
                        <path d="M-76.4,382.7L-61,361.4L-55.3,365.5L-60.6,372.8L-17.7,403.8L-22.4,410.2L-65.3,379.2L-70.8,386.8L-76.4,382.7Z" style="fill:rgb(102,74,158);fill-rule:nonzero;"/>
                    </g>
                    <g>
                        <path d="M-32.6,323.8L-26.7,328.1C-28.7,329.2 -30.2,330.3 -31,331.4C-32.1,333 -32.7,334.6 -32.7,336.2C-32.7,337.9 -32.2,339.6 -31.2,341.5C-30.1,343.4 -28.5,345.4 -26.3,347.5C-24.1,349.6 -21.3,351.9 -18,354.3C-6,363 2.2,364.3 6.7,358.1C7.5,357 8.1,355.5 8.5,353.5L14.5,357.9C14.2,360.1 13.4,362.2 12,364.1C4.9,374 -6.7,373.1 -22.8,361.4C-31.5,355.1 -37.1,349.2 -39.6,343.8C-42.1,338.3 -41.6,333.1 -38,328.2C-36.7,326.3 -34.9,324.9 -32.6,323.8Z" style="fill:rgb(102,74,158);fill-rule:nonzero;"/>
                    </g>
                    <g>
                        <path d="M-21.5,306.8L-16.8,300.2L2.2,314L9.2,304.4L-9.8,290.6L-5.1,284L43.5,319.2L38.8,325.8L14.7,308.4L7.7,318L31.8,335.4L27.1,341.9L-21.5,306.8Z" style="fill:rgb(102,74,158);fill-rule:nonzero;"/>
                    </g>
                    <g>
                        <path d="M7.5,266.8L13.9,257.9C18.9,250.9 25.8,250.6 34.4,256.8C37.7,259.2 39.8,261.4 40.8,263.5C41.7,265.6 41.8,268 41,270.9C44,269 46.6,268.2 48.9,268.4C51.2,268.6 54,269.9 57.3,272.2C66.2,278.7 67.9,285.7 62.4,293.4L56.2,302L7.5,266.8ZM33.4,276.1C35.2,273.6 35.9,271.4 35.5,269.5C35,267.6 33.2,265.5 30.1,263.3C24.9,259.5 20.9,259.5 18.1,263.3L17.7,263.8L17.5,264.1C17.4,264.3 17.3,264.4 17.3,264.4L33.4,276.1ZM55,291.7C56.9,289 57.7,286.7 57.3,284.9C56.9,283 55.2,281 52.1,278.8C49,276.6 46.4,275.5 44.4,275.7C42.4,275.8 40.4,277.2 38.5,279.8L55,291.7Z" style="fill:rgb(102,74,158);fill-rule:nonzero;"/>
                    </g>
                    <g>
                        <path d="M76.7,224.7C85.3,230.9 90.7,236.3 92.9,240.8C95.1,245.3 94.6,249.8 91.4,254.3C88,259 83.6,261 78.3,260.1C73.1,259.3 65.7,255.3 56,248.3C47.3,242 41.9,236.7 39.7,232.2C37.5,227.7 38,223.1 41.3,218.6C44.2,214.5 47.8,212.5 52.1,212.6C54.9,212.7 58.3,213.6 62.1,215.5C65.7,217.2 70.6,220.3 76.7,224.7ZM72.5,232.1C64.1,226 58.2,222.3 54.9,221.1C51.6,219.9 49.1,220.4 47.4,222.7C45.7,225 45.9,227.5 47.8,230.1C49.8,232.7 54.7,236.8 62.4,242.4C69.5,247.6 74.7,250.7 78.1,251.9C81.3,253 83.7,252.4 85.3,250.1C86.9,247.9 86.8,245.5 84.9,242.9C83.1,240.5 79,236.8 72.5,232.1Z" style="fill:rgb(102,74,158);fill-rule:nonzero;"/>
                    </g>
                    <g>
                        <path d="M68,183.2L71.7,178.1L127.9,202.9L123.2,209.4L112.4,204.4L105.4,214L113.5,222.7L108.9,229L68,183.2ZM106.6,201.6L97.8,197.4C91.8,194.6 85.6,191.3 79.2,187.5C81.9,189.9 84.6,192.4 87.2,195.1C89.9,197.7 92.6,200.6 95.5,203.6L100.9,209.3L106.6,201.6Z" style="fill:rgb(102,74,158);fill-rule:nonzero;"/>
                    </g>
                    <g>
                        <path d="M90.3,152.3L96.5,143.7C99.1,140.1 101.9,138.1 104.8,137.6C108.6,137 112.8,138.3 117.3,141.6C120.8,144.1 123.2,146.7 124.4,149.4C125.7,152.1 125.8,154.7 124.7,157.2L154.8,165.4L150,172L119.7,163.7L143.5,180.9L138.8,187.4L90.3,152.3ZM116.6,161.3C118.4,158.8 119.2,156.5 118.7,154.6C118.3,152.7 116.7,150.7 113.9,148.7C112.4,147.6 111,146.8 109.8,146.2C108.6,145.6 107.4,145.4 106.4,145.3C105.4,145.3 104.4,145.5 103.6,146.1C102.7,146.6 101.9,147.4 101.2,148.4L100.4,149.5L116.6,161.3Z" style="fill:rgb(102,74,158);fill-rule:nonzero;"/>
                    </g>
                    <g>
                        <path d="M117,115.4L122.8,107.3C124.6,104.8 126.3,103 128.1,101.7C129.8,100.5 131.7,99.8 133.9,99.6C137.2,99.2 140.8,99.8 144.6,101.4C148.3,102.9 153.1,105.7 158.9,110C164.3,113.9 168.3,117.5 171.1,120.8C173.7,124 175.2,127.2 175.5,130.3C175.9,134.2 173.9,139.2 169.5,145.4L165.7,150.7L117,115.4ZM164.6,139.9C167.5,135.9 168.2,132.4 166.8,129.3C165.4,126.2 161.2,122.1 154.2,117C146.7,111.6 141.1,108.5 137.3,107.8C133.5,107.1 130.4,108.5 127.8,112L127.2,112.8L164.6,139.9Z" style="fill:rgb(102,74,158);fill-rule:nonzero;"/>
                    </g>
                    <g>
                        <g>
                            <path d="M125.4,72.4L128,68.8L129,69.5L128.1,70.7L135.3,75.9L134.5,77L127.3,71.8L126.4,73.1L125.4,72.4Z" style="fill:rgb(59,34,95);fill-rule:nonzero;"/>
                        </g>
                        <g>
                            <path d="M128.7,67.9L129.4,67L133.2,68.7C133.7,68.9 134.1,69.1 134.6,69.4C135.1,69.6 135.5,69.9 136,70.1L136,69.9C136,69.9 135.9,69.9 135.9,69.8L133.8,67.7L131,64.7L131.7,63.8L140.3,68.9L139.5,69.9L136.6,68.1C136.5,68 136.3,67.9 136.2,67.9C136.1,67.8 136,67.8 135.9,67.7L135,67L134,66.3C134,66.3 133.9,66.3 133.9,66.2L134,66.3C134.2,66.5 134.3,66.6 134.5,66.7C134.6,66.8 134.7,66.9 134.8,67L135.4,67.7L135.6,68L138.6,71.2L138.1,71.9L134.6,70.3C134.1,70.1 133.7,69.9 133.2,69.6C132.7,69.4 132.3,69.1 131.8,68.8L137.2,73.2L136.5,74.2L128.7,67.9Z" style="fill:rgb(59,34,95);fill-rule:nonzero;"/>
                        </g>
                    </g>
                </g>
            </g>
            <rect x="0" y="0" width="158.4" height="486.4" style="fill:url(#_Linear2);"/>
        </g>
    </g>
    <defs>
        <linearGradient id="_Linear2" x1="0" y1="0" x2="1" y2="0" gradientUnits="userSpaceOnUse" gradientTransform="matrix(4.47222e-14,-730.369,730.369,4.47222e-14,79.2242,572.696)"><stop offset="0" style="stop-color:white;stop-opacity:0"/><stop offset="0.08" style="stop-color:rgb(173,167,191);stop-opacity:0.06"/><stop offset="0.17" style="stop-color:rgb(122,112,145);stop-opacity:0.12"/><stop offset="0.26" style="stop-color:rgb(86,74,111);stop-opacity:0.19"/><stop offset="0.36" style="stop-color:rgb(62,46,87);stop-opacity:0.26"/><stop offset="0.45" style="stop-color:rgb(44,24,69);stop-opacity:0.33"/><stop offset="0.56" style="stop-color:rgb(31,2,56);stop-opacity:0.41"/><stop offset="0.67" style="stop-color:rgb(24,0,48);stop-opacity:0.49"/><stop offset="0.81" style="stop-color:rgb(21,0,45);stop-opacity:0.6"/><stop offset="1" style="stop-color:rgb(21,0,45);stop-opacity:0.6"/></linearGradient>
    </defs>
</svg>
