<?xml version="1.0" encoding="UTF-8" standalone="no"?>
<!DOCTYPE svg PUBLIC "-//W3C//DTD SVG 1.1//EN" "http://www.w3.org/Graphics/SVG/1.1/DTD/svg11.dtd">
<svg width="100%" height="100%" viewBox="0 0 2059 3915" version="1.1" xmlns="http://www.w3.org/2000/svg" xmlns:xlink="http://www.w3.org/1999/xlink" xml:space="preserve" xmlns:serif="http://www.serif.com/" style="fill-rule:evenodd;clip-rule:evenodd;stroke-linejoin:round;stroke-miterlimit:2;">
    <g transform="matrix(1,0,0,0.981022,1.13687e-13,-12584.7)">
        <rect x="-0" y="12828.1" width="2058.72" height="3990.15" style="fill:none;"/>
        <clipPath id="_clip1">
            <rect x="-0" y="12828.1" width="2058.72" height="3990.15"/>
        </clipPath>
        <g clip-path="url(#_clip1)">
            <g transform="matrix(5.40249,-5.71753,5.60902,5.507,-792.089,15443.9)">
                <path d="M96.285,278.584L24.253,288.759L0.972,123.927L73.003,113.759L96.285,278.584ZM42.091,146.952C35.203,147.927 30.041,151.002 26.603,156.19C23.203,161.321 22.053,167.784 23.153,175.565C23.972,181.334 25.672,185.965 28.278,189.465C29.622,191.246 31.597,193.271 34.197,195.534C36.803,197.802 40.041,200.377 43.916,203.252C46.422,205.134 48.535,206.871 50.247,208.446C51.96,210.027 53.328,211.44 54.341,212.709C56.335,215.365 57.591,218.502 58.11,222.115C58.691,226.296 58.128,229.74 56.403,232.465C54.685,235.184 51.991,236.802 48.335,237.321C44.416,237.877 39.828,236.752 34.56,233.94L36.435,247.234C40.922,249.809 46.035,250.69 51.753,249.884C58.553,248.921 63.785,245.696 67.447,240.221C71.085,234.621 72.36,227.965 71.272,220.259C70.466,214.577 68.803,209.915 66.272,206.284C63.716,202.515 59.322,198.246 53.066,193.459C49.678,190.915 46.903,188.721 44.735,186.877C42.56,185.027 40.972,183.496 39.966,182.277C38.022,180.009 36.803,177.127 36.31,173.646C35.753,169.69 36.428,166.359 38.328,163.684C40.216,160.871 42.922,159.209 46.447,158.715C49.722,158.252 53.61,159.196 58.11,161.54L56.26,148.44C51.591,146.777 46.872,146.277 42.091,146.952ZM253.495,256.381L181.464,266.556L158.183,101.731L230.214,91.556L253.495,256.381ZM203.895,227.144L217.32,225.25L203.245,125.581L189.814,127.475L203.895,227.144ZM332.099,245.277L260.068,255.452L236.787,90.627L308.818,80.452L332.099,245.277ZM254.762,130.284L270.249,128.096L282.668,216.021L295.83,214.159L283.418,126.24L298.455,124.115L296.799,112.365L253.099,118.534L254.762,130.284ZM410.705,234.177L338.673,244.352L315.392,79.527L387.423,69.352L410.705,234.177ZM363.661,101.539C353.505,102.971 346.58,108.383 342.88,117.777C339.173,127.158 338.586,140.764 341.105,158.577C345.761,191.546 358.173,206.608 378.361,203.752C382.361,203.189 385.855,201.771 388.817,199.508L387.08,187.177C384.173,188.996 381.623,190.058 379.43,190.371C366.823,192.152 358.786,180.733 355.305,156.114C354.342,149.271 353.855,143.289 353.855,138.183C353.861,133.064 354.373,128.771 355.392,125.289C356.417,121.814 357.955,119.121 360.017,117.233C362.073,115.333 364.698,114.164 367.88,113.714C370.205,113.383 373.205,113.814 376.886,115.008L375.186,102.939C371.248,101.477 367.405,101.014 363.661,101.539ZM489.309,223.076L417.278,233.251L394.003,68.426L466.028,58.251L489.309,223.076ZM422.584,196.257L436.009,194.363L429.047,145.044L448.74,142.263L455.703,191.582L469.128,189.682L455.047,90.013L441.622,91.913L447.134,130.901L427.44,133.682L421.934,94.694L408.509,96.588L422.584,196.257ZM567.912,211.98L495.887,222.149L472.605,57.324L544.637,47.149L567.912,211.98ZM504.749,184.655L522.312,182.174C537.974,179.961 544.512,169.705 541.924,151.417C540.987,144.749 539.274,139.899 536.774,136.874C534.33,133.792 530.255,131.555 524.574,130.167C529.03,127.83 531.949,124.892 533.337,121.355C534.724,117.824 534.943,112.686 533.987,105.924C531.487,88.242 523.118,80.399 508.874,82.411L490.668,84.986L504.749,184.655ZM511.03,137.742C516.405,136.986 520.355,137.742 522.874,140.024C525.424,142.249 527.149,146.549 528.049,152.917C528.924,159.111 528.474,163.549 526.699,166.211C524.924,168.874 521.287,170.599 515.78,171.374L511.03,137.742ZM504.855,94.042C504.93,93.992 505.149,93.936 505.493,93.886L506.074,93.805L507.105,93.655C514.849,92.561 519.487,97.392 521.005,108.155C521.899,114.524 521.524,119.117 519.855,121.942C518.174,124.636 514.73,126.355 509.524,127.086L504.855,94.042ZM646.518,200.878L574.487,211.047L551.212,46.222L623.243,36.047L646.518,200.878ZM616.124,91.366C613.924,84.478 611.218,79.309 608.012,75.853C603.155,70.697 596.562,68.716 588.212,69.897C578.868,71.216 572.762,75.847 569.893,83.803C567.062,91.716 566.893,104.522 569.399,122.253C572.205,142.141 576.118,155.697 581.137,162.934C586.212,170.334 593.599,173.359 603.287,171.991C612.493,170.691 618.53,166.066 621.405,158.109C624.274,150.153 624.468,137.366 621.98,119.772C620.212,107.203 618.255,97.734 616.124,91.366ZM609.468,150.972C608.499,156.197 605.743,159.128 601.23,159.766C596.624,160.416 593.105,158.197 590.674,153.097C588.243,147.691 585.993,137.691 583.937,123.103C581.699,107.272 580.987,96.616 581.793,91.141C582.649,85.716 585.462,82.659 590.243,81.984C595.018,81.309 598.587,83.703 600.937,89.166C603.287,94.584 605.674,105.922 608.105,123.172C609.993,136.522 610.443,145.784 609.468,150.972ZM725.12,189.777L653.095,199.946L629.814,35.121L701.845,24.946L725.12,189.777ZM654.352,163.527L667.264,161.702L668.333,141.734L688.083,138.94L694.57,157.846L707.864,155.965L672.427,59.315L661.964,60.79L654.352,163.527ZM668.733,131.071L669.383,117.946C669.689,110.877 669.902,104.215 669.977,97.946C670.058,91.684 669.977,85.515 669.733,79.446C672.714,91.534 675.958,102.834 679.464,113.365L684.677,128.821L668.733,131.071ZM803.728,178.672L731.697,188.847L708.422,24.022L780.453,13.847L803.728,178.672ZM739.353,151.522L752.778,149.628L745.885,100.822L771.047,147.047L784.666,145.122L759.491,99.222C763.778,97.572 766.803,94.403 768.585,89.747C770.36,85.084 770.747,79.184 769.741,72.034C768.428,62.747 765.185,56.159 760.035,52.272C755.972,49.297 750.278,48.322 742.966,49.353L725.278,51.853L739.353,151.522ZM740.26,60.997L742.522,60.678C744.628,60.378 746.497,60.441 748.116,60.872C749.735,61.303 751.122,62.134 752.285,63.378C753.447,64.616 754.416,66.303 755.172,68.434C755.935,70.566 756.535,73.184 756.972,76.278C757.785,81.997 757.278,86.222 755.466,88.934C753.66,91.647 750.147,93.372 744.941,94.109L740.26,60.997ZM882.334,167.575L810.303,177.744L787.028,12.919L859.053,2.744L882.334,167.575ZM814.872,140.856L825.715,139.325C838.278,137.55 846.678,134.15 850.934,129.106C854.403,125.069 856.528,119.606 857.315,112.737C858.097,105.562 857.715,96.487 856.165,85.506C854.478,73.544 852.39,64.475 849.884,58.281C847.359,51.881 843.928,46.881 839.603,43.281C836.715,40.875 833.609,39.362 830.265,38.737C826.665,38.1 822.353,38.144 817.315,38.856L800.79,41.187L814.872,140.856ZM815.809,50.587L817.497,50.35C824.722,49.331 830.097,51.512 833.628,56.894C837.147,62.281 839.997,72.65 842.165,88.012C844.184,102.294 844.122,112.125 841.978,117.475C839.928,122.812 834.809,126.056 826.628,127.212L815.809,50.587ZM0,68.702L17.29,66.261L17.934,70.826L12.04,71.658L16.84,105.645L11.339,106.422L6.547,72.49L0.652,73.323L0,68.702ZM39.024,84.648L41.497,102.163L36.436,102.878L33.846,84.536C33.456,82.568 33.031,81.953 32.126,81.519C31.576,81.203 30.883,81.077 30.276,81.162C29.725,81.24 29.094,81.554 28.644,81.955C27.595,82.89 27.593,84.07 27.685,85.518L30.26,103.75L25.089,104.48L19.333,63.725L24.339,63.018L26.642,79.32C28.203,78.034 29.315,77.147 31.301,76.867C34.55,76.408 36.025,77.322 36.974,78.478C38.448,80.177 38.767,82.436 39.024,84.648ZM61.696,87.4L50.404,88.994C50.653,90.759 51.23,94.445 52.944,95.834C53.188,95.968 53.81,96.386 54.692,96.261C54.913,96.23 55.677,96.066 56.221,95.539C57.073,94.801 57.012,93.572 57.252,91.289L61.99,90.676C61.998,91.125 62.013,91.629 62.028,92.133C62.035,92.975 62.101,96.225 60.11,98.413C59.567,98.939 58.804,99.495 58.071,99.879C57.646,100.052 56.534,100.545 55.156,100.74C52.281,101.09 50.207,100.317 48.42,97.989C46.906,96.011 46.069,93.655 45.368,88.696C45.291,88.146 44.262,82.055 45.917,78.28C46.335,77.268 46.902,76.515 47.744,75.723C49.343,74.319 50.974,73.92 51.802,73.803C54.228,73.461 56.741,74.564 58.247,76.483C60.427,79.21 61.183,84.163 61.696,87.4ZM49.947,84.965L56.233,84.077C55.773,81.611 55.365,80.319 54.674,79.404C54.116,78.639 53.14,78.102 52.313,78.219C51.383,78.406 50.492,79.263 50.175,80.208C49.898,81.034 49.919,82.775 49.947,84.965ZM95.887,62.852L91.199,65.819C90.447,63.677 89.78,61.747 87.514,61.224C86.703,61.058 86.207,61.128 85.766,61.19C84.884,61.315 83.372,61.753 82.668,63.932C82.138,65.356 82.206,67.033 82.484,70.198C82.663,71.859 82.833,73.465 83.012,75.126C83.376,78.497 83.468,79.55 84.868,85.085C85.448,86.802 85.651,87.448 86.052,88.291C86.303,88.874 86.82,90.15 88.307,90.727C88.606,90.854 89.425,91.075 90.417,90.935C93.063,90.562 93.72,88.051 93.895,87.296C94.22,85.62 93.989,82.785 93.475,78.754L88.9,79.4L88.24,74.725L97.931,73.356C99.006,79.378 98.996,80.898 99.149,84.362C99.155,85.204 99.138,86.668 99.035,87.526C98.884,88.84 98.4,91.771 95.654,93.786C94.842,94.406 93.235,95.362 90.699,95.72C89.045,95.954 85.495,96.287 82.476,92.786C80.475,90.54 79.717,87.556 79.014,84.563C78.491,82.051 78.023,79.534 77.666,77.004C77.292,74.36 77.139,71.683 76.938,69.07C77.045,65.064 77.276,62.726 78.057,61.101C79.784,57.435 84.208,56.529 85.311,56.373C88.673,55.899 91.849,56.909 94.037,59.685C95.049,60.891 95.714,62.427 95.887,62.852ZM113.023,67.738L112.712,65.538L117.884,64.807L121.57,90.911L116.454,91.634L116.136,89.379C114.856,91.074 113.696,92.416 111.38,92.743C109.672,92.984 108.337,92.275 107.843,91.953C104.586,89.944 103.831,84.994 103.34,81.522C102.492,75.516 102.482,71.471 103.554,69.131C104.666,66.674 107.104,66.049 108.097,65.909C110.854,65.52 112.253,67.061 113.023,67.738ZM108.238,79.651C108.572,82.02 108.885,83.437 109.19,84.406C109.48,85.658 109.942,86.941 110.989,87.58C111.233,87.714 111.846,88.077 112.673,87.961C113.556,87.836 114.865,86.752 115.246,84.675C115.477,83.125 115.199,79.96 114.623,75.882C114.553,75.386 114.281,73.064 113.04,71.441C112.765,71.086 111.759,69.936 110.16,70.162C108.175,70.442 107.973,73 107.91,73.346C107.814,74.259 107.904,76.887 108.238,79.651ZM130.148,71.835L132.591,89.131L127.42,89.861L123.741,63.811L128.967,63.073L129.309,65.493C130.28,64.01 130.983,63.013 132.576,62.339C132.891,62.183 133.372,62.002 134.199,61.886C135.19,61.746 135.819,61.825 136.227,61.936C137.9,62.26 138.692,63.102 139.837,64.455C141.164,62.304 142.198,60.868 144.79,60.502C145.618,60.385 147.786,60.247 149.63,61.782C151.035,62.986 151.37,64.566 151.752,66.479L154.537,86.199L149.421,86.921L146.714,67.753C146.605,67.375 146.261,65.737 145.072,65.287C144.828,65.153 144.364,65.05 143.647,65.151C142.82,65.268 142.323,65.732 142.173,65.865C140.934,67.052 141.034,68.555 141.141,70.114L143.607,87.575L138.381,88.313L135.783,69.915C135.588,68.537 135.37,67.388 134.221,66.82C133.985,66.74 133.387,66.488 132.67,66.589C132.346,66.691 131.803,66.824 131.203,67.358C129.917,68.608 130.025,70.166 130.148,71.835ZM174.35,71.49L163.058,73.085C163.307,74.849 163.884,78.535 165.599,79.924C165.843,80.058 166.464,80.476 167.347,80.352C167.567,80.321 168.331,80.156 168.876,79.63C169.727,78.891 169.666,77.662 169.906,75.379L174.645,74.766C174.652,75.215 174.667,75.719 174.682,76.223C174.689,77.065 174.755,80.315 172.764,82.504C172.221,83.029 171.458,83.586 170.726,83.969C170.3,84.142 169.189,84.635 167.81,84.83C164.935,85.18 162.862,84.407 161.074,82.079C159.561,80.102 158.723,77.746 158.023,72.786C157.945,72.236 156.916,66.146 158.571,62.371C158.989,61.358 159.556,60.605 160.398,59.813C161.998,58.409 163.629,58.01 164.456,57.893C166.882,57.551 169.396,58.654 170.901,60.573C173.082,63.3 173.837,68.253 174.35,71.49ZM162.601,69.055L168.888,68.167C168.427,65.701 168.02,64.409 167.328,63.494C166.77,62.729 165.794,62.192 164.967,62.309C164.037,62.496 163.146,63.353 162.83,64.298C162.553,65.125 162.573,66.865 162.601,69.055ZM190.977,68.134C190.448,64.387 190.435,62.703 190.673,60.814C191.174,56.813 193.253,53.658 197.497,53.059C200.144,52.685 202.744,53.608 204.485,55.606C206.705,58.213 207.343,62.732 207.818,66.093C207.966,67.14 208.106,68.132 208.191,69.132C208.236,70.249 208.537,74.759 205.837,77.889C205.262,78.588 203.725,80.039 201.189,80.397C200.362,80.514 198.527,80.661 196.579,79.589C192.622,77.399 191.561,72.267 190.977,68.134ZM195.929,66.648C196.124,68.026 196.381,69.45 196.639,70.875C196.873,72.135 197.107,73.395 197.877,74.466C198.788,75.743 199.867,75.815 200.529,75.722C200.97,75.659 201.837,75.425 202.389,74.56C203.495,72.83 203.092,68.784 202.82,66.855C202.563,65.037 202.259,63.281 201.781,61.494C201.414,60.084 201.085,58.557 199.693,57.854C199.512,57.767 198.795,57.475 198.023,57.584C197.307,57.685 196.108,58.361 195.688,60.162C195.268,61.964 195.672,64.829 195.929,66.648ZM209.385,51.829L211.974,51.464C211.645,49.136 211.371,46.801 211.035,44.418C210.628,41.536 210.27,39.003 212.45,36.956C213.441,36.03 214.715,35.514 215.982,35.335C217.193,35.164 219.121,35.284 219.294,35.316L219.97,40.104C219.396,40.015 218.829,39.982 218.278,40.06C217.948,40.107 217.397,40.184 216.806,40.777C215.775,41.827 216.041,42.919 216.229,44.249C216.268,44.922 216.354,45.532 216.448,46.197C216.604,47.701 216.879,49.245 217.098,50.796L221.009,50.244L221.544,54.038L217.689,54.582L220.831,76.836L215.605,77.574L212.478,55.43L209.944,55.788L209.385,51.829ZM863.1,2.548L870.016,1.572L870.274,3.398L867.917,3.731L869.837,17.325L867.636,17.636L865.719,4.063L863.361,4.396L863.1,2.548ZM872,1.291L873.807,1.036L877.343,10.154L877.907,0.457L879.801,0.19L883.327,15.465L881.303,15.751L879.379,6.428L878.743,16.09L877.42,16.277L874.347,7.251L874.797,16.647L872.861,16.921L872,1.291ZM174.889,267.481L102.858,277.656L79.583,112.831L151.608,102.656L174.889,267.481ZM137.039,138.369C137.039,138.369 142.014,197.15 142.189,200.244L143.477,210.606C143.464,210.831 143.477,211.219 143.514,211.787C143.552,212.35 143.589,213.075 143.62,213.944L142.845,210.762C141.533,205.2 140.252,200.087 139.002,195.437C137.752,190.787 136.502,186.506 135.245,182.6L124.902,141.737L124.689,141.769L114.57,143.194L114.358,143.225L115.739,185.356C115.614,189.456 115.595,193.912 115.683,198.731C115.77,203.544 115.958,208.812 116.233,214.519L116.37,217.794C116.158,216.944 115.995,216.244 115.87,215.694C115.752,215.137 115.652,214.756 115.583,214.55L113.952,204.231C113.264,201.212 101.764,143.35 101.764,143.35L88.789,145.181L114.039,243.275L124.82,241.75L125.008,197.825C125.052,197.512 123.245,168.087 123.245,168.087C123.245,168.087 128.252,192.344 129.327,197.15L142.133,239.306L152.914,237.781L150.014,136.537L137.039,138.369Z" style="fill:rgb(71,55,102);"/>
            </g>
        </g>
    </g>
</svg>
