<?xml version="1.0" encoding="UTF-8" standalone="no"?><!DOCTYPE svg PUBLIC "-//W3C//DTD SVG 1.1//EN" "http://www.w3.org/Graphics/SVG/1.1/DTD/svg11.dtd"><svg width="100%" height="100%" viewBox="0 0 127 108" version="1.1" xmlns="http://www.w3.org/2000/svg" xmlns:xlink="http://www.w3.org/1999/xlink" xml:space="preserve" xmlns:serif="http://www.serif.com/" style="fill-rule:evenodd;clip-rule:evenodd;stroke-linejoin:round;stroke-miterlimit:2;"><path d="M8.234,16.469c-4.544,-0 -8.234,-3.69 -8.234,-8.235c-0,-4.544 3.69,-8.234 8.234,-8.234l109.832,-0c4.544,0 8.234,3.69 8.234,8.234c-0,4.545 -3.69,8.235 -8.234,8.235l-109.832,-0Z" style="fill:#e7e7e8;"/><path d="M8.234,62.07c-4.544,0 -8.234,-3.69 -8.234,-8.234c-0,-4.545 3.69,-8.235 8.234,-8.235l109.832,0c4.544,0 8.234,3.69 8.234,8.235c-0,4.544 -3.69,8.234 -8.234,8.234l-109.832,-0Z" style="fill:#e7e7e8;"/><path d="M8.234,107.671c-4.544,0 -8.234,-3.689 -8.234,-8.234c0,-4.545 3.69,-8.235 8.234,-8.235l109.832,0c4.544,0 8.234,3.69 8.234,8.235c0,4.545 -3.69,8.234 -8.234,8.234l-109.832,0Z" style="fill:#e7e7e8;"/></svg>