<?xml version="1.0" encoding="UTF-8" standalone="no"?><!DOCTYPE svg PUBLIC "-//W3C//DTD SVG 1.1//EN" "http://www.w3.org/Graphics/SVG/1.1/DTD/svg11.dtd"><svg width="100%" height="100%" viewBox="0 0 884 289" version="1.1" xmlns="http://www.w3.org/2000/svg" xmlns:xlink="http://www.w3.org/1999/xlink" xml:space="preserve" xmlns:serif="http://www.serif.com/" style="fill-rule:evenodd;clip-rule:evenodd;stroke-linejoin:round;stroke-miterlimit:2;"><path d="M96.285,278.584l-72.032,10.175l-23.281,-164.832l72.031,-10.168l23.282,164.825Zm-54.194,-131.632c-6.888,0.975 -12.05,4.05 -15.488,9.238c-3.4,5.131 -4.55,11.594 -3.45,19.375c0.819,5.769 2.519,10.4 5.125,13.9c1.344,1.781 3.319,3.806 5.919,6.069c2.606,2.268 5.844,4.843 9.719,7.718c2.506,1.882 4.619,3.619 6.331,5.194c1.713,1.581 3.081,2.994 4.094,4.263c1.994,2.656 3.25,5.793 3.769,9.406c0.581,4.181 0.018,7.625 -1.707,10.35c-1.718,2.719 -4.412,4.337 -8.068,4.856c-3.919,0.556 -8.507,-0.569 -13.775,-3.381l1.875,13.294c4.487,2.575 9.6,3.456 15.318,2.65c6.8,-0.963 12.032,-4.188 15.694,-9.663c3.638,-5.6 4.913,-12.256 3.825,-19.962c-0.806,-5.682 -2.469,-10.344 -5,-13.975c-2.556,-3.769 -6.95,-8.038 -13.206,-12.825c-3.388,-2.544 -6.163,-4.738 -8.331,-6.582c-2.175,-1.85 -3.763,-3.381 -4.769,-4.6c-1.944,-2.268 -3.163,-5.15 -3.656,-8.631c-0.557,-3.956 0.118,-7.287 2.018,-9.962c1.888,-2.813 4.594,-4.475 8.119,-4.969c3.275,-0.463 7.163,0.481 11.663,2.825l-1.85,-13.1c-4.669,-1.663 -9.388,-2.163 -14.169,-1.488Zm211.404,109.429l-72.031,10.175l-23.281,-164.825l72.031,-10.175l23.281,164.825Zm-49.6,-29.237l13.425,-1.894l-14.075,-99.669l-13.431,1.894l14.081,99.669Zm128.204,18.133l-72.031,10.175l-23.281,-164.825l72.031,-10.175l23.281,164.825Zm-77.337,-114.993l15.487,-2.188l12.419,87.925l13.162,-1.862l-12.412,-87.919l15.037,-2.125l-1.656,-11.75l-43.7,6.169l1.663,11.75Zm155.943,103.893l-72.032,10.175l-23.281,-164.825l72.031,-10.175l23.282,164.825Zm-47.044,-132.638c-10.156,1.432 -17.081,6.844 -20.781,16.238c-3.707,9.381 -4.294,22.987 -1.775,40.8c4.656,32.969 17.068,48.031 37.256,45.175c4,-0.563 7.494,-1.981 10.456,-4.244l-1.737,-12.331c-2.907,1.819 -5.457,2.881 -7.65,3.194c-12.607,1.781 -20.644,-9.638 -24.125,-34.257c-0.963,-6.843 -1.45,-12.825 -1.45,-17.931c0.006,-5.119 0.518,-9.412 1.537,-12.894c1.025,-3.475 2.563,-6.168 4.625,-8.056c2.056,-1.9 4.681,-3.069 7.863,-3.519c2.325,-0.331 5.325,0.1 9.006,1.294l-1.7,-12.069c-3.938,-1.462 -7.781,-1.925 -11.525,-1.4Zm125.648,121.537l-72.031,10.175l-23.275,-164.825l72.025,-10.175l23.281,164.825Zm-66.725,-26.819l13.425,-1.894l-6.962,-49.319l19.693,-2.781l6.963,49.319l13.425,-1.9l-14.081,-99.669l-13.425,1.9l5.512,38.988l-19.694,2.781l-5.506,-38.988l-13.425,1.894l14.075,99.669Zm145.328,15.723l-72.025,10.169l-23.282,-164.825l72.032,-10.175l23.275,164.831Zm-63.163,-27.325l17.563,-2.481c15.662,-2.213 22.2,-12.469 19.612,-30.757c-0.937,-6.668 -2.65,-11.518 -5.15,-14.543c-2.444,-3.082 -6.519,-5.319 -12.2,-6.707c4.456,-2.337 7.375,-5.275 8.763,-8.812c1.387,-3.531 1.606,-8.669 0.65,-15.431c-2.5,-17.682 -10.869,-25.525 -25.113,-23.513l-18.206,2.575l14.081,99.669Zm0.106,-90.613c0.075,-0.05 0.294,-0.106 0.638,-0.156l0.581,-0.081l1.031,-0.15c7.744,-1.094 12.382,3.737 13.9,14.5c0.894,6.369 0.519,10.962 -1.15,13.787c-1.681,2.694 -5.125,4.413 -10.331,5.144l-4.669,-33.044Zm6.175,43.7c5.375,-0.756 9.325,0 11.844,2.282c2.55,2.225 4.275,6.525 5.175,12.893c0.875,6.194 0.425,10.632 -1.35,13.294c-1.775,2.663 -5.412,4.388 -10.919,5.163l-4.75,-33.632Zm135.488,63.136l-72.031,10.169l-23.275,-164.825l72.031,-10.175l23.275,164.831Zm-30.394,-109.512c-2.2,-6.888 -4.906,-12.057 -8.112,-15.513c-4.857,-5.156 -11.45,-7.137 -19.8,-5.956c-9.344,1.319 -15.45,5.95 -18.319,13.906c-2.831,7.913 -3,20.719 -0.494,38.45c2.806,19.888 6.719,33.444 11.738,40.681c5.075,7.4 12.462,10.425 22.15,9.057c9.206,-1.3 15.243,-5.925 18.118,-13.882c2.869,-7.956 3.063,-20.743 0.575,-38.337c-1.768,-12.569 -3.725,-22.038 -5.856,-28.406Zm-6.656,59.606c-0.969,5.225 -3.725,8.156 -8.238,8.794c-4.606,0.65 -8.125,-1.569 -10.556,-6.669c-2.431,-5.406 -4.681,-15.406 -6.737,-29.994c-2.238,-15.831 -2.95,-26.487 -2.144,-31.962c0.856,-5.425 3.669,-8.482 8.45,-9.157c4.775,-0.675 8.344,1.719 10.694,7.182c2.35,5.418 4.737,16.756 7.168,34.006c1.888,13.35 2.338,22.612 1.363,27.8Zm115.652,38.805l-72.025,10.169l-23.281,-164.825l72.031,-10.175l23.275,164.831Zm-70.768,-26.25l12.912,-1.825l1.069,-19.968l19.75,-2.794l6.487,18.906l13.294,-1.881l-35.437,-96.65l-10.463,1.475l-7.612,102.737Zm14.381,-32.456l0.65,-13.125c0.306,-7.069 0.519,-13.731 0.594,-20c0.081,-6.262 -0,-12.431 -0.244,-18.5c2.981,12.088 6.225,23.388 9.731,33.919l5.213,15.456l-15.944,2.25Zm134.995,47.601l-72.031,10.175l-23.275,-164.825l72.031,-10.175l23.275,164.825Zm-64.375,-27.15l13.425,-1.894l-6.893,-48.806l25.162,46.225l13.619,-1.925l-25.175,-45.9c4.287,-1.65 7.312,-4.819 9.094,-9.475c1.775,-4.663 2.162,-10.563 1.156,-17.713c-1.313,-9.287 -4.556,-15.875 -9.706,-19.762c-4.063,-2.975 -9.757,-3.95 -17.069,-2.919l-17.688,2.5l14.075,99.669Zm0.907,-90.525l2.262,-0.319c2.106,-0.3 3.975,-0.237 5.594,0.194c1.619,0.431 3.006,1.262 4.169,2.506c1.162,1.238 2.131,2.925 2.887,5.056c0.763,2.132 1.363,4.75 1.8,7.844c0.813,5.719 0.306,9.944 -1.506,12.656c-1.806,2.713 -5.319,4.438 -10.525,5.175l-4.681,-33.112Zm142.074,106.578l-72.031,10.169l-23.275,-164.825l72.025,-10.175l23.281,164.831Zm-67.462,-26.719l10.843,-1.531c12.563,-1.775 20.963,-5.175 25.219,-10.219c3.469,-4.037 5.594,-9.5 6.381,-16.369c0.782,-7.175 0.4,-16.25 -1.15,-27.231c-1.687,-11.962 -3.775,-21.031 -6.281,-27.225c-2.525,-6.4 -5.956,-11.4 -10.281,-15c-2.888,-2.406 -5.994,-3.919 -9.338,-4.544c-3.6,-0.637 -7.912,-0.593 -12.95,0.119l-16.525,2.331l14.082,99.669Zm0.937,-90.269l1.688,-0.237c7.225,-1.019 12.6,1.162 16.131,6.544c3.519,5.387 6.369,15.756 8.537,31.118c2.019,14.282 1.957,24.113 -0.187,29.463c-2.05,5.337 -7.169,8.581 -15.35,9.737l-10.819,-76.625Zm-815.809,18.115l17.29,-2.441l0.644,4.565l-5.894,0.832l4.8,33.987l-5.501,0.777l-4.792,-33.932l-5.895,0.833l-0.652,-4.621Zm39.024,15.946l2.473,17.515l-5.061,0.715l-2.59,-18.342c-0.39,-1.968 -0.815,-2.583 -1.72,-3.017c-0.55,-0.316 -1.243,-0.442 -1.85,-0.357c-0.551,0.078 -1.182,0.392 -1.632,0.793c-1.049,0.935 -1.051,2.115 -0.959,3.563l2.575,18.232l-5.171,0.73l-5.756,-40.755l5.006,-0.707l2.303,16.302c1.561,-1.286 2.673,-2.173 4.659,-2.453c3.249,-0.459 4.724,0.455 5.673,1.611c1.474,1.699 1.793,3.958 2.05,6.17Zm22.672,2.752l-11.292,1.594c0.249,1.765 0.826,5.451 2.54,6.84c0.244,0.134 0.866,0.552 1.748,0.427c0.221,-0.031 0.985,-0.195 1.529,-0.722c0.852,-0.738 0.791,-1.967 1.031,-4.25l4.738,-0.613c0.008,0.449 0.023,0.953 0.038,1.457c0.007,0.842 0.073,4.092 -1.918,6.28c-0.543,0.526 -1.306,1.082 -2.039,1.466c-0.425,0.173 -1.537,0.666 -2.915,0.861c-2.875,0.35 -4.949,-0.423 -6.736,-2.751c-1.514,-1.978 -2.351,-4.334 -3.052,-9.293c-0.077,-0.55 -1.106,-6.641 0.549,-10.416c0.418,-1.012 0.985,-1.765 1.827,-2.557c1.599,-1.404 3.23,-1.803 4.058,-1.92c2.426,-0.342 4.939,0.761 6.445,2.68c2.18,2.727 2.936,7.68 3.449,10.917Zm-11.749,-2.435l6.286,-0.888c-0.46,-2.466 -0.868,-3.758 -1.559,-4.673c-0.558,-0.765 -1.534,-1.302 -2.361,-1.185c-0.93,0.187 -1.821,1.044 -2.138,1.989c-0.277,0.826 -0.256,2.567 -0.228,4.757Zm45.94,-22.113l-4.688,2.967c-0.752,-2.142 -1.419,-4.072 -3.685,-4.595c-0.811,-0.166 -1.307,-0.096 -1.748,-0.034c-0.882,0.125 -2.394,0.563 -3.098,2.742c-0.53,1.424 -0.462,3.101 -0.184,6.266c0.179,1.661 0.349,3.267 0.528,4.928c0.364,3.371 0.456,4.424 1.856,9.959c0.58,1.717 0.783,2.363 1.184,3.206c0.251,0.583 0.768,1.859 2.255,2.436c0.299,0.127 1.118,0.348 2.11,0.208c2.646,-0.373 3.303,-2.884 3.478,-3.639c0.325,-1.676 0.094,-4.511 -0.42,-8.542l-4.575,0.646l-0.66,-4.675l9.691,-1.369c1.075,6.022 1.065,7.542 1.218,11.006c0.006,0.842 -0.011,2.306 -0.114,3.164c-0.151,1.314 -0.635,4.245 -3.381,6.26c-0.812,0.62 -2.419,1.576 -4.955,1.934c-1.654,0.234 -5.204,0.567 -8.223,-2.934c-2.001,-2.246 -2.759,-5.23 -3.462,-8.223c-0.523,-2.512 -0.991,-5.029 -1.348,-7.559c-0.374,-2.644 -0.527,-5.321 -0.728,-7.934c0.107,-4.006 0.338,-6.344 1.119,-7.969c1.727,-3.666 6.151,-4.572 7.254,-4.728c3.362,-0.474 6.538,0.536 8.726,3.312c1.012,1.206 1.677,2.742 1.85,3.167Zm17.136,4.886l-0.311,-2.2l5.172,-0.731l3.686,26.104l-5.116,0.723l-0.318,-2.255c-1.28,1.695 -2.44,3.037 -4.756,3.364c-1.708,0.241 -3.043,-0.468 -3.537,-0.79c-3.257,-2.009 -4.012,-6.959 -4.503,-10.431c-0.848,-6.006 -0.858,-10.051 0.214,-12.391c1.112,-2.457 3.55,-3.082 4.543,-3.222c2.757,-0.389 4.156,1.152 4.926,1.829Zm-4.785,11.913c0.334,2.369 0.647,3.786 0.952,4.755c0.29,1.252 0.752,2.535 1.799,3.174c0.244,0.134 0.857,0.497 1.684,0.381c0.883,-0.125 2.192,-1.209 2.573,-3.286c0.231,-1.55 -0.047,-4.715 -0.623,-8.793c-0.07,-0.496 -0.342,-2.818 -1.583,-4.441c-0.275,-0.355 -1.281,-1.505 -2.88,-1.279c-1.985,0.28 -2.187,2.838 -2.25,3.184c-0.096,0.913 -0.006,3.541 0.328,6.305Zm21.91,-7.816l2.443,17.296l-5.171,0.73l-3.679,-26.05l5.226,-0.738l0.342,2.42c0.971,-1.483 1.674,-2.48 3.267,-3.154c0.315,-0.156 0.796,-0.337 1.623,-0.453c0.991,-0.14 1.62,-0.061 2.028,0.05c1.673,0.324 2.465,1.166 3.61,2.519c1.327,-2.151 2.361,-3.587 4.953,-3.953c0.828,-0.117 2.996,-0.255 4.84,1.28c1.405,1.204 1.74,2.784 2.122,4.697l2.785,19.72l-5.116,0.722l-2.707,-19.168c-0.109,-0.378 -0.453,-2.016 -1.642,-2.466c-0.244,-0.134 -0.708,-0.237 -1.425,-0.136c-0.827,0.117 -1.324,0.581 -1.474,0.714c-1.239,1.187 -1.139,2.69 -1.032,4.249l2.466,17.461l-5.226,0.738l-2.598,-18.398c-0.195,-1.378 -0.413,-2.527 -1.562,-3.095c-0.236,-0.08 -0.834,-0.332 -1.551,-0.231c-0.324,0.102 -0.867,0.235 -1.467,0.769c-1.286,1.25 -1.178,2.808 -1.055,4.477Zm44.202,-0.345l-11.292,1.595c0.249,1.764 0.826,5.45 2.541,6.839c0.244,0.134 0.865,0.552 1.748,0.428c0.22,-0.031 0.984,-0.196 1.529,-0.722c0.851,-0.739 0.79,-1.968 1.03,-4.251l4.739,-0.613c0.007,0.449 0.022,0.953 0.037,1.457c0.007,0.842 0.073,4.092 -1.918,6.281c-0.543,0.525 -1.306,1.082 -2.038,1.465c-0.426,0.173 -1.537,0.666 -2.916,0.861c-2.875,0.35 -4.948,-0.423 -6.736,-2.751c-1.513,-1.977 -2.351,-4.333 -3.051,-9.293c-0.078,-0.55 -1.107,-6.64 0.548,-10.415c0.418,-1.013 0.985,-1.766 1.827,-2.558c1.6,-1.404 3.231,-1.803 4.058,-1.92c2.426,-0.342 4.94,0.761 6.445,2.68c2.181,2.727 2.936,7.68 3.449,10.917Zm-11.749,-2.435l6.287,-0.888c-0.461,-2.466 -0.868,-3.758 -1.56,-4.673c-0.558,-0.765 -1.534,-1.302 -2.361,-1.185c-0.93,0.187 -1.821,1.044 -2.137,1.989c-0.277,0.827 -0.257,2.567 -0.229,4.757Zm28.376,-0.921c-0.529,-3.747 -0.542,-5.431 -0.304,-7.32c0.501,-4.001 2.58,-7.156 6.824,-7.755c2.647,-0.374 5.247,0.549 6.988,2.547c2.22,2.607 2.858,7.126 3.333,10.487c0.148,1.047 0.288,2.039 0.373,3.039c0.045,1.117 0.346,5.627 -2.354,8.757c-0.575,0.699 -2.112,2.15 -4.648,2.508c-0.827,0.117 -2.662,0.264 -4.61,-0.808c-3.957,-2.19 -5.018,-7.322 -5.602,-11.455Zm4.952,-1.486c0.195,1.378 0.452,2.802 0.71,4.227c0.234,1.26 0.468,2.52 1.238,3.591c0.911,1.277 1.99,1.349 2.652,1.256c0.441,-0.063 1.308,-0.297 1.86,-1.162c1.106,-1.73 0.703,-5.776 0.431,-7.705c-0.257,-1.818 -0.561,-3.574 -1.039,-5.361c-0.367,-1.41 -0.696,-2.937 -2.088,-3.64c-0.181,-0.087 -0.898,-0.379 -1.67,-0.27c-0.716,0.101 -1.915,0.777 -2.335,2.578c-0.42,1.802 -0.016,4.667 0.241,6.486Zm13.456,-14.819l2.589,-0.365c-0.329,-2.328 -0.603,-4.663 -0.939,-7.046c-0.407,-2.882 -0.765,-5.415 1.415,-7.462c0.991,-0.926 2.265,-1.442 3.532,-1.621c1.211,-0.171 3.139,-0.051 3.312,-0.019l0.676,4.788c-0.574,-0.089 -1.141,-0.122 -1.692,-0.044c-0.33,0.047 -0.881,0.124 -1.472,0.717c-1.031,1.05 -0.765,2.142 -0.577,3.472c0.039,0.673 0.125,1.283 0.219,1.948c0.156,1.504 0.431,3.048 0.65,4.599l3.911,-0.552l0.535,3.794l-3.855,0.544l3.142,22.254l-5.226,0.738l-3.127,-22.144l-2.534,0.358l-0.559,-3.959Zm653.715,-49.281l6.916,-0.976l0.258,1.826l-2.357,0.333l1.92,13.594l-2.201,0.311l-1.917,-13.573l-2.358,0.333l-0.261,-1.848Zm8.9,-1.257l1.807,-0.255l3.536,9.118l0.564,-9.697l1.894,-0.267l3.526,15.275l-2.024,0.286l-1.924,-9.323l-0.636,9.662l-1.323,0.187l-3.073,-9.026l0.45,9.396l-1.936,0.274l-0.861,-15.63Zm-697.111,266.19l-72.031,10.175l-23.275,-164.825l72.025,-10.175l23.281,164.825Zm-37.85,-129.112c0,-0 4.975,58.781 5.15,61.875l1.288,10.362c-0.013,0.225 -0,0.613 0.037,1.181c0.038,0.563 0.075,1.288 0.106,2.157l-0.775,-3.182c-1.312,-5.562 -2.593,-10.675 -3.843,-15.325c-1.25,-4.65 -2.5,-8.931 -3.757,-12.837l-10.343,-40.863l-0.213,0.032l-10.119,1.425l-0.212,0.031l1.381,42.131c-0.125,4.1 -0.144,8.556 -0.056,13.375c0.087,4.813 0.275,10.081 0.55,15.788l0.137,3.275c-0.212,-0.85 -0.375,-1.55 -0.5,-2.1c-0.118,-0.557 -0.218,-0.938 -0.287,-1.144l-1.631,-10.319c-0.688,-3.019 -12.188,-60.881 -12.188,-60.881l-12.975,1.831l25.25,98.094l10.781,-1.525l0.188,-43.925c0.044,-0.313 -1.763,-29.738 -1.763,-29.738c0,0 5.007,24.257 6.082,29.063l12.806,42.156l10.781,-1.525l-2.9,-101.244l-12.975,1.832Z" style="fill:#fff;"/></svg>