<?xml version="1.0" encoding="UTF-8" standalone="no"?>
<!DOCTYPE svg PUBLIC "-//W3C//DTD SVG 1.1//EN" "http://www.w3.org/Graphics/SVG/1.1/DTD/svg11.dtd">
<svg width="897px" height="320px" version="1.1" xmlns="http://www.w3.org/2000/svg" xmlns:xlink="http://www.w3.org/1999/xlink" xml:space="preserve" xmlns:serif="http://www.serif.com/" style="fill-rule:evenodd;clip-rule:evenodd;stroke-linejoin:round;stroke-miterlimit:2;">
    <g transform="matrix(8.33333,0,0,8.33333,45.0216,259.44)">
        <path d="M-2.225,4.119L-5.061,-15.913L3.693,-17.152L6.529,2.88L-2.225,4.119ZM0,-13.033C-0.837,-12.915 -1.464,-12.54 -1.882,-11.91C-2.295,-11.286 -2.435,-10.501 -2.3,-9.554C-2.201,-8.853 -1.993,-8.291 -1.677,-7.866C-1.513,-7.649 -1.273,-7.403 -0.956,-7.128C-0.64,-6.852 -0.246,-6.54 0.225,-6.19C0.529,-5.961 0.786,-5.751 0.994,-5.559C1.203,-5.367 1.368,-5.195 1.492,-5.041C1.735,-4.718 1.887,-4.337 1.95,-3.898C2.022,-3.39 1.953,-2.971 1.743,-2.64C1.534,-2.309 1.207,-2.112 0.763,-2.049C0.287,-1.982 -0.271,-2.119 -0.912,-2.461L-0.683,-0.844C-0.137,-0.532 0.483,-0.425 1.179,-0.524C2.005,-0.641 2.641,-1.032 3.085,-1.698C3.528,-2.379 3.683,-3.188 3.55,-4.125C3.452,-4.815 3.25,-5.381 2.942,-5.823C2.631,-6.28 2.096,-6.8 1.337,-7.38C0.925,-7.69 0.587,-7.957 0.323,-8.181C0.059,-8.405 -0.134,-8.591 -0.256,-8.739C-0.493,-9.015 -0.641,-9.365 -0.701,-9.789C-0.769,-10.27 -0.687,-10.673 -0.456,-11C-0.228,-11.341 0.102,-11.543 0.531,-11.604C0.928,-11.66 1.401,-11.545 1.948,-11.26L1.722,-12.853C1.154,-13.055 0.581,-13.115 0,-13.033ZM22.8,-19.857L25.636,0.175L16.882,1.414L14.046,-18.619L22.8,-19.857ZM19.788,-3.31L21.42,-3.541L19.704,-15.654L18.073,-15.423L19.788,-3.31ZM7.329,2.767L4.492,-17.265L13.246,-18.505L16.083,1.528L7.329,2.767ZM11.595,-14.18C11.595,-14.18 12.202,-7.037 12.223,-6.66L12.381,-5.4C12.379,-5.373 12.381,-5.327 12.385,-5.257C12.39,-5.188 12.394,-5.101 12.398,-4.995L12.304,-5.381C12.144,-6.058 11.988,-6.678 11.836,-7.244C11.684,-7.809 11.531,-8.329 11.379,-8.805L10.12,-13.77L10.094,-13.767L8.864,-13.592L8.839,-13.59L9.008,-8.468C8.993,-7.97 8.991,-7.428 9.002,-6.843C9.013,-6.257 9.035,-5.618 9.07,-4.923L9.086,-4.526C9.061,-4.63 9.041,-4.714 9.026,-4.781C9.011,-4.849 8.999,-4.896 8.99,-4.92L8.792,-6.174C8.708,-6.541 7.308,-13.573 7.308,-13.573L5.731,-13.35L8.804,-1.429L10.114,-1.614L10.135,-6.953C10.141,-6.992 9.92,-10.568 9.92,-10.568C9.92,-10.568 10.529,-7.619 10.66,-7.037L12.219,-1.912L13.529,-2.098L13.172,-14.403L11.595,-14.18ZM26.435,0.062L23.599,-19.971L32.353,-21.21L35.19,-1.178L26.435,0.062ZM26.084,-15.101L27.967,-15.368L29.48,-4.682L31.08,-4.909L29.567,-15.594L31.395,-15.853L31.193,-17.281L25.882,-16.529L26.084,-15.101ZM35.989,-1.292L33.152,-21.324L41.907,-22.564L44.743,-2.531L35.989,-1.292ZM39.083,-18.567C37.848,-18.392 37.007,-17.734 36.557,-16.593C36.108,-15.452 36.037,-13.798 36.343,-11.633C36.911,-7.627 38.421,-5.797 40.874,-6.145C41.36,-6.213 41.784,-6.386 42.145,-6.66L41.933,-8.159C41.58,-7.938 41.27,-7.809 41.004,-7.771C39.471,-7.554 38.493,-8.942 38.069,-11.934C37.952,-12.765 37.893,-13.492 37.893,-14.113C37.893,-14.735 37.955,-15.257 38.079,-15.68C38.203,-16.103 38.391,-16.43 38.64,-16.66C38.891,-16.89 39.209,-17.032 39.596,-17.087C39.879,-17.127 40.244,-17.075 40.691,-16.93L40.483,-18.397C40.005,-18.575 39.538,-18.632 39.083,-18.567ZM45.542,-2.644L42.706,-22.676L51.46,-23.916L54.296,-3.883L45.542,-2.644ZM46.563,-7.101L48.195,-7.332L47.346,-13.326L49.739,-13.665L50.588,-7.671L52.219,-7.902L50.504,-20.015L48.872,-19.784L49.543,-15.045L47.15,-14.707L46.479,-19.445L44.848,-19.214L46.563,-7.101ZM55.095,-3.997L52.259,-24.029L61.013,-25.269L63.849,-5.237L55.095,-3.997ZM56.581,-8.52L58.715,-8.822C60.619,-9.092 61.413,-10.338 61.098,-12.561C60.984,-13.372 60.775,-13.961 60.472,-14.329C60.174,-14.703 59.679,-14.974 58.988,-15.143C59.529,-15.428 59.884,-15.785 60.053,-16.214C60.222,-16.643 60.248,-17.269 60.132,-18.09C59.827,-20.24 58.809,-21.192 57.078,-20.947L54.866,-20.633L56.581,-8.52ZM56.59,-19.533C56.6,-19.54 56.626,-19.546 56.667,-19.552L56.738,-19.562L56.864,-19.58C57.805,-19.713 58.368,-19.126 58.553,-17.819C58.663,-17.044 58.617,-16.486 58.414,-16.142C58.21,-15.814 57.792,-15.606 57.159,-15.516L56.59,-19.533ZM57.342,-14.222C57.996,-14.314 58.476,-14.222 58.782,-13.945C59.092,-13.674 59.302,-13.152 59.412,-12.378C59.518,-11.625 59.464,-11.086 59.248,-10.763C59.033,-10.439 58.59,-10.229 57.921,-10.135L57.342,-14.222ZM64.648,-5.35L61.812,-25.382L70.566,-26.621L73.402,-6.589L64.648,-5.35ZM70.09,-19.86C69.822,-20.697 69.493,-21.325 69.102,-21.745C68.512,-22.371 67.71,-22.612 66.695,-22.468C65.561,-22.307 64.818,-21.744 64.47,-20.776C64.126,-19.816 64.107,-18.258 64.412,-16.103C64.754,-13.686 65.23,-12.038 65.84,-11.159C66.458,-10.26 67.355,-9.893 68.532,-10.06C69.651,-10.218 70.386,-10.781 70.734,-11.748C71.083,-12.715 71.106,-14.268 70.803,-16.407C70.586,-17.935 70.349,-19.085 70.09,-19.86ZM69.283,-12.615C69.165,-11.979 68.831,-11.623 68.282,-11.545C67.722,-11.466 67.295,-11.736 66.999,-12.356C66.703,-13.013 66.43,-14.228 66.179,-16.001C65.906,-17.926 65.819,-19.22 65.917,-19.885C66.021,-20.545 66.363,-20.916 66.943,-20.999C67.524,-21.081 67.957,-20.79 68.244,-20.126C68.529,-19.468 68.82,-18.09 69.117,-15.993C69.346,-14.371 69.402,-13.245 69.283,-12.615ZM74.202,-6.702L71.365,-26.734L80.12,-27.974L82.956,-7.942L74.202,-6.702ZM74.731,-11.09L76.3,-11.312L76.428,-13.739L78.829,-14.078L79.618,-11.782L81.235,-12.011L76.922,-23.756L75.652,-23.576L74.731,-11.09ZM76.477,-15.034L76.555,-16.63C76.594,-17.489 76.617,-18.299 76.627,-19.06C76.637,-19.822 76.626,-20.572 76.597,-21.309C76.96,-19.84 77.354,-18.466 77.781,-17.187L78.415,-15.308L76.477,-15.034ZM83.755,-8.054L80.919,-28.087L89.673,-29.326L92.509,-9.294L83.755,-8.054ZM85.062,-12.552L86.693,-12.783L85.853,-18.714L88.914,-13.097L90.569,-13.332L87.507,-18.908C88.028,-19.11 88.396,-19.494 88.612,-20.061C88.828,-20.628 88.874,-21.345 88.751,-22.213C88.591,-23.343 88.198,-24.144 87.571,-24.615C87.077,-24.977 86.385,-25.096 85.496,-24.97L83.346,-24.665L85.062,-12.552ZM85.168,-23.555L85.443,-23.594C85.699,-23.63 85.925,-23.622 86.122,-23.57C86.319,-23.518 86.488,-23.416 86.63,-23.266C86.771,-23.115 86.888,-22.91 86.981,-22.651C87.074,-22.392 87.146,-22.074 87.2,-21.698C87.298,-21.002 87.238,-20.489 87.018,-20.159C86.797,-19.829 86.371,-19.62 85.738,-19.53L85.168,-23.555ZM93.308,-9.408L90.472,-29.44L99.226,-30.68L102.063,-10.647L93.308,-9.408ZM94.2,-13.847L95.518,-14.033C97.045,-14.25 98.067,-14.664 98.583,-15.276C99.004,-15.767 99.262,-16.431 99.358,-17.266C99.453,-18.138 99.406,-19.242 99.217,-20.575C99.012,-22.029 98.756,-23.132 98.453,-23.884C98.145,-24.662 97.728,-25.27 97.202,-25.707C96.851,-25.999 96.473,-26.183 96.068,-26.259C95.63,-26.336 95.105,-26.331 94.493,-26.244L92.485,-25.96L94.2,-13.847ZM94.311,-24.818L94.515,-24.847C95.394,-24.971 96.047,-24.706 96.476,-24.052C96.905,-23.398 97.252,-22.137 97.516,-20.27C97.762,-18.534 97.755,-17.34 97.495,-16.69C97.245,-16.041 96.623,-15.646 95.63,-15.506L94.311,-24.818ZM-5.403,-22.958L-3.187,-23.272L-3.104,-22.69L-3.861,-22.582L-3.228,-18.117L-3.898,-18.022L-4.53,-22.488L-5.32,-22.376L-5.403,-22.958ZM-2.964,-23.822L-2.335,-23.912L-1.972,-21.348L-1.958,-21.349C-1.848,-21.666 -1.642,-21.845 -1.338,-21.888C-1.039,-21.93 -0.823,-21.838 -0.691,-21.611C-0.607,-21.468 -0.541,-21.222 -0.491,-20.874L-0.162,-18.551L-0.792,-18.462L-1.122,-20.799C-1.173,-21.156 -1.323,-21.316 -1.573,-21.281C-1.752,-21.256 -1.855,-21.148 -1.882,-20.957C-1.893,-20.874 -1.881,-20.709 -1.847,-20.464L-1.548,-18.355L-2.177,-18.266L-2.964,-23.822ZM2.247,-20.49L0.854,-20.293C0.954,-19.588 1.136,-19.254 1.399,-19.291C1.662,-19.329 1.764,-19.557 1.705,-19.977L2.287,-20.059C2.336,-19.715 2.299,-19.428 2.177,-19.197C2.037,-18.931 1.802,-18.775 1.472,-18.728C1.053,-18.669 0.735,-18.824 0.518,-19.194C0.374,-19.442 0.267,-19.812 0.197,-20.303C0.031,-21.481 0.284,-22.118 0.958,-22.213C1.641,-22.31 2.066,-21.769 2.233,-20.591L2.247,-20.49ZM0.791,-20.742L1.541,-20.848C1.46,-21.419 1.292,-21.687 1.038,-21.651C0.868,-21.627 0.772,-21.502 0.749,-21.275C0.74,-21.178 0.754,-21.001 0.791,-20.742ZM5.353,-22.05L6.584,-22.224L6.596,-22.144C6.685,-21.515 6.733,-21.142 6.741,-21.024C6.805,-19.991 6.48,-19.424 5.766,-19.322C5.222,-19.245 4.813,-19.445 4.541,-19.921C4.342,-20.266 4.182,-20.862 4.062,-21.71C3.94,-22.572 3.921,-23.193 4.003,-23.573C4.118,-24.113 4.441,-24.42 4.972,-24.496C5.32,-24.545 5.602,-24.498 5.818,-24.356C6.034,-24.213 6.211,-23.974 6.35,-23.639L5.751,-23.288C5.675,-23.5 5.603,-23.645 5.533,-23.721C5.419,-23.846 5.269,-23.896 5.081,-23.869C4.827,-23.833 4.685,-23.633 4.654,-23.269C4.632,-23.006 4.671,-22.523 4.771,-21.817C4.843,-21.309 4.914,-20.939 4.983,-20.707C5.147,-20.161 5.365,-19.907 5.637,-19.946C5.815,-19.971 5.937,-20.048 6.001,-20.175C6.1,-20.376 6.112,-20.742 6.036,-21.273L5.997,-21.547L5.435,-21.468L5.353,-22.05ZM8.89,-19.833L8.828,-20.268L8.815,-20.266C8.767,-20.087 8.708,-19.958 8.637,-19.879C8.552,-19.776 8.426,-19.713 8.261,-19.689C7.73,-19.614 7.38,-20.172 7.212,-21.364C7.051,-22.498 7.243,-23.103 7.788,-23.18C8.06,-23.219 8.281,-23.104 8.451,-22.837L8.464,-22.839L8.411,-23.214L9.04,-23.303L9.519,-19.922L8.89,-19.833ZM8.443,-20.289C8.706,-20.326 8.782,-20.74 8.67,-21.53C8.559,-22.315 8.372,-22.689 8.108,-22.652C7.907,-22.623 7.803,-22.443 7.796,-22.109C7.792,-21.977 7.813,-21.745 7.86,-21.415C7.907,-21.08 7.951,-20.85 7.992,-20.723C8.092,-20.405 8.242,-20.26 8.443,-20.289ZM10.348,-23.488L10.407,-23.073L10.421,-23.075C10.519,-23.408 10.718,-23.595 11.017,-23.637C11.352,-23.685 11.577,-23.557 11.693,-23.255L11.706,-23.257C11.805,-23.59 12.015,-23.779 12.336,-23.824C12.831,-23.894 13.118,-23.657 13.195,-23.113L13.565,-20.495L12.936,-20.406L12.6,-22.776C12.553,-23.111 12.416,-23.262 12.188,-23.23C11.992,-23.202 11.88,-23.102 11.855,-22.93C11.843,-22.851 11.854,-22.691 11.889,-22.45L12.193,-20.301L11.564,-20.212L11.238,-22.508C11.213,-22.691 11.179,-22.818 11.137,-22.889C11.07,-23.007 10.956,-23.055 10.795,-23.032C10.621,-23.008 10.52,-22.907 10.49,-22.73C10.475,-22.641 10.484,-22.483 10.516,-22.255L10.82,-20.106L10.191,-20.017L9.712,-23.398L10.348,-23.488ZM16.001,-22.438L14.609,-22.241C14.709,-21.536 14.89,-21.202 15.153,-21.239C15.417,-21.276 15.519,-21.505 15.459,-21.924L16.042,-22.007C16.09,-21.663 16.054,-21.375 15.932,-21.144C15.792,-20.879 15.557,-20.722 15.226,-20.676C14.807,-20.616 14.489,-20.771 14.273,-21.141C14.128,-21.39 14.021,-21.759 13.952,-22.25C13.785,-23.428 14.039,-24.065 14.712,-24.161C15.395,-24.257 15.82,-23.717 15.987,-22.538L16.001,-22.438ZM14.545,-22.689L15.295,-22.795C15.214,-23.367 15.046,-23.634 14.792,-23.598C14.622,-23.574 14.526,-23.449 14.504,-23.223C14.495,-23.126 14.509,-22.948 14.545,-22.689ZM19.184,-21.236C18.474,-21.135 18.038,-21.663 17.874,-22.819C17.709,-23.988 17.981,-24.623 18.69,-24.724C19.4,-24.824 19.837,-24.29 20.003,-23.121C20.167,-21.965 19.894,-21.336 19.184,-21.236ZM19.103,-21.812C19.308,-21.841 19.416,-22.022 19.428,-22.356C19.432,-22.461 19.409,-22.686 19.36,-23.03C19.31,-23.387 19.268,-23.615 19.236,-23.715C19.132,-24.033 18.977,-24.177 18.772,-24.148C18.571,-24.12 18.465,-23.938 18.453,-23.604C18.449,-23.472 18.47,-23.24 18.517,-22.91C18.562,-22.593 18.604,-22.372 18.645,-22.245C18.749,-21.928 18.902,-21.783 19.103,-21.812ZM20.15,-24.876L20.465,-24.921L20.311,-26.012C20.259,-26.373 20.26,-26.64 20.314,-26.811C20.392,-27.063 20.591,-27.212 20.913,-27.258C21.047,-27.277 21.192,-27.266 21.348,-27.224L21.441,-26.568C21.335,-26.607 21.244,-26.622 21.168,-26.611C21.03,-26.592 20.949,-26.516 20.927,-26.386C20.917,-26.325 20.925,-26.206 20.95,-26.027L21.094,-25.01L21.617,-25.084L21.687,-24.588L21.165,-24.514L21.573,-21.629L20.944,-21.54L20.535,-24.425L20.221,-24.381L20.15,-24.876ZM99.606,-30.83L100.492,-30.956L100.525,-30.723L100.223,-30.68L100.476,-28.894L100.208,-28.856L99.955,-30.642L99.639,-30.597L99.606,-30.83ZM100.723,-30.988L100.953,-31.021L101.446,-29.605L101.451,-29.605L101.447,-29.69L101.459,-30.186L101.507,-31.099L101.743,-31.133L102.216,-29.14L101.954,-29.103L101.799,-29.849L101.73,-30.221L101.687,-30.486L101.682,-30.485L101.677,-30.189L101.625,-29.056L101.44,-29.03L100.983,-30.386L100.977,-30.385L101.097,-28.982L100.843,-28.946L100.723,-30.988ZM10.865,7.157L10.826,6.882L10.818,6.883C10.788,6.997 10.75,7.078 10.706,7.127C10.652,7.192 10.573,7.232 10.468,7.247C10.133,7.295 9.912,6.942 9.806,6.19C9.705,5.475 9.826,5.093 10.169,5.044C10.341,5.02 10.481,5.092 10.588,5.261L10.596,5.26L10.563,5.023L10.96,4.967L11.262,7.1L10.865,7.157ZM10.583,6.869C10.749,6.845 10.797,6.584 10.726,6.086C10.656,5.59 10.538,5.354 10.372,5.378C10.245,5.396 10.179,5.51 10.175,5.72C10.172,5.804 10.186,5.95 10.215,6.158C10.245,6.37 10.273,6.515 10.298,6.595C10.361,6.795 10.456,6.887 10.583,6.869ZM13.158,4.694L13.215,5.096L13.206,5.097C13.152,5.036 13.085,5.011 13.006,5.022C12.772,5.055 12.689,5.308 12.756,5.781C12.827,6.28 12.976,6.513 13.204,6.481C13.266,6.472 13.33,6.435 13.396,6.372L13.448,6.739C13.36,6.809 13.257,6.852 13.138,6.869C12.719,6.929 12.458,6.598 12.356,5.877C12.25,5.13 12.409,4.727 12.831,4.667C12.944,4.651 13.053,4.66 13.158,4.694ZM14.393,6.691C13.945,6.755 13.67,6.422 13.567,5.692C13.462,4.954 13.634,4.554 14.082,4.49C14.529,4.427 14.805,4.764 14.91,5.502C15.013,6.232 14.841,6.628 14.393,6.691ZM14.342,6.328C14.471,6.31 14.54,6.195 14.547,5.984C14.549,5.918 14.535,5.776 14.504,5.56C14.473,5.334 14.446,5.19 14.426,5.127C14.36,4.926 14.263,4.835 14.133,4.854C14.006,4.872 13.939,4.986 13.932,5.197C13.929,5.28 13.943,5.427 13.972,5.635C14,5.835 14.027,5.975 14.053,6.054C14.119,6.255 14.215,6.346 14.342,6.328ZM15.497,4.324L15.534,4.586L15.543,4.585C15.605,4.375 15.731,4.257 15.919,4.23C16.131,4.2 16.273,4.281 16.346,4.471L16.354,4.47C16.416,4.26 16.549,4.141 16.752,4.112C17.064,4.068 17.245,4.218 17.293,4.561L17.527,6.213L17.13,6.269L16.918,4.774C16.889,4.563 16.802,4.467 16.658,4.488C16.534,4.505 16.464,4.568 16.448,4.677C16.441,4.727 16.448,4.828 16.469,4.98L16.661,6.336L16.264,6.392L16.059,4.943C16.043,4.827 16.021,4.747 15.995,4.702C15.953,4.628 15.881,4.598 15.779,4.612C15.67,4.627 15.605,4.691 15.587,4.803C15.577,4.859 15.583,4.959 15.603,5.102L15.795,6.458L15.398,6.515L15.096,4.381L15.497,4.324ZM18.057,3.962L18.096,4.237L18.104,4.235C18.163,4.017 18.279,3.896 18.454,3.871C18.789,3.824 19.009,4.175 19.116,4.924C19.217,5.642 19.096,6.026 18.753,6.074C18.584,6.098 18.444,6.024 18.334,5.853L18.325,5.855L18.483,6.97L18.086,7.026L17.66,4.018L18.057,3.962ZM18.55,5.741C18.66,5.725 18.723,5.634 18.74,5.468C18.751,5.363 18.74,5.194 18.707,4.96C18.677,4.752 18.65,4.606 18.624,4.524C18.561,4.323 18.466,4.232 18.339,4.249C18.173,4.273 18.125,4.534 18.196,5.033C18.266,5.528 18.384,5.764 18.55,5.741ZM20.724,4.752L19.845,4.877C19.908,5.322 20.023,5.532 20.189,5.509C20.355,5.485 20.42,5.341 20.382,5.076L20.75,5.024C20.78,5.241 20.757,5.423 20.68,5.569C20.592,5.736 20.444,5.835 20.235,5.864C19.97,5.902 19.77,5.804 19.633,5.57C19.542,5.414 19.475,5.18 19.431,4.871C19.325,4.127 19.485,3.725 19.911,3.665C20.342,3.604 20.61,3.945 20.715,4.689L20.724,4.752ZM19.805,4.594L20.278,4.527C20.227,4.166 20.122,3.997 19.961,4.02C19.854,4.035 19.793,4.114 19.779,4.257C19.773,4.318 19.782,4.43 19.805,4.594ZM21.098,2.131L21.595,5.637L21.198,5.693L20.701,2.187L21.098,2.131ZM21.937,2.012L22.433,5.518L22.036,5.575L21.54,2.068L21.937,2.012ZM22.97,3.266L23.272,5.4L22.875,5.456L22.573,3.323L22.97,3.266ZM22.722,2.914C22.649,2.924 22.582,2.908 22.521,2.864C22.463,2.818 22.428,2.758 22.418,2.685C22.408,2.612 22.424,2.546 22.468,2.488C22.514,2.43 22.574,2.396 22.647,2.385C22.717,2.376 22.782,2.394 22.84,2.44C22.901,2.483 22.936,2.54 22.946,2.61C22.956,2.684 22.94,2.751 22.897,2.811C22.853,2.869 22.795,2.903 22.722,2.914ZM23.813,3.147L23.848,3.392L23.856,3.391C23.925,3.191 24.056,3.078 24.247,3.051C24.436,3.024 24.572,3.082 24.656,3.226C24.709,3.316 24.751,3.471 24.782,3.691L24.989,5.157L24.592,5.213L24.384,3.738C24.352,3.513 24.257,3.412 24.099,3.434C23.986,3.45 23.921,3.518 23.904,3.638C23.897,3.691 23.905,3.795 23.926,3.95L24.115,5.28L23.718,5.337L23.416,3.203L23.813,3.147ZM26.379,2.784L26.684,4.934C26.727,5.238 26.723,5.457 26.673,5.59C26.601,5.77 26.43,5.879 26.159,5.917C25.962,5.945 25.8,5.914 25.672,5.823C25.547,5.731 25.471,5.587 25.443,5.39L25.434,5.331L25.819,5.276C25.826,5.367 25.855,5.441 25.906,5.497C25.96,5.552 26.03,5.574 26.118,5.561C26.233,5.545 26.299,5.484 26.316,5.378C26.323,5.331 26.316,5.23 26.294,5.075L26.244,4.72L26.236,4.722C26.201,4.925 26.088,5.038 25.896,5.063C25.676,5.091 25.508,4.975 25.39,4.716C25.32,4.563 25.264,4.341 25.223,4.05C25.179,3.743 25.167,3.513 25.185,3.358C25.22,3.06 25.351,2.895 25.576,2.863C25.739,2.84 25.883,2.917 26.005,3.095L26.013,3.085L25.978,2.84L26.379,2.784ZM26.135,3.917C26.063,3.413 25.942,3.173 25.77,3.197C25.655,3.214 25.593,3.327 25.586,3.538C25.583,3.622 25.596,3.765 25.625,3.968C25.653,4.165 25.682,4.31 25.712,4.403C25.779,4.61 25.873,4.704 25.994,4.687C26.118,4.669 26.181,4.557 26.183,4.35C26.184,4.295 26.168,4.151 26.135,3.917ZM28.073,2.544L28.111,2.806L28.119,2.804C28.181,2.594 28.307,2.476 28.495,2.449C28.707,2.42 28.849,2.5 28.922,2.691L28.93,2.69C28.992,2.48 29.125,2.36 29.328,2.332C29.64,2.287 29.821,2.437 29.87,2.781L30.103,4.432L29.706,4.489L29.495,2.993C29.465,2.782 29.378,2.686 29.234,2.707C29.11,2.724 29.04,2.787 29.024,2.896C29.017,2.946 29.024,3.047 29.045,3.199L29.237,4.555L28.84,4.611L28.635,3.162C28.619,3.047 28.597,2.966 28.571,2.921C28.529,2.847 28.457,2.817 28.355,2.831C28.246,2.847 28.181,2.91 28.163,3.022C28.153,3.078 28.159,3.178 28.179,3.322L28.371,4.678L27.974,4.734L27.672,2.6L28.073,2.544ZM30.646,2.179L30.948,4.313L30.551,4.369L30.249,2.236L30.646,2.179ZM30.398,1.827C30.325,1.837 30.258,1.821 30.197,1.778C30.139,1.731 30.105,1.671 30.094,1.598C30.084,1.525 30.1,1.459 30.144,1.402C30.19,1.343 30.25,1.309 30.323,1.299C30.394,1.289 30.458,1.307 30.516,1.353C30.577,1.396 30.612,1.453 30.622,1.523C30.633,1.597 30.616,1.664 30.573,1.724C30.53,1.782 30.471,1.816 30.398,1.827ZM30.972,2.133L31.436,2.067L31.84,2.756L31.896,2.425L32.011,1.986L32.425,1.927L32.086,3.001L32.828,4.047L32.359,4.113L32.083,3.682C31.98,3.522 31.914,3.393 31.886,3.297L31.878,3.298C31.884,3.406 31.859,3.569 31.8,3.787L31.688,4.208L31.274,4.267L31.646,3.063L30.972,2.133ZM34.477,3.848C34.029,3.911 33.753,3.578 33.65,2.849C33.545,2.111 33.717,1.71 34.165,1.647C34.613,1.583 34.889,1.92 34.993,2.658C35.097,3.388 34.924,3.784 34.477,3.848ZM34.425,3.484C34.555,3.466 34.623,3.351 34.631,3.141C34.633,3.074 34.618,2.933 34.588,2.716C34.556,2.491 34.53,2.346 34.509,2.283C34.444,2.083 34.346,1.992 34.216,2.01C34.09,2.028 34.022,2.142 34.015,2.353C34.012,2.437 34.026,2.583 34.055,2.791C34.084,2.991 34.111,3.131 34.136,3.211C34.202,3.411 34.298,3.502 34.425,3.484ZM35.091,1.55L35.289,1.522L35.192,0.833C35.159,0.605 35.16,0.437 35.194,0.329C35.243,0.17 35.369,0.076 35.572,0.047C35.656,0.035 35.748,0.042 35.846,0.068L35.905,0.482C35.838,0.457 35.781,0.448 35.733,0.455C35.646,0.467 35.595,0.515 35.581,0.597C35.575,0.635 35.579,0.711 35.595,0.824L35.686,1.466L36.016,1.419L36.06,1.732L35.731,1.778L35.988,3.599L35.591,3.655L35.334,1.835L35.135,1.863L35.091,1.55ZM37.99,1.178L38.047,1.58L38.038,1.581C37.984,1.52 37.917,1.495 37.838,1.506C37.604,1.539 37.521,1.792 37.588,2.265C37.659,2.764 37.808,2.997 38.036,2.964C38.098,2.956 38.162,2.919 38.227,2.855L38.28,3.223C38.192,3.293 38.089,3.336 37.97,3.353C37.551,3.412 37.29,3.082 37.188,2.361C37.082,1.614 37.24,1.211 37.663,1.151C37.776,1.135 37.885,1.144 37.99,1.178ZM38.085,-0.275L38.483,-0.331L38.712,1.287L38.72,1.286C38.79,1.087 38.92,0.973 39.112,0.946C39.3,0.919 39.436,0.978 39.52,1.121C39.573,1.211 39.615,1.366 39.646,1.586L39.854,3.052L39.457,3.108L39.248,1.634C39.216,1.408 39.121,1.307 38.963,1.329C38.851,1.345 38.786,1.413 38.768,1.534C38.761,1.586 38.769,1.69 38.791,1.845L38.979,3.176L38.582,3.232L38.085,-0.275ZM41.128,2.871L41.089,2.597L41.081,2.598C41.051,2.711 41.013,2.793 40.969,2.842C40.915,2.907 40.836,2.947 40.731,2.962C40.396,3.01 40.175,2.657 40.069,1.905C39.968,1.19 40.089,0.808 40.432,0.759C40.604,0.735 40.744,0.807 40.851,0.976L40.859,0.975L40.826,0.738L41.223,0.682L41.525,2.815L41.128,2.871ZM40.846,2.584C41.012,2.56 41.06,2.299 40.989,1.801C40.919,1.305 40.801,1.069 40.635,1.093C40.508,1.11 40.442,1.225 40.438,1.435C40.435,1.519 40.449,1.665 40.478,1.873C40.508,2.084 40.536,2.23 40.561,2.31C40.624,2.51 40.719,2.602 40.846,2.584ZM42.572,2.701C42.124,2.765 41.849,2.432 41.745,1.702C41.641,0.964 41.812,0.564 42.26,0.5C42.708,0.437 42.984,0.774 43.089,1.512C43.192,2.242 43.02,2.638 42.572,2.701ZM42.52,2.338C42.65,2.32 42.719,2.205 42.726,1.994C42.728,1.928 42.714,1.786 42.683,1.57C42.651,1.344 42.625,1.2 42.605,1.137C42.539,0.936 42.441,0.845 42.312,0.864C42.185,0.882 42.118,0.996 42.11,1.207C42.108,1.29 42.121,1.437 42.151,1.645C42.179,1.845 42.206,1.985 42.232,2.064C42.298,2.265 42.394,2.356 42.52,2.338ZM44.094,0.335L44.148,0.711C44.052,0.647 43.948,0.623 43.836,0.639C43.762,0.65 43.702,0.68 43.655,0.73C43.607,0.777 43.588,0.835 43.598,0.906C43.614,0.998 43.686,1.083 43.814,1.159C44.028,1.284 44.145,1.355 44.168,1.372C44.301,1.483 44.38,1.624 44.404,1.796C44.431,1.984 44.398,2.146 44.305,2.279C44.211,2.41 44.07,2.489 43.882,2.516C43.763,2.533 43.643,2.515 43.521,2.464L43.466,2.075C43.591,2.149 43.707,2.179 43.814,2.164C43.992,2.138 44.068,2.036 44.042,1.855C44.03,1.765 43.951,1.67 43.808,1.57L43.469,1.368C43.336,1.263 43.258,1.126 43.234,0.957C43.21,0.788 43.243,0.641 43.331,0.517C43.423,0.392 43.553,0.317 43.722,0.293C43.857,0.274 43.981,0.288 44.094,0.335ZM44.899,1.881L45.256,1.938L45.005,3.115L44.781,3.087L44.899,1.881ZM47.085,-0.088L47.139,0.288C47.043,0.224 46.939,0.2 46.827,0.216C46.753,0.226 46.693,0.256 46.646,0.306C46.598,0.353 46.579,0.412 46.589,0.482C46.605,0.575 46.677,0.659 46.806,0.736C47.019,0.861 47.136,0.932 47.159,0.949C47.292,1.059 47.371,1.2 47.396,1.372C47.422,1.561 47.389,1.722 47.296,1.856C47.202,1.987 47.061,2.066 46.873,2.092C46.754,2.109 46.634,2.092 46.512,2.04L46.457,1.651C46.582,1.726 46.699,1.755 46.806,1.74C46.983,1.715 47.059,1.612 47.033,1.432C47.021,1.342 46.943,1.247 46.799,1.146L46.46,0.944C46.328,0.839 46.249,0.703 46.225,0.534C46.201,0.365 46.234,0.218 46.322,0.093C46.414,-0.032 46.544,-0.106 46.713,-0.13C46.848,-0.149 46.972,-0.135 47.085,-0.088ZM47.532,-0.828L47.929,-0.884L48.014,-0.28L48.226,-0.31L48.27,0.003L48.059,0.033L48.317,1.854L47.919,1.91L47.662,0.089L47.446,0.119L47.402,-0.193L47.617,-0.224L47.532,-0.828ZM48.878,-0.402L48.915,-0.14L48.924,-0.141C48.994,-0.353 49.131,-0.473 49.334,-0.501L49.39,-0.108L49.321,-0.103C49.06,-0.083 48.951,0.08 48.994,0.387L49.185,1.731L48.783,1.787L48.481,-0.346L48.878,-0.402ZM50.771,1.506L50.732,1.231L50.723,1.233C50.693,1.346 50.656,1.427 50.611,1.477C50.557,1.542 50.478,1.582 50.374,1.597C50.039,1.644 49.818,1.292 49.712,0.54C49.61,-0.176 49.732,-0.558 50.075,-0.606C50.247,-0.631 50.386,-0.558 50.494,-0.39L50.502,-0.391L50.469,-0.627L50.866,-0.684L51.168,1.45L50.771,1.506ZM50.489,1.218C50.655,1.195 50.703,0.934 50.632,0.435C50.562,-0.06 50.444,-0.296 50.277,-0.273C50.151,-0.255 50.085,-0.141 50.08,0.07C50.078,0.153 50.091,0.299 50.121,0.508C50.151,0.719 50.179,0.864 50.204,0.944C50.267,1.145 50.362,1.236 50.489,1.218ZM51.289,-1.36L51.686,-1.416L51.772,-0.812L51.983,-0.842L52.027,-0.529L51.816,-0.499L52.074,1.322L51.677,1.378L51.419,-0.443L51.204,-0.413L51.159,-0.725L51.375,-0.756L51.289,-1.36ZM53.612,0.095L52.733,0.22C52.796,0.665 52.911,0.876 53.077,0.852C53.243,0.828 53.307,0.684 53.27,0.42L53.637,0.368C53.668,0.584 53.645,0.766 53.568,0.912C53.479,1.079 53.331,1.178 53.123,1.207C52.858,1.245 52.657,1.147 52.521,0.913C52.43,0.757 52.362,0.524 52.318,0.214C52.213,-0.53 52.373,-0.932 52.798,-0.992C53.229,-1.053 53.497,-0.712 53.603,0.032L53.612,0.095ZM52.693,-0.063L53.166,-0.13C53.115,-0.491 53.009,-0.66 52.849,-0.637C52.742,-0.622 52.681,-0.543 52.667,-0.4C52.661,-0.339 52.67,-0.227 52.693,-0.063ZM55.044,-1.275L55.349,0.875C55.392,1.179 55.388,1.398 55.338,1.532C55.266,1.711 55.095,1.82 54.824,1.859C54.627,1.886 54.465,1.855 54.337,1.764C54.212,1.672 54.136,1.528 54.108,1.331L54.099,1.272L54.484,1.217C54.491,1.308 54.52,1.382 54.571,1.438C54.625,1.493 54.695,1.515 54.783,1.503C54.898,1.486 54.964,1.425 54.981,1.319C54.989,1.272 54.981,1.171 54.959,1.016L54.909,0.661L54.901,0.663C54.866,0.866 54.753,0.98 54.561,1.004C54.341,1.032 54.173,0.917 54.055,0.657C53.985,0.504 53.929,0.282 53.888,-0.008C53.844,-0.315 53.832,-0.546 53.85,-0.701C53.885,-0.999 54.016,-1.164 54.241,-1.196C54.404,-1.219 54.548,-1.142 54.67,-0.964L54.678,-0.973L54.643,-1.218L55.044,-1.275ZM54.8,-0.142C54.728,-0.646 54.607,-0.886 54.435,-0.862C54.32,-0.845 54.258,-0.732 54.251,-0.521C54.248,-0.437 54.261,-0.294 54.29,-0.091C54.318,0.106 54.347,0.251 54.377,0.345C54.444,0.551 54.538,0.645 54.659,0.628C54.783,0.61 54.846,0.498 54.848,0.291C54.849,0.236 54.833,0.092 54.8,-0.142ZM55.287,-1.31L55.731,-1.373L56.254,0.07L56.263,0.069L56.411,-1.469L56.812,-1.526L56.368,1.606L55.95,1.665L56.131,0.57L55.287,-1.31ZM57.219,0.136L57.576,0.193L57.325,1.371L57.101,1.342L57.219,0.136ZM59.737,0.236L59.698,-0.038L59.689,-0.037C59.66,0.076 59.622,0.158 59.577,0.207C59.524,0.272 59.444,0.312 59.34,0.327C59.005,0.375 58.784,0.022 58.678,-0.73C58.576,-1.445 58.698,-1.827 59.041,-1.876C59.213,-1.9 59.353,-1.828 59.46,-1.659L59.468,-1.66L59.435,-1.897L59.832,-1.953L60.134,0.18L59.737,0.236ZM59.455,-0.051C59.621,-0.075 59.669,-0.336 59.598,-0.834C59.528,-1.33 59.41,-1.566 59.244,-1.542C59.117,-1.524 59.051,-1.41 59.046,-1.2C59.044,-1.116 59.057,-0.97 59.087,-0.762C59.117,-0.551 59.145,-0.405 59.17,-0.325C59.233,-0.125 59.328,-0.033 59.455,-0.051ZM60.664,-2.071L60.699,-1.826L60.707,-1.827C60.777,-2.027 60.907,-2.14 61.099,-2.167C61.287,-2.194 61.423,-2.135 61.507,-1.992C61.56,-1.902 61.602,-1.747 61.633,-1.527L61.841,-0.061L61.444,-0.005L61.235,-1.48C61.203,-1.705 61.108,-1.806 60.95,-1.784C60.838,-1.768 60.773,-1.7 60.755,-1.58C60.748,-1.527 60.756,-1.423 60.778,-1.268L60.966,0.062L60.569,0.119L60.267,-2.015L60.664,-2.071ZM63.117,-0.242L63.078,-0.517L63.069,-0.515C63.008,-0.297 62.892,-0.176 62.72,-0.151C62.385,-0.104 62.164,-0.456 62.057,-1.208C61.956,-1.924 62.077,-2.306 62.421,-2.354C62.584,-2.377 62.724,-2.305 62.839,-2.138L62.848,-2.139L62.62,-3.749L63.017,-3.805L63.514,-0.298L63.117,-0.242ZM62.834,-0.53C63.001,-0.553 63.048,-0.814 62.978,-1.313C62.908,-1.808 62.789,-2.044 62.623,-2.021C62.497,-2.003 62.431,-1.889 62.426,-1.678C62.424,-1.595 62.437,-1.449 62.467,-1.24C62.497,-1.029 62.524,-0.884 62.55,-0.804C62.613,-0.603 62.708,-0.512 62.834,-0.53ZM65.407,-2.704L65.463,-2.302L65.455,-2.301C65.4,-2.362 65.334,-2.387 65.255,-2.376C65.021,-2.343 64.938,-2.09 65.005,-1.617C65.075,-1.118 65.225,-0.885 65.453,-0.918C65.515,-0.926 65.578,-0.963 65.644,-1.027L65.696,-0.659C65.608,-0.589 65.505,-0.546 65.387,-0.529C64.967,-0.47 64.706,-0.8 64.604,-1.521C64.499,-2.268 64.657,-2.671 65.08,-2.731C65.192,-2.747 65.301,-2.738 65.407,-2.704ZM66.646,-0.707C66.198,-0.644 65.923,-0.977 65.819,-1.706C65.715,-2.444 65.887,-2.845 66.334,-2.908C66.782,-2.972 67.058,-2.635 67.163,-1.897C67.266,-1.167 67.094,-0.771 66.646,-0.707ZM66.595,-1.071C66.724,-1.089 66.793,-1.204 66.8,-1.414C66.802,-1.481 66.788,-1.622 66.757,-1.839C66.725,-2.065 66.699,-2.209 66.679,-2.272C66.613,-2.472 66.515,-2.563 66.386,-2.545C66.259,-2.527 66.192,-2.413 66.185,-2.202C66.182,-2.118 66.196,-1.972 66.225,-1.764C66.253,-1.564 66.28,-1.424 66.306,-1.344C66.372,-1.144 66.468,-1.053 66.595,-1.071ZM67.755,-3.075L67.789,-2.83L67.798,-2.831C67.867,-3.031 67.998,-3.144 68.189,-3.171C68.378,-3.198 68.514,-3.139 68.598,-2.996C68.651,-2.906 68.693,-2.751 68.724,-2.531L68.931,-1.065L68.534,-1.009L68.325,-2.484C68.293,-2.709 68.199,-2.81 68.041,-2.788C67.928,-2.772 67.863,-2.704 67.846,-2.584C67.839,-2.531 67.846,-2.427 67.868,-2.272L68.057,-0.942L67.66,-0.885L67.358,-3.019L67.755,-3.075ZM68.908,-3.238L69.331,-3.298L69.846,-1.725L69.855,-1.726L69.85,-1.855L69.884,-2.739L69.926,-3.383L70.311,-3.437L70.051,-1.224L69.789,-1.187L68.908,-3.238ZM71.831,-2.484L70.952,-2.36C71.015,-1.915 71.13,-1.704 71.296,-1.728C71.462,-1.751 71.527,-1.895 71.489,-2.16L71.857,-2.212C71.887,-1.995 71.864,-1.814 71.787,-1.668C71.699,-1.5 71.551,-1.402 71.342,-1.372C71.077,-1.335 70.877,-1.433 70.74,-1.666C70.649,-1.823 70.582,-2.056 70.538,-2.366C70.433,-3.109 70.593,-3.511 71.018,-3.572C71.449,-3.633 71.717,-3.291 71.822,-2.548L71.831,-2.484ZM70.912,-2.643L71.385,-2.71C71.334,-3.071 71.229,-3.239 71.068,-3.217C70.961,-3.202 70.9,-3.123 70.886,-2.98C70.88,-2.919 70.889,-2.806 70.912,-2.643ZM72.402,-3.733L72.437,-3.488L72.445,-3.489C72.515,-3.689 72.645,-3.802 72.837,-3.829C73.025,-3.856 73.161,-3.798 73.245,-3.654C73.298,-3.564 73.34,-3.409 73.371,-3.189L73.579,-1.723L73.181,-1.667L72.973,-3.142C72.941,-3.367 72.846,-3.468 72.688,-3.446C72.576,-3.43 72.511,-3.362 72.493,-3.242C72.486,-3.189 72.494,-3.085 72.516,-2.93L72.704,-1.6L72.307,-1.543L72.005,-3.677L72.402,-3.733ZM74.113,-3.975L74.415,-1.842L74.018,-1.786L73.716,-3.919L74.113,-3.975ZM73.865,-4.328C73.792,-4.318 73.725,-4.334 73.664,-4.377C73.606,-4.424 73.571,-4.483 73.561,-4.557C73.551,-4.63 73.567,-4.695 73.611,-4.753C73.657,-4.811 73.717,-4.846 73.79,-4.856C73.86,-4.866 73.925,-4.848 73.983,-4.802C74.044,-4.758 74.079,-4.702 74.089,-4.631C74.099,-4.558 74.083,-4.491 74.04,-4.43C73.996,-4.373 73.938,-4.338 73.865,-4.328ZM75.94,-3.066L75.061,-2.942C75.124,-2.497 75.238,-2.286 75.405,-2.31C75.571,-2.333 75.635,-2.477 75.598,-2.742L75.965,-2.794C75.996,-2.577 75.973,-2.396 75.896,-2.25C75.807,-2.082 75.659,-1.984 75.451,-1.954C75.186,-1.917 74.985,-2.015 74.849,-2.248C74.758,-2.405 74.69,-2.638 74.646,-2.948C74.541,-3.691 74.701,-4.093 75.126,-4.153C75.557,-4.214 75.825,-3.873 75.931,-3.13L75.94,-3.066ZM75.021,-3.225L75.494,-3.292C75.443,-3.652 75.337,-3.821 75.177,-3.798C75.07,-3.783 75.009,-3.704 74.995,-3.562C74.989,-3.5 74.998,-3.388 75.021,-3.225ZM76.513,-4.315L76.547,-4.07L76.556,-4.071C76.625,-4.271 76.756,-4.384 76.947,-4.411C77.136,-4.438 77.272,-4.38 77.355,-4.236C77.408,-4.146 77.451,-3.991 77.482,-3.771L77.689,-2.305L77.292,-2.249L77.083,-3.724C77.051,-3.949 76.957,-4.05 76.799,-4.028C76.686,-4.012 76.621,-3.944 76.604,-3.824C76.597,-3.771 76.604,-3.667 76.626,-3.512L76.815,-2.182L76.418,-2.125L76.115,-4.259L76.513,-4.315ZM77.821,-5.117L78.218,-5.173L78.304,-4.569L78.515,-4.599L78.559,-4.286L78.348,-4.256L78.606,-2.435L78.209,-2.379L77.951,-4.2L77.736,-4.169L77.691,-4.482L77.907,-4.513L77.821,-5.117ZM80.782,-2.743L80.743,-3.018L80.734,-3.017C80.704,-2.903 80.667,-2.822 80.622,-2.773C80.568,-2.707 80.489,-2.668 80.385,-2.653C80.05,-2.605 79.829,-2.958 79.723,-3.71C79.621,-4.425 79.743,-4.807 80.086,-4.856C80.258,-4.88 80.397,-4.808 80.505,-4.639L80.513,-4.64L80.48,-4.877L80.877,-4.933L81.179,-2.8L80.782,-2.743ZM80.5,-3.031C80.666,-3.054 80.714,-3.316 80.643,-3.814C80.573,-4.31 80.455,-4.546 80.288,-4.522C80.162,-4.504 80.096,-4.39 80.091,-4.18C80.089,-4.096 80.102,-3.95 80.132,-3.742C80.162,-3.53 80.19,-3.385 80.215,-3.305C80.278,-3.104 80.373,-3.013 80.5,-3.031ZM81.516,-6.424L82.012,-2.918L81.615,-2.861L81.119,-6.368L81.516,-6.424ZM82.35,-6.542L82.846,-3.036L82.449,-2.979L81.953,-6.486L82.35,-6.542ZM83.378,-5.287L83.68,-3.154L83.283,-3.098L82.981,-5.231L83.378,-5.287ZM83.13,-5.64C83.056,-5.63 82.989,-5.646 82.929,-5.689C82.87,-5.735 82.836,-5.795 82.826,-5.868C82.815,-5.942 82.832,-6.007 82.875,-6.065C82.922,-6.123 82.982,-6.158 83.055,-6.168C83.125,-6.178 83.19,-6.16 83.248,-6.113C83.308,-6.07 83.344,-6.014 83.354,-5.943C83.364,-5.87 83.348,-5.803 83.305,-5.742C83.261,-5.684 83.203,-5.65 83.13,-5.64ZM84.961,-3.335L84.922,-3.61L84.914,-3.609C84.884,-3.495 84.847,-3.414 84.802,-3.364C84.748,-3.299 84.669,-3.259 84.565,-3.245C84.23,-3.197 84.009,-3.549 83.902,-4.301C83.801,-5.017 83.922,-5.399 84.266,-5.447C84.438,-5.472 84.577,-5.4 84.684,-5.231L84.693,-5.232L84.659,-5.469L85.056,-5.525L85.358,-3.391L84.961,-3.335ZM84.679,-3.623C84.845,-3.646 84.893,-3.907 84.823,-4.406C84.752,-4.902 84.634,-5.138 84.468,-5.114C84.341,-5.096 84.276,-4.982 84.271,-4.772C84.268,-4.688 84.282,-4.542 84.311,-4.333C84.341,-4.122 84.369,-3.977 84.395,-3.897C84.458,-3.696 84.553,-3.605 84.679,-3.623ZM85.894,-5.644L85.929,-5.399L85.937,-5.4C86.007,-5.599 86.137,-5.712 86.329,-5.74C86.518,-5.766 86.654,-5.708 86.737,-5.565C86.79,-5.474 86.832,-5.32 86.863,-5.1L87.071,-3.634L86.674,-3.578L86.465,-5.052C86.433,-5.277 86.338,-5.379 86.181,-5.357C86.068,-5.341 86.003,-5.273 85.985,-5.152C85.978,-5.1 85.986,-4.996 86.008,-4.841L86.196,-3.51L85.799,-3.454L85.497,-5.587L85.894,-5.644ZM88.102,-5.917L88.159,-5.516L88.15,-5.515C88.096,-5.576 88.029,-5.601 87.95,-5.59C87.716,-5.557 87.633,-5.304 87.7,-4.831C87.771,-4.332 87.92,-4.099 88.148,-4.131C88.21,-4.14 88.274,-4.176 88.34,-4.24L88.392,-3.873C88.304,-3.803 88.201,-3.759 88.083,-3.743C87.663,-3.683 87.402,-4.014 87.3,-4.735C87.194,-5.481 87.353,-5.885 87.775,-5.944C87.888,-5.96 87.997,-5.951 88.102,-5.917ZM89.8,-5.029L88.921,-4.904C88.984,-4.459 89.098,-4.249 89.265,-4.272C89.431,-4.296 89.495,-4.44 89.458,-4.704L89.825,-4.756C89.856,-4.54 89.833,-4.358 89.756,-4.212C89.667,-4.045 89.519,-3.946 89.311,-3.917C89.046,-3.879 88.845,-3.977 88.709,-4.211C88.618,-4.367 88.55,-4.6 88.506,-4.91C88.401,-5.654 88.561,-6.056 88.986,-6.116C89.417,-6.177 89.685,-5.836 89.791,-5.092L89.8,-5.029ZM88.881,-5.187L89.354,-5.254C89.303,-5.615 89.197,-5.784 89.037,-5.761C88.93,-5.746 88.869,-5.667 88.855,-5.524C88.849,-5.463 88.858,-5.351 88.881,-5.187ZM90.785,-6.276L90.838,-5.9C90.743,-5.964 90.639,-5.988 90.527,-5.972C90.453,-5.962 90.393,-5.931 90.345,-5.882C90.298,-5.835 90.279,-5.776 90.289,-5.706C90.305,-5.613 90.377,-5.528 90.505,-5.452C90.718,-5.327 90.836,-5.256 90.859,-5.239C90.992,-5.129 91.071,-4.987 91.095,-4.816C91.122,-4.627 91.089,-4.466 90.996,-4.332C90.902,-4.201 90.761,-4.122 90.573,-4.095C90.454,-4.078 90.334,-4.096 90.212,-4.148L90.157,-4.536C90.282,-4.462 90.398,-4.433 90.505,-4.448C90.683,-4.473 90.759,-4.576 90.733,-4.756C90.721,-4.846 90.642,-4.941 90.499,-5.042L90.16,-5.243C90.027,-5.348 89.949,-5.485 89.925,-5.654C89.901,-5.823 89.934,-5.97 90.022,-6.094C90.114,-6.219 90.244,-6.294 90.413,-6.318C90.548,-6.337 90.672,-6.323 90.785,-6.276Z" style="fill:rgb(55,53,53);"/>
    </g>
</svg>
