<?xml version="1.0" encoding="UTF-8" standalone="no"?>
<!DOCTYPE svg PUBLIC "-//W3C//DTD SVG 1.1//EN" "http://www.w3.org/Graphics/SVG/1.1/DTD/svg11.dtd">
<svg width="100%" height="100%" viewBox="0 0 266 487" version="1.1" xmlns="http://www.w3.org/2000/svg" xmlns:xlink="http://www.w3.org/1999/xlink" xml:space="preserve" xmlns:serif="http://www.serif.com/" style="fill-rule:evenodd;clip-rule:evenodd;stroke-linejoin:round;stroke-miterlimit:2;">
    <g id="Artboard1" transform="matrix(1.6774,0,0,1,0,0)">
        <rect x="0" y="0" width="158.4" height="486.4" style="fill:none;"/>
        <g>
            <g>
                <g transform="matrix(0.710741,0,0,1.1922,41.4827,-136.881)">
                    <g>
                        <g>
                            <rect x="-69.6" y="-124.2" width="493.8" height="694" style="fill:rgb(102,74,158);"/>
                            <path d="M410.9,-110.9L410.9,556.6L-56.4,556.6L-56.4,-110.9L410.9,-110.9M437.4,-137.4L-82.9,-137.4L-82.9,583.1L437.4,583.1L437.4,-137.4Z" style="fill:rgb(102,74,158);fill-rule:nonzero;"/>
                        </g>
                        <g transform="matrix(0.5862,-0.8101,0.8101,0.5862,-310.412,205.03)">
                            <rect x="23.8" y="356.8" width="43.4" height="99.3" style="fill:rgb(59,34,95);"/>
                        </g>
                        <g transform="matrix(0.5862,-0.8101,0.8101,0.5862,-267.852,211.647)">
                            <rect x="51.6" y="318.4" width="43.4" height="99.3" style="fill:rgb(59,34,95);"/>
                        </g>
                        <g transform="matrix(0.5862,-0.8101,0.8101,0.5862,-225.291,218.263)">
                            <rect x="79.3" y="280" width="43.4" height="99.3" style="fill:rgb(59,34,95);"/>
                        </g>
                        <g transform="matrix(0.5862,-0.8101,0.8101,0.5862,-182.731,224.88)">
                            <rect x="107.1" y="241.7" width="43.4" height="99.3" style="fill:rgb(59,34,95);"/>
                        </g>
                        <g transform="matrix(0.5862,-0.8101,0.8101,0.5862,-140.17,231.496)">
                            <rect x="134.9" y="203.3" width="43.4" height="99.3" style="fill:rgb(59,34,95);"/>
                        </g>
                        <g transform="matrix(0.5862,-0.8101,0.8101,0.5862,-97.6098,238.112)">
                            <rect x="162.6" y="165" width="43.4" height="99.3" style="fill:rgb(59,34,95);"/>
                        </g>
                        <g transform="matrix(0.5862,-0.8101,0.8101,0.5862,-55.0493,244.729)">
                            <rect x="190.4" y="126.6" width="43.4" height="99.3" style="fill:rgb(59,34,95);"/>
                        </g>
                        <g>
                            <path d="M26.4,381.1L32.8,385.7C29.9,386.7 27.9,387.9 26.8,389.5C25.6,391.2 25.1,393.1 25.6,395C26,396.9 27.1,398.6 29,400C30.7,401.2 32.4,401.9 34.2,402C35.1,402.1 36.5,402 38.1,401.9C39.8,401.7 41.9,401.4 44.4,401C49,400.3 52.7,400.2 55.4,400.6C58,401 60.7,402.2 63.5,404.2C67.3,406.9 69.6,410.2 70.5,414.1C71.3,417.9 70.6,421.5 68.2,424.8C66.2,427.6 63.7,429.4 60.7,430.3L54.2,425.6C57.6,424.5 60,423 61.4,421.1C62.7,419.3 63.1,417.5 62.7,415.6C62.2,413.7 61,412.1 59,410.6C57.2,409.3 55.4,408.6 53.4,408.3C52.4,408.2 51.3,408.2 49.9,408.3C48.5,408.4 46.9,408.6 45.1,408.9C42.3,409.4 39.8,409.7 37.8,409.9C35.7,410.1 34.1,410.1 32.7,409.9C30.1,409.6 27.4,408.4 24.6,406.4C20.8,403.7 18.5,400.5 17.7,396.9C16.9,393.3 17.7,389.8 20.1,386.4C21.6,384.3 23.7,382.4 26.4,381.1Z" style="fill:rgb(102,74,158);fill-rule:nonzero;"/>
                        </g>
                        <g>
                            <path d="M72.6,315.1L77.3,308.5L125.9,343.7L121.2,350.3L72.6,315.1Z" style="fill:rgb(102,74,158);fill-rule:nonzero;"/>
                        </g>
                        <g>
                            <path d="M95,284.2L110.4,262.9L116.1,267L110.8,274.3L153.7,305.3L149,311.7L106.1,280.7L100.6,288.3L95,284.2Z" style="fill:rgb(102,74,158);fill-rule:nonzero;"/>
                        </g>
                        <g>
                            <path d="M138.8,225.3L144.7,229.6C142.7,230.7 141.2,231.8 140.4,232.9C139.3,234.5 138.7,236.1 138.7,237.7C138.7,239.4 139.2,241.1 140.2,243C141.3,244.9 142.9,246.9 145.1,249C147.3,251.1 150.1,253.4 153.4,255.8C165.4,264.5 173.6,265.8 178.1,259.6C178.9,258.5 179.5,257 179.9,255L185.9,259.4C185.6,261.6 184.8,263.7 183.4,265.6C176.3,275.5 164.7,274.6 148.6,262.9C139.9,256.6 134.3,250.7 131.8,245.3C129.3,239.8 129.8,234.6 133.4,229.7C134.8,227.8 136.5,226.4 138.8,225.3Z" style="fill:rgb(102,74,158);fill-rule:nonzero;"/>
                        </g>
                        <g>
                            <path d="M149.9,208.4L154.6,201.8L173.6,215.6L180.6,206L161.6,192.2L166.3,185.6L214.9,220.8L210.2,227.4L186.1,210L179.1,219.6L203.2,237L198.5,243.5L149.9,208.4Z" style="fill:rgb(102,74,158);fill-rule:nonzero;"/>
                        </g>
                        <g>
                            <path d="M-32.9,371.7L-26.5,362.8L-24.1,364.5L-26.3,367.6L-8.4,380.5L-10.3,383.2L-28.2,370.3L-30.5,373.5L-32.9,371.7Z" style="fill:rgb(59,34,95);fill-rule:nonzero;"/>
                            <g>
                                <g>
                                    <path d="M-27.6,360L-25.8,357.5L-15.5,364.9C-16.2,363.3 -16.1,362 -15.3,360.8C-14.5,359.7 -13.5,359.2 -12.3,359.4C-11.6,359.5 -10.6,360 -9.2,361.1L0.5,368.1L-1.3,370.6L-10.4,364C-11.3,363.3 -12.1,363 -12.6,362.9C-13.1,362.8 -13.6,363.1 -14,363.6C-14.2,363.9 -14.3,364.2 -14.4,364.4C-14.4,364.7 -14.4,364.9 -14.3,365.2C-14.2,365.5 -13.9,365.8 -13.6,366.1C-13.3,366.4 -12.9,366.8 -12.3,367.1L-3.5,373.5L-5.3,376L-27.6,360Z" style="fill:rgb(59,34,95);fill-rule:nonzero;"/>
                                </g>
                            </g>
                            <g>
                                <g>
                                    <path d="M1.8,356.7L3.5,354.4C6.6,356.9 7.2,359.4 5.4,361.8C4.9,362.5 4.3,363 3.6,363.4C3,363.7 2.2,363.9 1.4,363.8C0.6,363.7 -0.3,363.5 -1.3,363C-2.3,362.5 -3.4,361.9 -4.6,361C-7,359.3 -8.5,357.6 -9.2,356.1C-9.9,354.6 -9.7,353.1 -8.7,351.7C-6.7,349 -3.4,349.4 1.4,352.8L1.7,353L-2.4,358.7C0.5,360.8 2.4,361.3 3.2,360.1C4.1,359.1 3.6,358 1.8,356.7ZM-1.8,354.3C-3.3,353.4 -4.4,352.9 -5,352.8C-5.7,352.7 -6.2,352.9 -6.5,353.4C-6.9,353.9 -6.9,354.5 -6.5,355C-6.2,355.5 -5.4,356.4 -4,357.5L-1.8,354.3Z" style="fill:rgb(59,34,95);fill-rule:nonzero;"/>
                                </g>
                            </g>
                            <g>
                                <g>
                                    <path d="M6.8,337.1L10.4,332.1L11.2,332.7C15.1,335.6 17.6,337.8 18.4,339.5C19.3,341.2 19.1,343 17.8,344.9C16.4,346.8 14.6,347.6 12.4,347.3C10.2,347 7.3,345.5 3.6,342.8C-0.7,339.7 -3.2,337.2 -3.9,335.3C-4.6,333.5 -4.3,331.7 -3.1,330C-2.1,328.7 -1.1,327.9 0.1,327.6C1.3,327.3 2.8,327.5 4.6,328.1L3.8,331.4C3.2,331.1 2.6,330.9 2.2,330.8C1.7,330.7 1.3,330.6 1,330.6C0.3,330.6 -0.2,331 -0.7,331.7C-1.4,332.6 -1.2,333.6 -0.4,334.8C0.5,336 2.5,337.7 5.6,339.9C8.7,342.1 10.9,343.5 12.2,343.9C13.5,344.3 14.5,344.1 15.2,343.1C15.8,342.2 15.9,341.3 15.4,340.4C14.8,339.4 13.6,338.3 11.8,337L11.2,336.6L10.8,336.3L9.1,338.7L6.8,337.1Z" style="fill:rgb(59,34,95);fill-rule:nonzero;"/>
                                </g>
                            </g>
                            <g>
                                <g>
                                    <path d="M14.9,319.7L28.5,329.5L26.7,332L25,330.7C25.5,331.6 25.7,332.3 25.8,332.9C25.8,333.5 25.6,334 25.2,334.6C24.4,335.7 23.2,336.1 21.7,335.8C20.2,335.5 18.2,334.4 15.7,332.7C13.3,331 11.8,329.5 11.1,328.2C10.4,326.9 10.4,325.6 11.2,324.5C11.9,323.5 13.1,323.1 14.8,323.3L13.3,322.2L14.9,319.7ZM17.5,330.2C19.3,331.5 20.6,332.3 21.5,332.6C22.4,332.9 23,332.7 23.5,332.1C23.9,331.5 23.8,330.9 23.3,330.1C22.7,329.3 21.6,328.3 19.9,327.1C18.3,325.9 17,325.2 16,324.8C15.1,324.5 14.4,324.7 14,325.2C13.6,325.8 13.6,326.5 14.1,327.2C14.6,327.9 15.8,328.9 17.5,330.2Z" style="fill:rgb(59,34,95);fill-rule:nonzero;"/>
                                </g>
                            </g>
                            <g>
                                <g>
                                    <path d="M17,316.8L18.8,314.3L20.5,315.5C19.7,313.9 19.8,312.5 20.6,311.4C21.5,310.1 22.8,309.8 24.3,310.2C23.5,308.6 23.6,307.2 24.5,306C25.2,305 26,304.5 26.8,304.4C27.7,304.3 28.6,304.5 29.6,305.3L40.4,313.1L38.6,315.6L29.7,309.1C28.7,308.4 27.9,308 27.4,307.9C26.9,307.8 26.5,308.1 26.1,308.6C25.7,309.2 25.5,309.7 25.8,310.2C26,310.7 26.6,311.3 27.6,312L36.5,318.5L34.6,321.1L25.7,314.6C25.2,314.3 24.8,314 24.4,313.8C24,313.6 23.7,313.5 23.4,313.5C23.1,313.5 22.9,313.5 22.6,313.6C22.4,313.7 22.2,313.9 22,314.2C21.6,314.8 21.5,315.3 21.7,315.9C21.9,316.4 22.5,317 23.4,317.7L32.3,324.2L30.5,326.7L17,316.8Z" style="fill:rgb(59,34,95);fill-rule:nonzero;"/>
                                </g>
                            </g>
                            <g>
                                <g>
                                    <path d="M41.6,301.7L43.3,299.4C46.4,301.9 47,304.4 45.2,306.8C44.7,307.5 44.1,308.1 43.4,308.4C42.8,308.7 42,308.9 41.2,308.8C40.4,308.7 39.5,308.5 38.5,308C37.5,307.5 36.4,306.9 35.2,306C32.8,304.3 31.3,302.6 30.6,301.1C29.9,299.6 30.1,298.1 31.1,296.7C33.1,294 36.4,294.4 41.2,297.8L41.5,298L37.3,303.7C40.2,305.8 42.1,306.3 42.9,305.1C43.9,304.1 43.4,302.9 41.6,301.7ZM38,299.2C36.5,298.3 35.4,297.8 34.8,297.7C34.1,297.6 33.6,297.8 33.3,298.3C32.9,298.8 32.9,299.4 33.3,299.9C33.6,300.4 34.4,301.3 35.8,302.4L38,299.2Z" style="fill:rgb(59,34,95);fill-rule:nonzero;"/>
                                </g>
                            </g>
                            <g>
                                <g>
                                    <path d="M52.8,281.9C57.4,285.2 58.7,288.3 56.6,291.2C54.5,294 51.2,293.8 46.5,290.4C41.8,287 40.5,283.9 42.6,281.1C43.1,280.4 43.7,279.8 44.4,279.5C45.1,279.2 45.8,279 46.7,279.1C47.6,279.2 48.5,279.4 49.5,279.9C50.4,280.3 51.5,281 52.8,281.9ZM50.8,284.4C49,283.1 47.7,282.3 46.8,282.1C45.9,281.8 45.3,282 44.8,282.6C44.4,283.2 44.4,283.9 44.9,284.6C45.4,285.3 46.6,286.3 48.3,287.6C50,288.9 51.3,289.6 52.2,289.9C53.1,290.2 53.7,290 54.2,289.4C54.6,288.8 54.6,288.1 54.1,287.4C53.7,286.7 52.5,285.7 50.8,284.4Z" style="fill:rgb(59,34,95);fill-rule:nonzero;"/>
                                </g>
                            </g>
                            <g>
                                <g>
                                    <path d="M46.8,275.5L47.7,274.2L43,270.8C41.5,269.7 40.5,268.7 40.2,267.7C39.9,266.8 40.1,265.8 41,264.6C41.4,264.1 41.9,263.6 42.6,263.2L45.3,265.1C44.8,265.3 44.4,265.6 44.2,265.9C43.9,266.3 43.8,266.7 43.9,267.1C44,267.5 44.4,267.9 45,268.3L46,269.1L49.6,271.7L51.1,269.6L53.1,271L51.6,273.1L63.2,281.5L61.4,284L49.8,275.6L48.9,276.9L46.8,275.5Z" style="fill:rgb(59,34,95);fill-rule:nonzero;"/>
                                </g>
                            </g>
                        </g>
                        <g>
                            <path d="M55.1,342.4C55.1,342.4 82.4,364.6 83.8,365.8L88.8,369.5C88.9,369.6 89.1,369.8 89.3,370C89.6,370.2 89.9,370.5 90.3,370.8L88.6,369.8C85.7,368.1 82.9,366.5 80.4,365.1C77.9,363.7 75.5,362.5 73.3,361.4L51.5,349L51.4,349.1L47.8,354L47.7,354.1L66.5,371C68.2,372.7 70.1,374.6 72.2,376.6C74.3,378.6 76.6,380.7 79.2,382.9L80.7,384.2C80.2,383.9 79.9,383.7 79.6,383.5C79.3,383.3 79.1,383.2 79,383.2L73.9,379.6C72.3,378.6 42.7,359.6 42.7,359.6L38,366L90.6,395.7L94.4,390.4L75.6,372.1C75.5,372 62.1,360.6 62.1,360.6C62.1,360.6 74.6,368.5 77.1,370L100.5,381.9L104.3,376.6L59.6,336L55.1,342.4Z" style="fill:rgb(102,74,158);fill-rule:nonzero;"/>
                        </g>
                    </g>
                </g>
                <g transform="matrix(1.0001,0,0,1,-0.00825385,0)">
                    <rect x="0" y="0" width="158.4" height="486.4" style="fill:url(#_Linear1);"/>
                </g>
            </g>
        </g>
    </g>
    <defs>
        <linearGradient id="_Linear1" x1="0" y1="0" x2="1" y2="0" gradientUnits="userSpaceOnUse" gradientTransform="matrix(3.97244e-14,-648.749,648.749,3.97244e-14,79.2242,539.846)"><stop offset="0" style="stop-color:white;stop-opacity:0"/><stop offset="0.1" style="stop-color:rgb(173,167,191);stop-opacity:0.06"/><stop offset="0.2" style="stop-color:rgb(122,112,145);stop-opacity:0.12"/><stop offset="0.3" style="stop-color:rgb(86,74,111);stop-opacity:0.19"/><stop offset="0.41" style="stop-color:rgb(62,46,87);stop-opacity:0.26"/><stop offset="0.52" style="stop-color:rgb(44,24,69);stop-opacity:0.33"/><stop offset="0.64" style="stop-color:rgb(31,2,56);stop-opacity:0.41"/><stop offset="0.76" style="stop-color:rgb(24,0,48);stop-opacity:0.49"/><stop offset="0.93" style="stop-color:rgb(21,0,45);stop-opacity:0.6"/><stop offset="1" style="stop-color:rgb(21,0,45);stop-opacity:0.6"/></linearGradient>
    </defs>
</svg>
