<?xml version="1.0" encoding="UTF-8" standalone="no"?>
<!DOCTYPE svg PUBLIC "-//W3C//DTD SVG 1.1//EN" "http://www.w3.org/Graphics/SVG/1.1/DTD/svg11.dtd">
<svg width="266px" height="442px" version="1.1" xmlns="http://www.w3.org/2000/svg" xmlns:xlink="http://www.w3.org/1999/xlink" xml:space="preserve" xmlns:serif="http://www.serif.com/" style="fill-rule:evenodd;clip-rule:evenodd;stroke-linejoin:round;stroke-miterlimit:2;">
    <g id="Artboard1" transform="matrix(1.84545,0,0,1,0,0)">
        <rect x="0" y="0" width="144" height="442" style="fill:none;"/>
        <clipPath id="_clip1">
            <rect x="0" y="0" width="144" height="442"/>
        </clipPath>
        <g clip-path="url(#_clip1)">
            <g transform="matrix(0.541873,0,0,1,32.9851,0)">
                <g>
                    <g>
                        <rect x="-63.3" y="-140.3" width="448.7" height="630.7" style="fill:rgb(102,74,158);"/>
                        <path d="M373.4,-128.3L373.4,478.4L-51.2,478.4L-51.2,-128.3L373.4,-128.3M397.6,-152.4L-75.3,-152.4L-75.3,502.5L397.6,502.5L397.6,-152.4Z" style="fill:rgb(102,74,158);fill-rule:nonzero;"/>
                    </g>
                    <g transform="matrix(0.5862,-0.8101,0.8101,0.5862,-259.845,174.965)">
                        <rect x="21.7" y="296.8" width="39.4" height="90.2" style="fill:rgb(59,34,95);"/>
                    </g>
                    <g transform="matrix(0.5862,-0.8101,0.8101,0.5862,-221.166,180.978)">
                        <rect x="46.9" y="261.9" width="39.4" height="90.2" style="fill:rgb(59,34,95);"/>
                    </g>
                    <g transform="matrix(0.5862,-0.8101,0.8101,0.5862,-182.486,186.991)">
                        <rect x="72.1" y="227" width="39.4" height="90.2" style="fill:rgb(59,34,95);"/>
                    </g>
                    <g transform="matrix(0.5862,-0.8101,0.8101,0.5862,-143.807,193.004)">
                        <rect x="97.3" y="192.2" width="39.4" height="90.2" style="fill:rgb(59,34,95);"/>
                    </g>
                    <g transform="matrix(0.5862,-0.8101,0.8101,0.5862,-105.127,199.017)">
                        <rect x="122.6" y="157.3" width="39.4" height="90.2" style="fill:rgb(59,34,95);"/>
                    </g>
                    <g transform="matrix(0.5862,-0.8101,0.8101,0.5862,-66.4477,205.03)">
                        <rect x="147.8" y="122.5" width="39.4" height="90.2" style="fill:rgb(59,34,95);"/>
                    </g>
                    <g transform="matrix(0.5862,-0.8101,0.8101,0.5862,-27.7682,211.043)">
                        <rect x="173" y="87.6" width="39.4" height="90.2" style="fill:rgb(59,34,95);"/>
                    </g>
                    <g transform="matrix(0.5862,-0.8101,0.8101,0.5862,10.9113,217.056)">
                        <rect x="198.2" y="52.7" width="39.4" height="90.2" style="fill:rgb(59,34,95);"/>
                    </g>
                    <g transform="matrix(0.5862,-0.8101,0.8101,0.5862,49.5908,223.07)">
                        <rect x="223.5" y="17.9" width="39.4" height="90.2" style="fill:rgb(59,34,95);"/>
                    </g>
                    <g>
                        <path d="M24,318.9L29.8,323.1C27.2,324 25.4,325.1 24.3,326.6C23.2,328.2 22.8,329.8 23.2,331.6C23.5,333.4 24.6,334.9 26.3,336.1C27.8,337.2 29.4,337.8 31,337.9C31.9,338 33.1,337.9 34.6,337.8C36.1,337.6 38,337.4 40.3,337C44.5,336.4 47.8,336.2 50.3,336.7C52.7,337.1 55.1,338.2 57.6,340C61,342.5 63.1,345.5 64,349C64.8,352.5 64.1,355.7 61.9,358.8C60.1,361.3 57.8,363 55.1,363.8L49.2,359.5C52.3,358.5 54.4,357.1 55.7,355.4C56.9,353.8 57.3,352.1 56.8,350.4C56.4,348.7 55.3,347.2 53.4,345.8C51.8,344.6 50.1,343.9 48.3,343.7C47.4,343.6 46.4,343.6 45.1,343.7C43.8,343.8 42.4,343.9 40.7,344.2C38.1,344.6 35.9,344.9 34,345.1C32.1,345.3 30.6,345.3 29.4,345.1C27.1,344.8 24.6,343.7 22.1,341.9C18.6,339.4 16.6,336.5 15.8,333.3C15.1,330 15.8,326.8 18,323.8C19.6,321.8 21.6,320.1 24,318.9Z" style="fill:rgb(102,74,158);fill-rule:nonzero;"/>
                    </g>
                    <g>
                        <path d="M66,258.9L70.3,252.9L114.5,284.9L110.2,290.9L66,258.9Z" style="fill:rgb(102,74,158);fill-rule:nonzero;"/>
                    </g>
                    <g>
                        <path d="M86.3,230.8L100.3,211.4L105.5,215.2L100.7,221.9L139.7,250.1L135.5,255.9L96.5,227.7L91.5,234.6L86.3,230.8Z" style="fill:rgb(102,74,158);fill-rule:nonzero;"/>
                    </g>
                    <g>
                        <path d="M126.1,177.3L131.5,181.2C129.7,182.2 128.4,183.2 127.6,184.2C126.6,185.6 126,187.1 126,188.6C126,190.1 126.4,191.7 127.4,193.4C128.4,195.1 129.9,196.9 131.9,198.8C133.9,200.7 136.4,202.8 139.4,205C150.3,212.9 157.8,214.1 161.8,208.5C162.5,207.5 163,206.1 163.4,204.3L168.9,208.3C168.7,210.3 167.9,212.2 166.6,214C160.1,223 149.6,222.1 135,211.6C127.1,205.9 122,200.5 119.7,195.6C117.4,190.7 117.9,185.9 121.2,181.4C122.5,179.6 124.1,178.3 126.1,177.3Z" style="fill:rgb(102,74,158);fill-rule:nonzero;"/>
                    </g>
                    <g>
                        <path d="M136.2,161.9L140.5,155.9L157.8,168.4L164.1,159.7L146.8,147.2L151.1,141.2L195.3,173.2L191,179.2L169.1,163.4L162.8,172.1L184.7,187.9L180.4,193.9L136.2,161.9Z" style="fill:rgb(102,74,158);fill-rule:nonzero;"/>
                    </g>
                    <g>
                        <path d="M162.6,125.4L168.4,117.3C173,111 179.2,110.7 187,116.3C190,118.5 191.9,120.5 192.8,122.4C193.7,124.3 193.7,126.5 192.9,129.1C195.6,127.4 198,126.7 200.1,126.9C202.2,127.1 204.8,128.2 207.7,130.4C215.8,136.3 217.4,142.7 212.3,149.6L206.7,157.4L162.6,125.4ZM186.1,133.9C187.8,131.6 188.4,129.6 188,127.9C187.5,126.2 185.9,124.3 183,122.3C178.2,118.8 174.6,118.8 172.1,122.3L171.8,122.8L171.6,123.1C171.5,123.3 171.4,123.4 171.4,123.4L186.1,133.9ZM205.7,148.1C207.5,145.7 208.2,143.6 207.8,141.9C207.4,140.2 205.9,138.4 203.1,136.4C200.3,134.4 197.9,133.4 196.1,133.6C194.3,133.7 192.5,135 190.8,137.4L205.7,148.1Z" style="fill:rgb(102,74,158);fill-rule:nonzero;"/>
                    </g>
                    <g>
                        <path d="M225.5,87.3C233.3,92.9 238.2,97.8 240.2,101.9C242.2,106 241.8,110.1 238.8,114.2C235.7,118.5 231.7,120.2 226.9,119.4C222.2,118.6 215.4,115.1 206.6,108.7C198.7,103 193.8,98.1 191.8,94C189.8,89.9 190.3,85.8 193.3,81.6C196,77.9 199.2,76.1 203.1,76.1C205.7,76.1 208.7,77 212.2,78.8C215.5,80.4 220,83.2 225.5,87.3ZM221.6,94C213.9,88.5 208.6,85.1 205.6,84C202.6,82.9 200.3,83.4 198.8,85.5C197.3,87.6 197.4,89.9 199.2,92.2C201,94.6 205.5,98.3 212.5,103.4C219,108.1 223.7,111 226.7,112C229.6,113 231.8,112.4 233.3,110.4C234.8,108.4 234.6,106.2 233,103.9C231.3,101.5 227.6,98.2 221.6,94Z" style="fill:rgb(102,74,158);fill-rule:nonzero;"/>
                    </g>
                    <g>
                        <path d="M-29.9,310.4L-24.1,302.3L-21.9,303.9L-23.9,306.7L-7.7,318.5L-9.5,320.9L-25.7,309.1L-27.8,312L-29.9,310.4Z" style="fill:rgb(59,34,95);fill-rule:nonzero;"/>
                        <g>
                            <g>
                                <path d="M-25.1,299.7L-23.5,297.4L-14.2,304.2C-14.8,302.8 -14.7,301.5 -14,300.5C-13.3,299.5 -12.4,299.1 -11.3,299.2C-10.7,299.3 -9.7,299.8 -8.5,300.7L0.3,307.1L-1.4,309.4L-9.7,303.4C-10.5,302.8 -11.2,302.5 -11.7,302.4C-12.2,302.3 -12.6,302.6 -13,303C-13.2,303.3 -13.3,303.5 -13.3,303.8C-13.3,304 -13.3,304.3 -13.2,304.6C-13.1,304.9 -12.9,305.1 -12.6,305.4C-12.3,305.7 -11.9,306 -11.5,306.3L-3.5,312.1L-5.1,314.4L-25.1,299.7Z" style="fill:rgb(59,34,95);fill-rule:nonzero;"/>
                            </g>
                        </g>
                        <g>
                            <g>
                                <path d="M1.7,296.7L3.2,294.6C6,296.9 6.6,299.1 5,301.3C4.5,302 4,302.4 3.4,302.7C2.8,303 2.1,303.1 1.4,303C0.7,302.9 -0.2,302.7 -1.1,302.3C-2,301.9 -3,301.3 -4.1,300.5C-6.3,298.9 -7.7,297.5 -8.3,296.1C-8.9,294.7 -8.8,293.4 -7.8,292.1C-6,289.6 -2.9,290 1.4,293.1L1.7,293.3L-2.1,298.5C0.5,300.4 2.2,300.8 3,299.8C3.7,298.9 3.3,297.8 1.7,296.7ZM-1.6,294.5C-3,293.7 -3.9,293.2 -4.5,293.1C-5.1,293 -5.6,293.1 -5.9,293.6C-6.2,294.1 -6.3,294.6 -5.9,295.1C-5.6,295.6 -4.9,296.4 -3.7,297.4L-1.6,294.5Z" style="fill:rgb(59,34,95);fill-rule:nonzero;"/>
                            </g>
                        </g>
                        <g>
                            <g>
                                <path d="M6.1,278.9L9.4,274.4L10.1,274.9C13.7,277.5 15.9,279.6 16.7,281.1C17.5,282.7 17.3,284.3 16.1,286C14.8,287.8 13.2,288.5 11.2,288.2C9.2,287.9 6.6,286.5 3.2,284.1C-0.7,281.3 -2.9,279 -3.6,277.3C-4.2,275.7 -4,274.1 -2.9,272.5C-2,271.3 -1.1,270.6 -0,270.3C1.1,270 2.4,270.2 4.1,270.8L3.4,273.8C2.8,273.6 2.3,273.4 1.9,273.3C1.5,273.2 1.1,273.1 0.8,273.2C0.2,273.2 -0.3,273.6 -0.7,274.2C-1.3,275 -1.2,276 -0.4,277C0.4,278.1 2.2,279.6 5,281.6C7.8,283.6 9.8,284.8 11,285.2C12.2,285.6 13.1,285.4 13.7,284.5C14.3,283.7 14.3,282.9 13.9,282.1C13.4,281.2 12.3,280.2 10.7,279L10.2,278.6L9.8,278.3L8.2,280.5L6.1,278.9Z" style="fill:rgb(59,34,95);fill-rule:nonzero;"/>
                            </g>
                        </g>
                        <g>
                            <g>
                                <path d="M13.5,263L25.8,271.9L24.1,274.2L22.5,273.1C22.9,273.9 23.2,274.6 23.2,275.1C23.2,275.6 23,276.1 22.6,276.7C21.9,277.7 20.8,278.1 19.4,277.8C18,277.5 16.2,276.6 13.9,274.9C11.8,273.4 10.4,272 9.7,270.8C9,269.6 9.1,268.5 9.8,267.5C10.5,266.6 11.6,266.2 13,266.4L11.6,265.4L13.5,263ZM15.9,272.6C17.5,273.8 18.7,274.5 19.5,274.7C20.3,274.9 20.9,274.8 21.3,274.2C21.7,273.7 21.6,273.1 21.1,272.4C20.5,271.7 19.5,270.7 18,269.7C16.5,268.6 15.3,267.9 14.4,267.6C13.6,267.3 13,267.5 12.6,268C12.2,268.5 12.2,269.2 12.7,269.8C13.3,270.5 14.3,271.4 15.9,272.6Z" style="fill:rgb(59,34,95);fill-rule:nonzero;"/>
                            </g>
                        </g>
                        <g>
                            <g>
                                <path d="M15.4,260.4L17.1,258.1L18.6,259.2C17.9,257.7 17.9,256.5 18.7,255.4C19.5,254.3 20.7,253.9 22.1,254.3C21.4,252.9 21.4,251.6 22.2,250.5C22.8,249.6 23.5,249.1 24.3,249C25.1,248.9 25.9,249.1 26.8,249.8L36.6,256.9L34.9,259.2L26.8,253.3C25.9,252.6 25.2,252.3 24.7,252.2C24.3,252.1 23.9,252.3 23.5,252.8C23.1,253.4 23,253.8 23.2,254.3C23.4,254.7 23.9,255.3 24.9,255.9L33,261.8L31.3,264.2L23.2,258.3C22.8,258 22.4,257.7 22,257.6C21.7,257.4 21.4,257.3 21.1,257.3C20.8,257.3 20.6,257.3 20.4,257.4C20.2,257.5 20,257.7 19.8,257.9C19.4,258.4 19.3,258.9 19.5,259.4C19.7,259.9 20.2,260.4 21.1,261.1L29.2,267L27.5,269.3L15.4,260.4Z" style="fill:rgb(59,34,95);fill-rule:nonzero;"/>
                            </g>
                        </g>
                        <g>
                            <g>
                                <path d="M37.9,246.7L39.4,244.6C42.2,246.9 42.8,249.1 41.2,251.3C40.7,252 40.2,252.4 39.6,252.7C39,253 38.3,253.1 37.6,253C36.9,252.9 36,252.7 35.1,252.3C34.2,251.9 33.2,251.3 32.1,250.5C29.9,248.9 28.5,247.5 27.9,246.1C27.3,244.7 27.4,243.4 28.4,242.1C30.2,239.6 33.3,240 37.6,243.1L37.9,243.3L34.1,248.5C36.7,250.4 38.4,250.8 39.2,249.8C39.9,248.9 39.4,247.8 37.9,246.7ZM34.6,244.5C33.2,243.7 32.3,243.2 31.7,243.1C31.1,243 30.6,243.1 30.3,243.6C30,244.1 29.9,244.6 30.3,245.1C30.6,245.6 31.3,246.4 32.5,247.4L34.6,244.5Z" style="fill:rgb(59,34,95);fill-rule:nonzero;"/>
                            </g>
                        </g>
                        <g>
                            <g>
                                <path d="M47.9,228.7C52.1,231.7 53.2,234.5 51.4,237.1C49.5,239.7 46.5,239.4 42.2,236.4C37.9,233.3 36.8,230.5 38.6,227.9C39.1,227.2 39.6,226.7 40.2,226.4C40.8,226.1 41.5,226 42.3,226C43.1,226 43.9,226.3 44.8,226.7C45.8,227.3 46.8,227.9 47.9,228.7ZM46.2,231C44.6,229.8 43.4,229.1 42.6,228.9C41.8,228.6 41.2,228.8 40.8,229.3C40.4,229.8 40.4,230.5 40.9,231.1C41.4,231.8 42.4,232.7 44,233.8C45.6,234.9 46.8,235.6 47.5,235.9C48.3,236.1 48.9,236 49.3,235.4C49.7,234.9 49.7,234.3 49.2,233.6C48.8,233.1 47.8,232.2 46.2,231Z" style="fill:rgb(59,34,95);fill-rule:nonzero;"/>
                            </g>
                        </g>
                        <g>
                            <g>
                                <path d="M42.6,222.9L43.4,221.8L39.1,218.7C37.7,217.7 36.8,216.8 36.6,215.9C36.3,215.1 36.6,214.1 37.3,213.1C37.6,212.7 38.1,212.2 38.7,211.8L41.1,213.5C40.6,213.7 40.3,214 40.1,214.2C39.8,214.6 39.7,214.9 39.8,215.3C39.9,215.6 40.2,216 40.8,216.4L41.7,217.1L45,219.5L46.4,217.6L48.2,218.9L46.8,220.8L57.3,228.4L55.7,230.7L45.2,223.1L44.4,224.2L42.6,222.9Z" style="fill:rgb(59,34,95);fill-rule:nonzero;"/>
                            </g>
                        </g>
                    </g>
                    <g>
                        <path d="M50.1,283.7C50.1,283.7 74.9,303.9 76.2,305L80.7,308.4C80.8,308.5 80.9,308.6 81.2,308.8C81.4,309 81.7,309.3 82.1,309.6L80.6,308.7C77.9,307.1 75.5,305.7 73.2,304.4C70.9,303.1 68.8,302 66.8,301L47,289.7L46.9,289.8L43.7,294.3L43.6,294.4L60.6,309.7C62.2,311.3 63.9,313 65.8,314.7C67.7,316.5 69.8,318.4 72.2,320.4L73.5,321.6C73.1,321.4 72.8,321.2 72.5,321C72.2,320.8 72.1,320.7 71.9,320.7L67.3,317.5C65.9,316.6 39,299.4 39,299.4L34.8,305.2L82.6,332.2L86.1,327.4L69,310.8C68.9,310.7 56.7,300.3 56.7,300.3C56.7,300.3 68.1,307.5 70.3,308.9L91.6,319.8L95.1,315L54.2,278L50.1,283.7Z" style="fill:rgb(102,74,158);fill-rule:nonzero;"/>
                    </g>
                </g>
            </g>
            <rect x="0" y="0" width="144" height="442" style="fill:url(#_Linear2);"/>
        </g>
    </g>
    <defs>
        <linearGradient id="_Linear2" x1="0" y1="0" x2="1" y2="0" gradientUnits="userSpaceOnUse" gradientTransform="matrix(2.70652e-14,-442.008,442.008,2.70652e-14,72,442.008)"><stop offset="0" style="stop-color:white;stop-opacity:0"/><stop offset="0.08" style="stop-color:rgb(173,167,191);stop-opacity:0.06"/><stop offset="0.17" style="stop-color:rgb(122,112,145);stop-opacity:0.12"/><stop offset="0.26" style="stop-color:rgb(86,74,111);stop-opacity:0.19"/><stop offset="0.36" style="stop-color:rgb(62,46,87);stop-opacity:0.26"/><stop offset="0.45" style="stop-color:rgb(44,24,69);stop-opacity:0.33"/><stop offset="0.56" style="stop-color:rgb(31,2,56);stop-opacity:0.41"/><stop offset="0.67" style="stop-color:rgb(24,0,48);stop-opacity:0.49"/><stop offset="0.81" style="stop-color:rgb(21,0,45);stop-opacity:0.6"/><stop offset="1" style="stop-color:rgb(21,0,45);stop-opacity:0.6"/></linearGradient>
    </defs>
</svg>
