<?xml version="1.0" encoding="UTF-8" standalone="no"?>
<!DOCTYPE svg PUBLIC "-//W3C//DTD SVG 1.1//EN" "http://www.w3.org/Graphics/SVG/1.1/DTD/svg11.dtd">
<svg width="100%" height="100%" viewBox="0 0 266 487" version="1.1" xmlns="http://www.w3.org/2000/svg" xmlns:xlink="http://www.w3.org/1999/xlink" xml:space="preserve" xmlns:serif="http://www.serif.com/" style="fill-rule:evenodd;clip-rule:evenodd;stroke-linejoin:round;stroke-miterlimit:2;">
    <g id="Artboard1" transform="matrix(1.6774,0,0,1,0,0)">
        <rect x="0" y="0" width="158.4" height="486.4" style="fill:none;"/>
        <g>
            <g transform="matrix(0.710741,0,0,1.1922,41.4827,-87.065)">
                <g>
                    <g>
                        <rect x="-69.6" y="-154.2" width="493.8" height="694" style="fill:rgb(102,74,158);"/>
                        <path d="M410.9,-140.9L410.9,526.6L-56.4,526.6L-56.4,-140.9L410.9,-140.9M437.4,-167.4L-82.9,-167.4L-82.9,553.1L437.4,553.1L437.4,-167.4Z" style="fill:rgb(102,74,158);fill-rule:nonzero;"/>
                    </g>
                    <g transform="matrix(0.5862,-0.8101,0.8101,0.5862,-286.089,192.607)">
                        <rect x="23.8" y="326.7" width="43.4" height="99.3" style="fill:rgb(59,34,95);"/>
                    </g>
                    <g transform="matrix(0.5862,-0.8101,0.8101,0.5862,-243.528,199.224)">
                        <rect x="51.6" y="288.4" width="43.4" height="99.3" style="fill:rgb(59,34,95);"/>
                    </g>
                    <g transform="matrix(0.5862,-0.8101,0.8101,0.5862,-200.968,205.84)">
                        <rect x="79.3" y="250" width="43.4" height="99.3" style="fill:rgb(59,34,95);"/>
                    </g>
                    <g transform="matrix(0.5862,-0.8101,0.8101,0.5862,-158.407,212.457)">
                        <rect x="107.1" y="211.7" width="43.4" height="99.3" style="fill:rgb(59,34,95);"/>
                    </g>
                    <g transform="matrix(0.5862,-0.8101,0.8101,0.5862,-115.847,219.073)">
                        <rect x="134.9" y="173.3" width="43.4" height="99.3" style="fill:rgb(59,34,95);"/>
                    </g>
                    <g transform="matrix(0.5862,-0.8101,0.8101,0.5862,-73.2863,225.69)">
                        <rect x="162.6" y="135" width="43.4" height="99.3" style="fill:rgb(59,34,95);"/>
                    </g>
                    <g transform="matrix(0.5862,-0.8101,0.8101,0.5862,-30.7258,232.306)">
                        <rect x="190.4" y="96.6" width="43.4" height="99.3" style="fill:rgb(59,34,95);"/>
                    </g>
                    <g>
                        <path d="M26.4,351.1L32.8,355.7C29.9,356.7 27.9,357.9 26.8,359.5C25.6,361.2 25.1,363.1 25.6,365C26,366.9 27.1,368.6 29,370C30.7,371.2 32.4,371.9 34.2,372C35.1,372.1 36.5,372 38.1,371.9C39.8,371.7 41.9,371.4 44.4,371C49,370.3 52.7,370.2 55.4,370.6C58,371 60.7,372.2 63.5,374.2C67.3,376.9 69.6,380.2 70.5,384.1C71.3,387.9 70.6,391.5 68.2,394.8C66.2,397.6 63.7,399.4 60.7,400.3L54.2,395.6C57.6,394.5 60,393 61.4,391.1C62.7,389.3 63.1,387.5 62.7,385.6C62.2,383.7 61,382.1 59,380.6C57.2,379.3 55.4,378.6 53.4,378.3C52.4,378.2 51.3,378.2 49.9,378.3C48.5,378.4 46.9,378.6 45.1,378.9C42.3,379.4 39.8,379.7 37.8,379.9C35.7,380.1 34.1,380.1 32.7,379.9C30.1,379.6 27.4,378.4 24.6,376.4C20.8,373.7 18.5,370.5 17.7,366.9C16.9,363.3 17.7,359.8 20.1,356.4C21.6,354.2 23.7,352.4 26.4,351.1Z" style="fill:rgb(102,74,158);fill-rule:nonzero;"/>
                    </g>
                    <g>
                        <path d="M72.6,285.1L77.3,278.5L125.9,313.7L121.2,320.3L72.6,285.1Z" style="fill:rgb(102,74,158);fill-rule:nonzero;"/>
                    </g>
                    <g>
                        <path d="M95,254.2L110.4,232.9L116.1,237L110.8,244.3L153.7,275.3L149,281.7L106.1,250.7L100.6,258.3L95,254.2Z" style="fill:rgb(102,74,158);fill-rule:nonzero;"/>
                    </g>
                    <g>
                        <path d="M138.8,195.3L144.7,199.6C142.7,200.7 141.2,201.8 140.4,202.9C139.3,204.5 138.7,206.1 138.7,207.7C138.7,209.4 139.2,211.1 140.2,213C141.3,214.9 142.9,216.9 145.1,219C147.3,221.1 150.1,223.4 153.4,225.8C165.4,234.5 173.6,235.8 178.1,229.6C178.9,228.5 179.5,227 179.9,225L185.9,229.4C185.6,231.6 184.8,233.7 183.4,235.6C176.3,245.5 164.7,244.6 148.6,232.9C139.9,226.6 134.3,220.7 131.8,215.3C129.3,209.8 129.8,204.6 133.4,199.7C134.8,197.8 136.5,196.4 138.8,195.3Z" style="fill:rgb(102,74,158);fill-rule:nonzero;"/>
                    </g>
                    <g>
                        <path d="M149.9,178.3L154.6,171.7L173.6,185.5L180.6,175.9L161.6,162.1L166.3,155.5L214.9,190.7L210.2,197.3L186.1,180L179.1,189.6L203.2,207L198.5,213.5L149.9,178.3Z" style="fill:rgb(102,74,158);fill-rule:nonzero;"/>
                    </g>
                    <g>
                        <path d="M-32.9,341.7L-26.5,332.8L-24.1,334.5L-26.3,337.6L-8.4,350.5L-10.3,353.2L-28.2,340.3L-30.5,343.5L-32.9,341.7Z" style="fill:rgb(59,34,95);fill-rule:nonzero;"/>
                        <g>
                            <g>
                                <path d="M-27.6,330L-25.8,327.5L-15.5,334.9C-16.2,333.3 -16.1,332 -15.3,330.8C-14.5,329.7 -13.5,329.2 -12.3,329.4C-11.6,329.5 -10.6,330 -9.2,331.1L0.5,338.1L-1.3,340.6L-10.4,334C-11.3,333.3 -12.1,333 -12.6,332.9C-13.1,332.8 -13.6,333.1 -14,333.6C-14.2,333.9 -14.3,334.2 -14.4,334.4C-14.4,334.7 -14.4,334.9 -14.3,335.2C-14.2,335.5 -13.9,335.8 -13.6,336.1C-13.3,336.4 -12.9,336.8 -12.3,337.1L-3.5,343.5L-5.3,346L-27.6,330Z" style="fill:rgb(59,34,95);fill-rule:nonzero;"/>
                            </g>
                        </g>
                        <g>
                            <g>
                                <path d="M1.8,326.7L3.5,324.4C6.6,326.9 7.2,329.4 5.4,331.8C4.9,332.5 4.3,333 3.6,333.4C3,333.7 2.2,333.9 1.4,333.8C0.6,333.7 -0.3,333.5 -1.3,333C-2.3,332.5 -3.4,331.9 -4.6,331C-7,329.3 -8.5,327.6 -9.2,326.1C-9.9,324.6 -9.7,323.1 -8.7,321.7C-6.7,319 -3.4,319.4 1.4,322.8L1.7,323L-2.4,328.7C0.5,330.8 2.4,331.3 3.2,330.1C4.1,329.1 3.6,327.9 1.8,326.7ZM-1.8,324.2C-3.3,323.3 -4.4,322.8 -5,322.7C-5.7,322.6 -6.2,322.8 -6.5,323.3C-6.9,323.8 -6.9,324.4 -6.5,324.9C-6.2,325.4 -5.4,326.3 -4,327.4L-1.8,324.2Z" style="fill:rgb(59,34,95);fill-rule:nonzero;"/>
                            </g>
                        </g>
                        <g>
                            <g>
                                <path d="M6.8,307L10.4,302L11.2,302.6C15.1,305.5 17.6,307.7 18.4,309.4C19.3,311.1 19.1,312.9 17.8,314.8C16.4,316.7 14.6,317.5 12.4,317.2C10.2,316.9 7.3,315.4 3.6,312.7C-0.7,309.6 -3.2,307.1 -3.9,305.2C-4.6,303.4 -4.3,301.6 -3.1,299.9C-2.1,298.6 -1.1,297.8 0.1,297.5C1.3,297.2 2.8,297.4 4.6,298L3.8,301.3C3.2,301 2.6,300.8 2.2,300.7C1.7,300.6 1.3,300.5 1,300.5C0.3,300.5 -0.2,300.9 -0.7,301.6C-1.4,302.5 -1.2,303.5 -0.4,304.7C0.5,305.9 2.5,307.6 5.6,309.8C8.7,312 10.9,313.4 12.2,313.8C13.5,314.2 14.5,314 15.2,313C15.8,312.1 15.9,311.2 15.4,310.3C14.8,309.3 13.6,308.2 11.8,306.9L11.2,306.5L10.8,306.2L9.1,308.6L6.8,307Z" style="fill:rgb(59,34,95);fill-rule:nonzero;"/>
                            </g>
                        </g>
                        <g>
                            <g>
                                <path d="M14.9,289.6L28.5,299.4L26.7,301.9L25,300.6C25.5,301.5 25.7,302.2 25.8,302.8C25.8,303.4 25.6,303.9 25.2,304.5C24.4,305.6 23.2,306 21.7,305.7C20.2,305.4 18.2,304.3 15.7,302.6C13.3,300.9 11.8,299.4 11.1,298.1C10.4,296.8 10.4,295.5 11.2,294.4C11.9,293.4 13.1,293 14.8,293.2L13.3,292.1L14.9,289.6ZM17.5,300.2C19.3,301.5 20.6,302.3 21.5,302.6C22.4,302.9 23,302.7 23.5,302.1C23.9,301.5 23.8,300.9 23.3,300.1C22.7,299.3 21.6,298.3 19.9,297.1C18.3,295.9 17,295.2 16,294.8C15.1,294.5 14.4,294.7 14,295.2C13.6,295.8 13.6,296.5 14.1,297.2C14.6,297.9 15.8,298.9 17.5,300.2Z" style="fill:rgb(59,34,95);fill-rule:nonzero;"/>
                            </g>
                        </g>
                        <g>
                            <g>
                                <path d="M17,286.8L18.8,284.3L20.5,285.5C19.7,283.9 19.8,282.5 20.6,281.4C21.5,280.1 22.8,279.8 24.3,280.2C23.5,278.6 23.6,277.2 24.5,276C25.2,275 26,274.5 26.8,274.4C27.7,274.3 28.6,274.5 29.6,275.3L40.4,283.1L38.6,285.6L29.7,279.1C28.7,278.4 27.9,278 27.4,277.9C26.9,277.8 26.5,278.1 26.1,278.6C25.7,279.2 25.5,279.7 25.8,280.2C26,280.7 26.6,281.3 27.6,282L36.5,288.5L34.6,291.1L25.7,284.6C25.2,284.3 24.8,284 24.4,283.8C24,283.6 23.7,283.5 23.4,283.5C23.1,283.5 22.9,283.5 22.6,283.6C22.4,283.7 22.2,283.9 22,284.2C21.6,284.8 21.5,285.3 21.7,285.9C21.9,286.4 22.5,287 23.4,287.7L32.3,294.2L30.5,296.7L17,286.8Z" style="fill:rgb(59,34,95);fill-rule:nonzero;"/>
                            </g>
                        </g>
                        <g>
                            <g>
                                <path d="M41.6,271.6L43.3,269.3C46.4,271.8 47,274.3 45.2,276.7C44.7,277.4 44.1,278 43.4,278.3C42.8,278.6 42,278.8 41.2,278.7C40.4,278.6 39.5,278.4 38.5,277.9C37.5,277.4 36.4,276.8 35.2,275.9C32.8,274.2 31.3,272.5 30.6,271C29.9,269.5 30.1,268 31.1,266.6C33.1,263.9 36.4,264.3 41.2,267.7L41.5,267.9L37.3,273.6C40.2,275.7 42.1,276.2 42.9,275C43.9,274.1 43.4,272.9 41.6,271.6ZM38,269.2C36.5,268.3 35.4,267.8 34.8,267.7C34.1,267.6 33.6,267.8 33.3,268.3C32.9,268.8 32.9,269.4 33.3,269.9C33.6,270.4 34.4,271.3 35.8,272.4L38,269.2Z" style="fill:rgb(59,34,95);fill-rule:nonzero;"/>
                            </g>
                        </g>
                        <g>
                            <g>
                                <path d="M52.8,251.9C57.4,255.2 58.7,258.3 56.6,261.2C54.5,264 51.2,263.8 46.5,260.4C41.8,257 40.5,253.9 42.6,251.1C43.1,250.4 43.7,249.8 44.4,249.5C45.1,249.2 45.8,249 46.7,249.1C47.5,249.2 48.5,249.4 49.5,249.9C50.4,250.3 51.5,251 52.8,251.9ZM50.8,254.4C49,253.1 47.7,252.3 46.8,252.1C45.9,251.8 45.3,252 44.8,252.6C44.4,253.2 44.4,253.9 44.9,254.6C45.4,255.3 46.6,256.3 48.3,257.6C50,258.9 51.3,259.6 52.2,259.9C53.1,260.2 53.7,260 54.2,259.4C54.6,258.8 54.6,258.1 54.1,257.4C53.7,256.7 52.5,255.7 50.8,254.4Z" style="fill:rgb(59,34,95);fill-rule:nonzero;"/>
                            </g>
                        </g>
                        <g>
                            <g>
                                <path d="M46.8,245.5L47.7,244.2L43,240.8C41.5,239.7 40.5,238.7 40.2,237.7C39.9,236.8 40.1,235.8 41,234.6C41.4,234.1 41.9,233.6 42.6,233.2L45.3,235.1C44.8,235.3 44.4,235.6 44.2,235.9C43.9,236.3 43.8,236.7 43.9,237.1C44,237.5 44.4,237.9 45,238.3L46,239.1L49.6,241.7L51.1,239.6L53.1,241L51.6,243.1L63.2,251.5L61.4,254L49.8,245.6L48.9,246.9L46.8,245.5Z" style="fill:rgb(59,34,95);fill-rule:nonzero;"/>
                            </g>
                        </g>
                    </g>
                    <g>
                        <path d="M55.1,312.4C55.1,312.4 82.4,334.6 83.8,335.8L88.8,339.5C88.9,339.6 89.1,339.8 89.3,340C89.5,340.2 89.9,340.5 90.3,340.8L88.6,339.8C85.7,338.1 82.9,336.5 80.4,335.1C77.9,333.7 75.5,332.5 73.3,331.4L51.5,319L51.4,319.1L47.8,324L47.7,324.1L66.5,341C68.2,342.7 70.1,344.6 72.2,346.6C74.3,348.6 76.6,350.7 79.2,352.9L80.7,354.2C80.2,353.9 79.9,353.7 79.6,353.5C79.3,353.3 79.1,353.2 79,353.2L73.9,349.6C72.3,348.6 42.7,329.6 42.7,329.6L38.1,335.9L90.7,365.6L94.5,360.3L75.7,342C75.6,341.9 62.2,330.5 62.2,330.5C62.2,330.5 74.7,338.4 77.2,339.9L100.6,351.8L104.4,346.5L59.7,305.9L55.1,312.4Z" style="fill:rgb(102,74,158);fill-rule:nonzero;"/>
                    </g>
                </g>
            </g>
            <rect x="0" y="0" width="158.4" height="486.4" style="fill:url(#_Linear1);"/>
        </g>
    </g>
    <defs>
        <linearGradient id="_Linear1" x1="0" y1="0" x2="1" y2="0" gradientUnits="userSpaceOnUse" gradientTransform="matrix(4.87848e-14,-796.716,796.716,4.87848e-14,79.2242,645.917)"><stop offset="0" style="stop-color:white;stop-opacity:0"/><stop offset="0.09" style="stop-color:white;stop-opacity:0"/><stop offset="0.16" style="stop-color:rgb(173,167,191);stop-opacity:0.06"/><stop offset="0.24" style="stop-color:rgb(122,112,145);stop-opacity:0.12"/><stop offset="0.32" style="stop-color:rgb(86,74,111);stop-opacity:0.19"/><stop offset="0.4" style="stop-color:rgb(62,46,87);stop-opacity:0.26"/><stop offset="0.49" style="stop-color:rgb(44,24,69);stop-opacity:0.33"/><stop offset="0.58" style="stop-color:rgb(31,2,56);stop-opacity:0.41"/><stop offset="0.69" style="stop-color:rgb(24,0,48);stop-opacity:0.49"/><stop offset="0.81" style="stop-color:rgb(21,0,45);stop-opacity:0.6"/><stop offset="1" style="stop-color:rgb(21,0,45);stop-opacity:0.6"/></linearGradient>
    </defs>
</svg>
