<?xml version="1.0" encoding="UTF-8" standalone="no"?>
<!DOCTYPE svg PUBLIC "-//W3C//DTD SVG 1.1//EN" "http://www.w3.org/Graphics/SVG/1.1/DTD/svg11.dtd">
<svg width="100%" height="100%" viewBox="0 0 266 488" version="1.1" xmlns="http://www.w3.org/2000/svg" xmlns:xlink="http://www.w3.org/1999/xlink" xml:space="preserve" xmlns:serif="http://www.serif.com/" style="fill-rule:evenodd;clip-rule:evenodd;stroke-linejoin:round;stroke-miterlimit:2;">
    <g id="Artboard1" transform="matrix(1.66688,0,0,1,0,0)">
        <rect x="0" y="0" width="159.4" height="487.4" style="fill:none;"/>
        <g transform="matrix(0.714881,0,0,1.19162,48.3573,-88.9652)">
            <g>
                <g>
                    <rect x="-129.2" y="-143.7" width="493.8" height="694" style="fill:rgb(102,74,158);"/>
                    <path d="M351.3,-130.4L351.3,537.1L-116,537.1L-116,-130.4L351.3,-130.4M377.8,-156.9L-142.5,-156.9L-142.5,563.6L377.8,563.6L377.8,-156.9Z" style="fill:rgb(102,74,158);fill-rule:nonzero;"/>
                </g>
                <g>
                    <g transform="matrix(0.5862,-0.8101,0.8101,0.5862,-319.24,148.713)">
                        <rect x="-35.7" y="337.3" width="43.4" height="99.3" style="fill:rgb(59,34,95);"/>
                    </g>
                    <g transform="matrix(0.5862,-0.8101,0.8101,0.5862,-276.68,155.33)">
                        <rect x="-8" y="298.9" width="43.4" height="99.3" style="fill:rgb(59,34,95);"/>
                    </g>
                    <g transform="matrix(0.5862,-0.8101,0.8101,0.5862,-234.119,161.946)">
                        <rect x="19.8" y="260.5" width="43.4" height="99.3" style="fill:rgb(59,34,95);"/>
                    </g>
                    <g transform="matrix(0.5862,-0.8101,0.8101,0.5862,-191.559,168.563)">
                        <rect x="47.6" y="222.2" width="43.4" height="99.3" style="fill:rgb(59,34,95);"/>
                    </g>
                    <g transform="matrix(0.5862,-0.8101,0.8101,0.5862,-148.998,175.179)">
                        <rect x="75.3" y="183.8" width="43.4" height="99.3" style="fill:rgb(59,34,95);"/>
                    </g>
                    <g transform="matrix(0.5862,-0.8101,0.8101,0.5862,-106.438,181.796)">
                        <rect x="103.1" y="145.5" width="43.4" height="99.3" style="fill:rgb(59,34,95);"/>
                    </g>
                    <g transform="matrix(0.5862,-0.8101,0.8101,0.5862,-63.877,188.412)">
                        <rect x="130.8" y="107.1" width="43.4" height="99.3" style="fill:rgb(59,34,95);"/>
                    </g>
                    <g transform="matrix(0.5862,-0.8101,0.8101,0.5862,-21.3165,195.029)">
                        <rect x="158.6" y="68.7" width="43.4" height="99.3" style="fill:rgb(59,34,95);"/>
                    </g>
                    <g transform="matrix(0.5862,-0.8101,0.8101,0.5862,21.244,201.645)">
                        <rect x="186.3" y="30.4" width="43.4" height="99.3" style="fill:rgb(59,34,95);"/>
                    </g>
                    <g>
                        <path d="M-33.2,361.6L-26.8,366.2C-29.7,367.2 -31.7,368.4 -32.8,370C-34,371.7 -34.5,373.6 -34,375.5C-33.6,377.4 -32.5,379.1 -30.6,380.5C-28.9,381.7 -27.2,382.4 -25.4,382.5C-24.5,382.6 -23.1,382.5 -21.5,382.4C-19.8,382.2 -17.7,381.9 -15.2,381.5C-10.6,380.8 -6.9,380.7 -4.2,381.1C-1.6,381.5 1.1,382.7 3.9,384.7C7.7,387.4 10,390.7 10.9,394.6C11.7,398.4 11,402 8.6,405.3C6.6,408.1 4.1,409.9 1.1,410.8L-5.4,406.1C-2,405 0.4,403.5 1.8,401.6C3.1,399.8 3.5,398 3.1,396.1C2.6,394.2 1.4,392.6 -0.6,391.1C-2.4,389.8 -4.2,389.1 -6.2,388.8C-7.2,388.7 -8.3,388.7 -9.7,388.8C-11.1,388.9 -12.7,389.1 -14.5,389.4C-17.3,389.9 -19.8,390.2 -21.8,390.4C-23.9,390.6 -25.5,390.6 -26.9,390.4C-29.5,390.1 -32.2,388.9 -35,386.9C-38.8,384.2 -41.1,381 -41.9,377.4C-42.7,373.8 -41.9,370.3 -39.5,366.9C-38,364.8 -35.8,362.9 -33.2,361.6Z" style="fill:rgb(102,74,158);fill-rule:nonzero;"/>
                    </g>
                    <g>
                        <path d="M13.1,295.6L17.8,289L66.4,324.2L61.7,330.8L13.1,295.6Z" style="fill:rgb(102,74,158);fill-rule:nonzero;"/>
                    </g>
                    <g>
                        <path d="M35.4,264.7L50.8,243.4L56.5,247.5L51.2,254.8L94.1,285.8L89.4,292.2L46.5,261.2L41,268.8L35.4,264.7Z" style="fill:rgb(102,74,158);fill-rule:nonzero;"/>
                    </g>
                    <g>
                        <path d="M79.3,205.8L85.2,210.1C83.2,211.2 81.7,212.3 80.9,213.4C79.8,215 79.2,216.6 79.2,218.2C79.2,219.9 79.7,221.6 80.7,223.5C81.8,225.4 83.4,227.4 85.6,229.5C87.8,231.6 90.6,233.9 93.9,236.3C105.9,245 114.1,246.3 118.6,240.1C119.4,239 120,237.5 120.4,235.5L126.4,239.9C126.1,242.1 125.3,244.2 123.9,246.1C116.8,256 105.2,255.1 89.1,243.4C80.4,237.1 74.8,231.2 72.3,225.8C69.8,220.3 70.3,215.1 73.9,210.2C75.2,208.3 77,206.9 79.3,205.8Z" style="fill:rgb(102,74,158);fill-rule:nonzero;"/>
                    </g>
                    <g>
                        <path d="M90.3,188.8L95,182.2L114,196L121,186.4L102,172.6L106.7,166L155.3,201.2L150.6,207.8L126.5,190.4L119.5,200L143.6,217.4L139,224L90.3,188.8Z" style="fill:rgb(102,74,158);fill-rule:nonzero;"/>
                    </g>
                    <g>
                        <path d="M119.3,148.8L125.7,139.9C130.7,132.9 137.6,132.6 146.2,138.8C149.5,141.2 151.6,143.4 152.6,145.5C153.5,147.6 153.6,150 152.8,152.9C155.8,151 158.4,150.2 160.7,150.4C163,150.6 165.8,151.9 169.1,154.2C178,160.7 179.7,167.7 174.2,175.4L168,184L119.3,148.8ZM145.2,158.1C147,155.6 147.7,153.4 147.3,151.5C146.8,149.6 145,147.5 141.9,145.3C136.7,141.5 132.7,141.5 129.9,145.3L129.5,145.8L129.3,146.1C129.2,146.3 129.1,146.4 129.1,146.4L145.2,158.1ZM166.8,173.7C168.7,171 169.5,168.7 169.1,166.9C168.7,165 167,163 163.9,160.8C160.8,158.6 158.2,157.5 156.2,157.7C154.2,157.8 152.2,159.2 150.3,161.8L166.8,173.7Z" style="fill:rgb(102,74,158);fill-rule:nonzero;"/>
                    </g>
                    <g>
                        <path d="M188.6,106.7C197.2,112.9 202.6,118.3 204.8,122.8C207,127.3 206.5,131.8 203.3,136.3C199.9,141 195.5,143 190.2,142.1C185,141.3 177.6,137.3 167.9,130.3C159.2,124 153.8,118.7 151.6,114.2C149.4,109.7 149.9,105.1 153.2,100.6C156.1,96.5 159.7,94.5 164,94.6C166.8,94.7 170.2,95.6 174,97.5C177.6,99.2 182.5,102.3 188.6,106.7ZM184.3,114.1C175.9,108 170,104.3 166.7,103.1C163.4,101.9 160.9,102.4 159.2,104.7C157.5,107 157.7,109.5 159.6,112.1C161.6,114.7 166.5,118.8 174.2,124.4C181.3,129.6 186.5,132.7 189.9,133.9C193.1,135 195.5,134.4 197.1,132.1C198.7,129.9 198.6,127.5 196.7,124.9C195,122.5 190.8,118.8 184.3,114.1Z" style="fill:rgb(102,74,158);fill-rule:nonzero;"/>
                    </g>
                    <g>
                        <g>
                            <g>
                                <path d="M-57.7,337.2L-56,334.9C-52.9,337.4 -52.3,339.9 -54.1,342.3C-54.6,343 -55.2,343.5 -55.9,343.9C-56.5,344.2 -57.3,344.4 -58.1,344.3C-58.9,344.2 -59.8,344 -60.8,343.5C-61.8,343 -62.9,342.4 -64.1,341.5C-66.5,339.8 -68,338.1 -68.7,336.6C-69.4,335.1 -69.2,333.6 -68.2,332.2C-66.2,329.5 -62.9,329.9 -58.1,333.3L-57.8,333.5L-61.9,339.2C-59,341.3 -57.1,341.8 -56.3,340.6C-55.5,339.6 -56,338.5 -57.7,337.2ZM-61.3,334.8C-62.8,333.9 -63.9,333.4 -64.5,333.3C-65.2,333.2 -65.7,333.4 -66,333.9C-66.4,334.4 -66.4,335 -66,335.5C-65.7,336 -64.9,336.9 -63.5,338L-61.3,334.8Z" style="fill:rgb(59,34,95);fill-rule:nonzero;"/>
                            </g>
                        </g>
                        <g>
                            <g>
                                <path d="M-52.8,317.6L-49.2,312.6L-48.4,313.2C-44.5,316.1 -42,318.3 -41.2,320C-40.3,321.7 -40.5,323.5 -41.8,325.4C-43.2,327.3 -45,328.1 -47.2,327.8C-49.4,327.5 -52.3,326 -56,323.3C-60.3,320.2 -62.8,317.7 -63.5,315.8C-64.2,314 -63.9,312.2 -62.7,310.5C-61.7,309.2 -60.7,308.4 -59.5,308.1C-58.3,307.8 -56.8,308 -55,308.6L-55.8,311.9C-56.4,311.6 -57,311.4 -57.4,311.3C-57.9,311.2 -58.3,311.1 -58.6,311.1C-59.3,311.1 -59.8,311.5 -60.3,312.2C-61,313.1 -60.8,314.1 -60,315.3C-59.1,316.5 -57.1,318.2 -54,320.4C-50.9,322.6 -48.7,324 -47.4,324.4C-46.1,324.8 -45.1,324.6 -44.4,323.6C-43.8,322.7 -43.7,321.8 -44.2,320.9C-44.8,319.9 -46,318.8 -47.8,317.5L-48.4,317.1L-48.8,316.8L-50.5,319.2L-52.8,317.6Z" style="fill:rgb(59,34,95);fill-rule:nonzero;"/>
                            </g>
                        </g>
                        <g>
                            <g>
                                <path d="M-44.6,300.1L-31,309.9L-32.8,312.4L-34.5,311.1C-34,312 -33.8,312.7 -33.7,313.3C-33.7,313.9 -33.9,314.4 -34.3,315C-35.1,316.1 -36.3,316.5 -37.8,316.2C-39.3,315.9 -41.3,314.8 -43.8,313.1C-46.2,311.4 -47.7,309.9 -48.4,308.6C-49.1,307.3 -49.1,306 -48.3,304.9C-47.6,303.9 -46.4,303.5 -44.7,303.7L-46.2,302.6L-44.6,300.1ZM-42,310.7C-40.2,312 -38.9,312.8 -38,313.1C-37.1,313.4 -36.5,313.2 -36,312.6C-35.6,312 -35.7,311.4 -36.2,310.6C-36.8,309.8 -37.9,308.8 -39.6,307.6C-41.2,306.4 -42.5,305.7 -43.5,305.3C-44.4,305 -45.1,305.2 -45.5,305.7C-45.9,306.3 -45.9,307 -45.4,307.7C-44.9,308.4 -43.8,309.4 -42,310.7Z" style="fill:rgb(59,34,95);fill-rule:nonzero;"/>
                            </g>
                        </g>
                        <g>
                            <g>
                                <path d="M-42.6,297.3L-40.8,294.8L-39.1,296C-39.9,294.4 -39.8,293 -39,291.9C-38.1,290.6 -36.8,290.3 -35.3,290.7C-36.1,289.1 -36,287.7 -35.1,286.5C-34.4,285.5 -33.6,285 -32.8,284.9C-31.9,284.8 -31,285 -30,285.8L-19.2,293.6L-21,296.1L-29.9,289.6C-30.9,288.9 -31.7,288.5 -32.2,288.4C-32.7,288.3 -33.1,288.6 -33.5,289.1C-33.9,289.7 -34.1,290.2 -33.8,290.7C-33.6,291.2 -33,291.8 -32,292.5L-23.1,299L-25,301.6L-33.9,295.1C-34.4,294.8 -34.8,294.5 -35.2,294.3C-35.6,294.1 -35.9,294 -36.2,294C-36.5,294 -36.7,294 -37,294.1C-37.2,294.2 -37.4,294.4 -37.6,294.7C-38,295.3 -38.1,295.8 -37.9,296.4C-37.7,296.9 -37.1,297.5 -36.2,298.2L-27.3,304.7L-29.1,307.2L-42.6,297.3Z" style="fill:rgb(59,34,95);fill-rule:nonzero;"/>
                            </g>
                        </g>
                        <g>
                            <g>
                                <path d="M-17.9,282.1L-16.2,279.8C-13.1,282.3 -12.5,284.8 -14.3,287.2C-14.8,287.9 -15.4,288.5 -16.1,288.8C-16.7,289.1 -17.5,289.3 -18.3,289.2C-19.1,289.1 -20,288.9 -21,288.4C-22,287.9 -23.1,287.3 -24.3,286.4C-26.7,284.7 -28.2,283 -28.9,281.5C-29.6,280 -29.4,278.5 -28.4,277.1C-26.4,274.4 -23.1,274.8 -18.3,278.2L-18,278.4L-22.2,284.1C-19.3,286.2 -17.4,286.7 -16.6,285.5C-15.6,284.6 -16.1,283.4 -17.9,282.1ZM-21.5,279.7C-23,278.8 -24.1,278.3 -24.7,278.2C-25.4,278.1 -25.9,278.3 -26.2,278.8C-26.6,279.3 -26.6,279.9 -26.2,280.4C-25.9,280.9 -25.1,281.8 -23.7,282.9L-21.5,279.7Z" style="fill:rgb(59,34,95);fill-rule:nonzero;"/>
                            </g>
                        </g>
                        <g>
                            <g>
                                <path d="M-6.8,262.4C-2.2,265.7 -0.9,268.8 -3,271.7C-5.1,274.5 -8.4,274.3 -13.1,270.9C-17.8,267.5 -19.1,264.4 -17,261.6C-16.5,260.9 -15.9,260.3 -15.2,260C-14.5,259.7 -13.8,259.5 -12.9,259.6C-12.1,259.7 -11.1,259.9 -10.1,260.4C-9.2,260.8 -8,261.5 -6.8,262.4ZM-8.7,264.9C-10.5,263.6 -11.8,262.8 -12.7,262.6C-13.6,262.3 -14.2,262.5 -14.7,263.1C-15.1,263.7 -15.1,264.4 -14.6,265.1C-14.1,265.8 -12.9,266.8 -11.2,268.1C-9.5,269.4 -8.2,270.1 -7.3,270.4C-6.4,270.7 -5.8,270.5 -5.3,269.9C-4.9,269.3 -4.9,268.6 -5.4,267.9C-5.9,267.2 -7,266.2 -8.7,264.9Z" style="fill:rgb(59,34,95);fill-rule:nonzero;"/>
                            </g>
                        </g>
                        <g>
                            <g>
                                <path d="M-12.7,256L-11.8,254.7L-16.5,251.3C-18,250.2 -19,249.2 -19.3,248.2C-19.6,247.3 -19.4,246.3 -18.5,245.1C-18.1,244.6 -17.6,244.1 -16.9,243.7L-14.2,245.6C-14.7,245.8 -15.1,246.1 -15.3,246.4C-15.6,246.8 -15.7,247.2 -15.6,247.6C-15.5,248 -15.1,248.4 -14.5,248.8L-13.5,249.6L-9.9,252.2L-8.4,250.1L-6.4,251.5L-7.9,253.6L3.7,262L1.9,264.5L-9.7,256.1L-10.6,257.4L-12.7,256Z" style="fill:rgb(59,34,95);fill-rule:nonzero;"/>
                            </g>
                        </g>
                    </g>
                    <g>
                        <path d="M-4.5,322.9C-4.5,322.9 22.8,345.1 24.2,346.3L29.2,350C29.3,350.1 29.5,350.3 29.7,350.5C30,350.7 30.3,351 30.7,351.3L29,350.3C26.1,348.6 23.3,347 20.8,345.6C18.3,344.2 15.9,343 13.7,341.9L-8,329.5L-8.1,329.6L-11.7,334.5L-11.8,334.6L6.9,351.4C8.6,353.1 10.5,355 12.6,357C14.7,359 17,361.1 19.6,363.3L21.1,364.6C20.6,364.3 20.3,364.1 20,363.9C19.7,363.7 19.5,363.6 19.4,363.6L14.3,360C12.7,359 -16.9,340 -16.9,340L-21.5,346.3L31.1,376L34.9,370.7L16.1,352.4C16,352.3 2.6,340.9 2.6,340.9C2.6,340.9 15.1,348.8 17.6,350.3L41,362.5L44.8,357.2L0.1,316.6L-4.5,322.9Z" style="fill:rgb(102,74,158);fill-rule:nonzero;"/>
                    </g>
                </g>
            </g>
        </g>
        <g transform="matrix(1.00631,0,0,1.00103,-0.503157,-0.500514)">
            <rect x="0.5" y="0.5" width="158.4" height="486.4" style="fill:url(#_Linear1);"/>
        </g>
    </g>
    <defs>
        <linearGradient id="_Linear1" x1="0" y1="0" x2="1" y2="0" gradientUnits="userSpaceOnUse" gradientTransform="matrix(4.74439e-14,-774.817,774.817,4.74439e-14,79.7242,576.813)"><stop offset="0" style="stop-color:white;stop-opacity:0"/><stop offset="0.08" style="stop-color:rgb(173,167,191);stop-opacity:0.06"/><stop offset="0.17" style="stop-color:rgb(122,112,145);stop-opacity:0.12"/><stop offset="0.26" style="stop-color:rgb(86,74,111);stop-opacity:0.19"/><stop offset="0.36" style="stop-color:rgb(62,46,87);stop-opacity:0.26"/><stop offset="0.45" style="stop-color:rgb(44,24,69);stop-opacity:0.33"/><stop offset="0.56" style="stop-color:rgb(31,2,56);stop-opacity:0.41"/><stop offset="0.67" style="stop-color:rgb(24,0,48);stop-opacity:0.49"/><stop offset="0.81" style="stop-color:rgb(21,0,45);stop-opacity:0.6"/><stop offset="1" style="stop-color:rgb(21,0,45);stop-opacity:0.6"/></linearGradient>
    </defs>
</svg>
